M48
; DRILL file KiCad 10.0.0 date 2026-04-27T20:38:27
; FORMAT={-:-/ absolute / metric / decimal}
; #@! TF.CreationDate,2026-04-27T20:38:27+10:00
; #@! TF.GenerationSoftware,Kicad,Pcbnew,10.0.0
; #@! TF.FileFunction,Plated,1,2,PTH
FMAT,2
METRIC
; #@! TA.AperFunction,Plated,PTH,ViaDrill
T1C0.300
; #@! TA.AperFunction,Plated,PTH,ViaDrill
T2C0.400
; #@! TA.AperFunction,Plated,PTH,ComponentDrill
T3C0.600
; #@! TA.AperFunction,Plated,PTH,ComponentDrill
T4C0.750
; #@! TA.AperFunction,Plated,PTH,ComponentDrill
T5C0.800
; #@! TA.AperFunction,Plated,PTH,ComponentDrill
T6C0.950
; #@! TA.AperFunction,Plated,PTH,ComponentDrill
T7C1.000
; #@! TA.AperFunction,Plated,PTH,ComponentDrill
T8C1.100
; #@! TA.AperFunction,Plated,PTH,ComponentDrill
T9C1.500
; #@! TA.AperFunction,Plated,PTH,ComponentDrill
T10C3.200
%
G90
G05
T1
X172.0Y-107.0
X211.0Y-76.25
X212.25Y-76.25
X212.674Y-93.675
X213.68Y-70.04
X216.26Y-80.89
X216.724Y-76.626
X217.047Y-75.894
X217.63Y-75.29
X217.9Y-81.97
X219.74Y-75.37
X219.76Y-76.55
X219.76Y-77.49
X221.05Y-75.25
X221.8Y-75.37
X222.17Y-76.13
X223.114Y-93.066
X223.5Y-80.06
X223.901Y-107.239
X230.41Y-77.25
T2
X172.009Y-94.793
X222.5Y-109.5
X222.75Y-110.25
X223.25Y-109.5
X223.5Y-110.25
X225.908Y-91.11
X226.0Y-93.8
X226.1Y-109.4
X226.1Y-110.1
X226.2Y-90.4
X226.35Y-94.5
X226.7Y-93.3
X226.75Y-91.25
X227.0Y-90.4
X227.0Y-109.5
X227.0Y-110.25
X227.05Y-94.05
T3
X220.428Y-107.772
X222.428Y-107.772
X224.0Y-94.749
X224.0Y-96.749
X226.34Y-77.397
X226.34Y-79.397
T4
X235.035Y-71.175
X235.035Y-73.175
X235.035Y-75.175
T5
X224.0Y-82.295
X224.0Y-84.795
T6
X218.845Y-114.215
X221.345Y-114.215
X223.845Y-114.215
X226.345Y-114.215
X228.845Y-114.215
X231.191Y-85.907
X231.191Y-88.407
X231.191Y-90.907
X231.191Y-93.407
X231.191Y-95.907
X231.191Y-98.407
X231.345Y-114.215
T7
X170.231Y-84.607
X170.231Y-87.147
X172.771Y-84.607
X172.771Y-87.147
X173.139Y-111.551
X173.139Y-114.091
X173.139Y-116.631
X174.396Y-65.964
X174.396Y-68.504
X174.396Y-71.044
X174.396Y-73.584
X174.396Y-76.124
X174.396Y-78.664
X175.311Y-84.607
X175.311Y-87.147
X177.0Y-111.5
X177.0Y-114.04
X177.0Y-116.58
X177.851Y-84.607
X177.851Y-87.147
X180.391Y-84.607
X180.391Y-87.147
X180.736Y-111.525
X180.736Y-114.065
X180.736Y-116.605
X186.538Y-67.843
X186.538Y-70.383
X186.538Y-72.923
X186.538Y-75.463
X186.538Y-78.003
X186.538Y-80.543
X186.538Y-83.083
X186.538Y-85.623
X186.538Y-88.163
X186.538Y-90.703
X186.538Y-93.243
X186.538Y-95.783
X186.538Y-98.323
X186.538Y-100.863
X186.538Y-103.403
X186.538Y-105.943
X186.538Y-108.483
X186.538Y-111.023
X186.538Y-113.563
X186.538Y-116.103
X204.318Y-67.843
X204.318Y-70.383
X204.318Y-72.923
X204.318Y-75.463
X204.318Y-78.003
X204.318Y-80.543
X204.318Y-83.083
X204.318Y-85.623
X204.318Y-88.163
X204.318Y-90.703
X204.318Y-93.243
X204.318Y-95.783
X204.318Y-98.323
X204.318Y-100.863
X204.318Y-103.403
X204.318Y-105.943
X204.318Y-108.483
X204.318Y-111.023
X204.318Y-113.563
X204.318Y-116.103
X210.439Y-81.89
X210.439Y-84.43
X210.439Y-86.97
X210.439Y-89.51
T8
X172.086Y-98.969
X172.086Y-103.469
X178.586Y-98.969
X178.586Y-103.469
X208.891Y-96.124
X208.891Y-100.624
X215.391Y-96.124
X215.391Y-100.624
T9
X218.25Y-66.25
X218.25Y-72.75
X222.75Y-66.25
X222.75Y-72.75
X227.25Y-66.25
X227.25Y-72.75
T10
X168.5Y-63.5
X168.5Y-120.0
X236.5Y-63.5
X236.5Y-120.0
M30
