M48
; DRILL file {KiCad 9.0.6} date 2025-11-30T22:11:01+1000
; FORMAT={-:-/ absolute / metric / decimal}
; #@! TF.CreationDate,2025-11-30T22:11:01+10:00
; #@! TF.GenerationSoftware,Kicad,Pcbnew,9.0.6
; #@! TF.FileFunction,Plated,1,2,PTH
FMAT,2
METRIC
; #@! TA.AperFunction,Plated,PTH,ViaDrill
T1C0.300
; #@! TA.AperFunction,Plated,PTH,ViaDrill
T2C0.400
; #@! TA.AperFunction,Plated,PTH,ComponentDrill
T3C0.600
; #@! TA.AperFunction,Plated,PTH,ComponentDrill
T4C0.800
; #@! TA.AperFunction,Plated,PTH,ComponentDrill
T5C0.950
; #@! TA.AperFunction,Plated,PTH,ComponentDrill
T6C1.000
; #@! TA.AperFunction,Plated,PTH,ComponentDrill
T7C1.100
; #@! TA.AperFunction,Plated,PTH,ComponentDrill
T8C1.500
; #@! TA.AperFunction,Plated,PTH,ComponentDrill
T9C3.200
%
G90
G05
T1
X172.0Y-107.0
X212.674Y-93.675
X215.5Y-84.0
X223.114Y-93.066
X223.901Y-107.239
T2
X172.009Y-94.793
X222.5Y-109.5
X222.75Y-110.25
X223.25Y-109.5
X223.5Y-110.25
X225.908Y-91.11
X226.0Y-93.8
X226.1Y-109.4
X226.1Y-110.1
X226.2Y-90.4
X226.35Y-94.5
X226.7Y-93.3
X226.75Y-91.25
X227.0Y-90.4
X227.0Y-109.5
X227.0Y-110.25
X227.05Y-94.05
T3
X220.428Y-107.772
X222.428Y-107.772
X223.1Y-79.1
X223.1Y-81.1
X224.0Y-94.749
X224.0Y-96.749
T4
X228.4Y-78.705
X228.4Y-81.205
T5
X218.845Y-114.215
X221.345Y-114.215
X223.845Y-114.215
X226.345Y-114.215
X228.845Y-114.215
X231.191Y-85.907
X231.191Y-88.407
X231.191Y-90.907
X231.191Y-93.407
X231.191Y-95.907
X231.191Y-98.407
X231.345Y-114.215
T6
X170.231Y-84.607
X170.231Y-87.147
X172.771Y-84.607
X172.771Y-87.147
X173.139Y-111.551
X173.139Y-114.091
X173.139Y-116.631
X174.396Y-65.964
X174.396Y-68.504
X174.396Y-71.044
X174.396Y-73.584
X174.396Y-76.124
X174.396Y-78.664
X175.311Y-84.607
X175.311Y-87.147
X177.0Y-111.5
X177.0Y-114.04
X177.0Y-116.58
X177.851Y-84.607
X177.851Y-87.147
X180.391Y-84.607
X180.391Y-87.147
X180.736Y-111.525
X180.736Y-114.065
X180.736Y-116.605
X186.538Y-67.843
X186.538Y-70.383
X186.538Y-72.923
X186.538Y-75.463
X186.538Y-78.003
X186.538Y-80.543
X186.538Y-83.083
X186.538Y-85.623
X186.538Y-88.163
X186.538Y-90.703
X186.538Y-93.243
X186.538Y-95.783
X186.538Y-98.323
X186.538Y-100.863
X186.538Y-103.403
X186.538Y-105.943
X186.538Y-108.483
X186.538Y-111.023
X186.538Y-113.563
X186.538Y-116.103
X204.318Y-67.843
X204.318Y-70.383
X204.318Y-72.923
X204.318Y-75.463
X204.318Y-78.003
X204.318Y-80.543
X204.318Y-83.083
X204.318Y-85.623
X204.318Y-88.163
X204.318Y-90.703
X204.318Y-93.243
X204.318Y-95.783
X204.318Y-98.323
X204.318Y-100.863
X204.318Y-103.403
X204.318Y-105.943
X204.318Y-108.483
X204.318Y-111.023
X204.318Y-113.563
X204.318Y-116.103
X210.439Y-81.89
X210.439Y-84.43
X210.439Y-86.97
X210.439Y-89.51
X230.378Y-69.28
X230.378Y-71.78
T7
X172.086Y-98.969
X172.086Y-103.469
X178.586Y-98.969
X178.586Y-103.469
X208.891Y-96.124
X208.891Y-100.624
X215.391Y-96.124
X215.391Y-100.624
T8
X214.042Y-67.387
X214.042Y-73.887
X218.542Y-67.387
X218.542Y-73.887
X223.042Y-67.387
X223.042Y-73.887
T9
X168.5Y-63.5
X168.5Y-120.0
X236.5Y-63.5
X236.5Y-120.0
M30
