G04 #@! TF.GenerationSoftware,KiCad,Pcbnew,9.0.6*
G04 #@! TF.CreationDate,2025-11-30T22:10:16+10:00*
G04 #@! TF.ProjectId,MARS_Micromouse,4d415253-5f4d-4696-9372-6f6d6f757365,rev?*
G04 #@! TF.SameCoordinates,Original*
G04 #@! TF.FileFunction,Legend,Top*
G04 #@! TF.FilePolarity,Positive*
%FSLAX46Y46*%
G04 Gerber Fmt 4.6, Leading zero omitted, Abs format (unit mm)*
G04 Created by KiCad (PCBNEW 9.0.6) date 2025-11-30 22:10:16*
%MOMM*%
%LPD*%
G01*
G04 APERTURE LIST*
%ADD10C,0.150000*%
%ADD11C,0.300000*%
%ADD12C,0.120000*%
%ADD13C,0.100000*%
G04 APERTURE END LIST*
D10*
X170500000Y-72500000D02*
X170500000Y-67000000D01*
X170500000Y-72500000D02*
X170500000Y-80000000D01*
X172000000Y-118500000D02*
X172000000Y-120500000D01*
X172000000Y-120500000D02*
X182500000Y-120500000D01*
X170500000Y-67000000D02*
X172500000Y-67000000D01*
X172500000Y-72500000D02*
X170500000Y-72500000D01*
X170500000Y-80000000D02*
X172500000Y-80000000D01*
X182500000Y-120500000D02*
X182500000Y-118500000D01*
X178369819Y-91163220D02*
X177369819Y-91163220D01*
X177369819Y-90496554D02*
X177369819Y-90401316D01*
X177369819Y-90401316D02*
X177417438Y-90306078D01*
X177417438Y-90306078D02*
X177465057Y-90258459D01*
X177465057Y-90258459D02*
X177560295Y-90210840D01*
X177560295Y-90210840D02*
X177750771Y-90163221D01*
X177750771Y-90163221D02*
X177988866Y-90163221D01*
X177988866Y-90163221D02*
X178179342Y-90210840D01*
X178179342Y-90210840D02*
X178274580Y-90258459D01*
X178274580Y-90258459D02*
X178322200Y-90306078D01*
X178322200Y-90306078D02*
X178369819Y-90401316D01*
X178369819Y-90401316D02*
X178369819Y-90496554D01*
X178369819Y-90496554D02*
X178322200Y-90591792D01*
X178322200Y-90591792D02*
X178274580Y-90639411D01*
X178274580Y-90639411D02*
X178179342Y-90687030D01*
X178179342Y-90687030D02*
X177988866Y-90734649D01*
X177988866Y-90734649D02*
X177750771Y-90734649D01*
X177750771Y-90734649D02*
X177560295Y-90687030D01*
X177560295Y-90687030D02*
X177465057Y-90639411D01*
X177465057Y-90639411D02*
X177417438Y-90591792D01*
X177417438Y-90591792D02*
X177369819Y-90496554D01*
X177369819Y-89258459D02*
X177369819Y-89734649D01*
X177369819Y-89734649D02*
X177846009Y-89782268D01*
X177846009Y-89782268D02*
X177798390Y-89734649D01*
X177798390Y-89734649D02*
X177750771Y-89639411D01*
X177750771Y-89639411D02*
X177750771Y-89401316D01*
X177750771Y-89401316D02*
X177798390Y-89306078D01*
X177798390Y-89306078D02*
X177846009Y-89258459D01*
X177846009Y-89258459D02*
X177941247Y-89210840D01*
X177941247Y-89210840D02*
X178179342Y-89210840D01*
X178179342Y-89210840D02*
X178274580Y-89258459D01*
X178274580Y-89258459D02*
X178322200Y-89306078D01*
X178322200Y-89306078D02*
X178369819Y-89401316D01*
X178369819Y-89401316D02*
X178369819Y-89639411D01*
X178369819Y-89639411D02*
X178322200Y-89734649D01*
X178322200Y-89734649D02*
X178274580Y-89782268D01*
X234836779Y-71988866D02*
X235598684Y-71988866D01*
X235217731Y-72369819D02*
X235217731Y-71607914D01*
X173369819Y-82663220D02*
X172369819Y-82663220D01*
X172369819Y-81996554D02*
X172369819Y-81901316D01*
X172369819Y-81901316D02*
X172417438Y-81806078D01*
X172417438Y-81806078D02*
X172465057Y-81758459D01*
X172465057Y-81758459D02*
X172560295Y-81710840D01*
X172560295Y-81710840D02*
X172750771Y-81663221D01*
X172750771Y-81663221D02*
X172988866Y-81663221D01*
X172988866Y-81663221D02*
X173179342Y-81710840D01*
X173179342Y-81710840D02*
X173274580Y-81758459D01*
X173274580Y-81758459D02*
X173322200Y-81806078D01*
X173322200Y-81806078D02*
X173369819Y-81901316D01*
X173369819Y-81901316D02*
X173369819Y-81996554D01*
X173369819Y-81996554D02*
X173322200Y-82091792D01*
X173322200Y-82091792D02*
X173274580Y-82139411D01*
X173274580Y-82139411D02*
X173179342Y-82187030D01*
X173179342Y-82187030D02*
X172988866Y-82234649D01*
X172988866Y-82234649D02*
X172750771Y-82234649D01*
X172750771Y-82234649D02*
X172560295Y-82187030D01*
X172560295Y-82187030D02*
X172465057Y-82139411D01*
X172465057Y-82139411D02*
X172417438Y-82091792D01*
X172417438Y-82091792D02*
X172369819Y-81996554D01*
X172369819Y-81044173D02*
X172369819Y-80948935D01*
X172369819Y-80948935D02*
X172417438Y-80853697D01*
X172417438Y-80853697D02*
X172465057Y-80806078D01*
X172465057Y-80806078D02*
X172560295Y-80758459D01*
X172560295Y-80758459D02*
X172750771Y-80710840D01*
X172750771Y-80710840D02*
X172988866Y-80710840D01*
X172988866Y-80710840D02*
X173179342Y-80758459D01*
X173179342Y-80758459D02*
X173274580Y-80806078D01*
X173274580Y-80806078D02*
X173322200Y-80853697D01*
X173322200Y-80853697D02*
X173369819Y-80948935D01*
X173369819Y-80948935D02*
X173369819Y-81044173D01*
X173369819Y-81044173D02*
X173322200Y-81139411D01*
X173322200Y-81139411D02*
X173274580Y-81187030D01*
X173274580Y-81187030D02*
X173179342Y-81234649D01*
X173179342Y-81234649D02*
X172988866Y-81282268D01*
X172988866Y-81282268D02*
X172750771Y-81282268D01*
X172750771Y-81282268D02*
X172560295Y-81234649D01*
X172560295Y-81234649D02*
X172465057Y-81187030D01*
X172465057Y-81187030D02*
X172417438Y-81139411D01*
X172417438Y-81139411D02*
X172369819Y-81044173D01*
X170869819Y-71258458D02*
X170869819Y-70639411D01*
X170869819Y-70639411D02*
X171250771Y-70972744D01*
X171250771Y-70972744D02*
X171250771Y-70829887D01*
X171250771Y-70829887D02*
X171298390Y-70734649D01*
X171298390Y-70734649D02*
X171346009Y-70687030D01*
X171346009Y-70687030D02*
X171441247Y-70639411D01*
X171441247Y-70639411D02*
X171679342Y-70639411D01*
X171679342Y-70639411D02*
X171774580Y-70687030D01*
X171774580Y-70687030D02*
X171822200Y-70734649D01*
X171822200Y-70734649D02*
X171869819Y-70829887D01*
X171869819Y-70829887D02*
X171869819Y-71115601D01*
X171869819Y-71115601D02*
X171822200Y-71210839D01*
X171822200Y-71210839D02*
X171774580Y-71258458D01*
X171774580Y-70210839D02*
X171822200Y-70163220D01*
X171822200Y-70163220D02*
X171869819Y-70210839D01*
X171869819Y-70210839D02*
X171822200Y-70258458D01*
X171822200Y-70258458D02*
X171774580Y-70210839D01*
X171774580Y-70210839D02*
X171869819Y-70210839D01*
X170869819Y-69829887D02*
X170869819Y-69210840D01*
X170869819Y-69210840D02*
X171250771Y-69544173D01*
X171250771Y-69544173D02*
X171250771Y-69401316D01*
X171250771Y-69401316D02*
X171298390Y-69306078D01*
X171298390Y-69306078D02*
X171346009Y-69258459D01*
X171346009Y-69258459D02*
X171441247Y-69210840D01*
X171441247Y-69210840D02*
X171679342Y-69210840D01*
X171679342Y-69210840D02*
X171774580Y-69258459D01*
X171774580Y-69258459D02*
X171822200Y-69306078D01*
X171822200Y-69306078D02*
X171869819Y-69401316D01*
X171869819Y-69401316D02*
X171869819Y-69687030D01*
X171869819Y-69687030D02*
X171822200Y-69782268D01*
X171822200Y-69782268D02*
X171774580Y-69829887D01*
X170869819Y-68925125D02*
X171869819Y-68591792D01*
X171869819Y-68591792D02*
X170869819Y-68258459D01*
X170869819Y-91163220D02*
X169869819Y-91163220D01*
X169869819Y-90496554D02*
X169869819Y-90401316D01*
X169869819Y-90401316D02*
X169917438Y-90306078D01*
X169917438Y-90306078D02*
X169965057Y-90258459D01*
X169965057Y-90258459D02*
X170060295Y-90210840D01*
X170060295Y-90210840D02*
X170250771Y-90163221D01*
X170250771Y-90163221D02*
X170488866Y-90163221D01*
X170488866Y-90163221D02*
X170679342Y-90210840D01*
X170679342Y-90210840D02*
X170774580Y-90258459D01*
X170774580Y-90258459D02*
X170822200Y-90306078D01*
X170822200Y-90306078D02*
X170869819Y-90401316D01*
X170869819Y-90401316D02*
X170869819Y-90496554D01*
X170869819Y-90496554D02*
X170822200Y-90591792D01*
X170822200Y-90591792D02*
X170774580Y-90639411D01*
X170774580Y-90639411D02*
X170679342Y-90687030D01*
X170679342Y-90687030D02*
X170488866Y-90734649D01*
X170488866Y-90734649D02*
X170250771Y-90734649D01*
X170250771Y-90734649D02*
X170060295Y-90687030D01*
X170060295Y-90687030D02*
X169965057Y-90639411D01*
X169965057Y-90639411D02*
X169917438Y-90591792D01*
X169917438Y-90591792D02*
X169869819Y-90496554D01*
X170298390Y-89591792D02*
X170250771Y-89687030D01*
X170250771Y-89687030D02*
X170203152Y-89734649D01*
X170203152Y-89734649D02*
X170107914Y-89782268D01*
X170107914Y-89782268D02*
X170060295Y-89782268D01*
X170060295Y-89782268D02*
X169965057Y-89734649D01*
X169965057Y-89734649D02*
X169917438Y-89687030D01*
X169917438Y-89687030D02*
X169869819Y-89591792D01*
X169869819Y-89591792D02*
X169869819Y-89401316D01*
X169869819Y-89401316D02*
X169917438Y-89306078D01*
X169917438Y-89306078D02*
X169965057Y-89258459D01*
X169965057Y-89258459D02*
X170060295Y-89210840D01*
X170060295Y-89210840D02*
X170107914Y-89210840D01*
X170107914Y-89210840D02*
X170203152Y-89258459D01*
X170203152Y-89258459D02*
X170250771Y-89306078D01*
X170250771Y-89306078D02*
X170298390Y-89401316D01*
X170298390Y-89401316D02*
X170298390Y-89591792D01*
X170298390Y-89591792D02*
X170346009Y-89687030D01*
X170346009Y-89687030D02*
X170393628Y-89734649D01*
X170393628Y-89734649D02*
X170488866Y-89782268D01*
X170488866Y-89782268D02*
X170679342Y-89782268D01*
X170679342Y-89782268D02*
X170774580Y-89734649D01*
X170774580Y-89734649D02*
X170822200Y-89687030D01*
X170822200Y-89687030D02*
X170869819Y-89591792D01*
X170869819Y-89591792D02*
X170869819Y-89401316D01*
X170869819Y-89401316D02*
X170822200Y-89306078D01*
X170822200Y-89306078D02*
X170774580Y-89258459D01*
X170774580Y-89258459D02*
X170679342Y-89210840D01*
X170679342Y-89210840D02*
X170488866Y-89210840D01*
X170488866Y-89210840D02*
X170393628Y-89258459D01*
X170393628Y-89258459D02*
X170346009Y-89306078D01*
X170346009Y-89306078D02*
X170298390Y-89401316D01*
X212785714Y-89669104D02*
X213261904Y-89669104D01*
X212690476Y-89954819D02*
X213023809Y-88954819D01*
X213023809Y-88954819D02*
X213357142Y-89954819D01*
X213880952Y-88954819D02*
X213976190Y-88954819D01*
X213976190Y-88954819D02*
X214071428Y-89002438D01*
X214071428Y-89002438D02*
X214119047Y-89050057D01*
X214119047Y-89050057D02*
X214166666Y-89145295D01*
X214166666Y-89145295D02*
X214214285Y-89335771D01*
X214214285Y-89335771D02*
X214214285Y-89573866D01*
X214214285Y-89573866D02*
X214166666Y-89764342D01*
X214166666Y-89764342D02*
X214119047Y-89859580D01*
X214119047Y-89859580D02*
X214071428Y-89907200D01*
X214071428Y-89907200D02*
X213976190Y-89954819D01*
X213976190Y-89954819D02*
X213880952Y-89954819D01*
X213880952Y-89954819D02*
X213785714Y-89907200D01*
X213785714Y-89907200D02*
X213738095Y-89859580D01*
X213738095Y-89859580D02*
X213690476Y-89764342D01*
X213690476Y-89764342D02*
X213642857Y-89573866D01*
X213642857Y-89573866D02*
X213642857Y-89335771D01*
X213642857Y-89335771D02*
X213690476Y-89145295D01*
X213690476Y-89145295D02*
X213738095Y-89050057D01*
X213738095Y-89050057D02*
X213785714Y-89002438D01*
X213785714Y-89002438D02*
X213880952Y-88954819D01*
X173369819Y-91163220D02*
X172369819Y-91163220D01*
X172369819Y-90496554D02*
X172369819Y-90401316D01*
X172369819Y-90401316D02*
X172417438Y-90306078D01*
X172417438Y-90306078D02*
X172465057Y-90258459D01*
X172465057Y-90258459D02*
X172560295Y-90210840D01*
X172560295Y-90210840D02*
X172750771Y-90163221D01*
X172750771Y-90163221D02*
X172988866Y-90163221D01*
X172988866Y-90163221D02*
X173179342Y-90210840D01*
X173179342Y-90210840D02*
X173274580Y-90258459D01*
X173274580Y-90258459D02*
X173322200Y-90306078D01*
X173322200Y-90306078D02*
X173369819Y-90401316D01*
X173369819Y-90401316D02*
X173369819Y-90496554D01*
X173369819Y-90496554D02*
X173322200Y-90591792D01*
X173322200Y-90591792D02*
X173274580Y-90639411D01*
X173274580Y-90639411D02*
X173179342Y-90687030D01*
X173179342Y-90687030D02*
X172988866Y-90734649D01*
X172988866Y-90734649D02*
X172750771Y-90734649D01*
X172750771Y-90734649D02*
X172560295Y-90687030D01*
X172560295Y-90687030D02*
X172465057Y-90639411D01*
X172465057Y-90639411D02*
X172417438Y-90591792D01*
X172417438Y-90591792D02*
X172369819Y-90496554D01*
X172369819Y-89829887D02*
X172369819Y-89163221D01*
X172369819Y-89163221D02*
X173369819Y-89591792D01*
X235869819Y-94663220D02*
X234869819Y-94663220D01*
X234869819Y-94663220D02*
X235584104Y-94329887D01*
X235584104Y-94329887D02*
X234869819Y-93996554D01*
X234869819Y-93996554D02*
X235869819Y-93996554D01*
X234869819Y-93329887D02*
X234869819Y-93139411D01*
X234869819Y-93139411D02*
X234917438Y-93044173D01*
X234917438Y-93044173D02*
X235012676Y-92948935D01*
X235012676Y-92948935D02*
X235203152Y-92901316D01*
X235203152Y-92901316D02*
X235536485Y-92901316D01*
X235536485Y-92901316D02*
X235726961Y-92948935D01*
X235726961Y-92948935D02*
X235822200Y-93044173D01*
X235822200Y-93044173D02*
X235869819Y-93139411D01*
X235869819Y-93139411D02*
X235869819Y-93329887D01*
X235869819Y-93329887D02*
X235822200Y-93425125D01*
X235822200Y-93425125D02*
X235726961Y-93520363D01*
X235726961Y-93520363D02*
X235536485Y-93567982D01*
X235536485Y-93567982D02*
X235203152Y-93567982D01*
X235203152Y-93567982D02*
X235012676Y-93520363D01*
X235012676Y-93520363D02*
X234917438Y-93425125D01*
X234917438Y-93425125D02*
X234869819Y-93329887D01*
X234869819Y-92615601D02*
X234869819Y-92044173D01*
X235869819Y-92329887D02*
X234869819Y-92329887D01*
X234869819Y-91520363D02*
X234869819Y-91329887D01*
X234869819Y-91329887D02*
X234917438Y-91234649D01*
X234917438Y-91234649D02*
X235012676Y-91139411D01*
X235012676Y-91139411D02*
X235203152Y-91091792D01*
X235203152Y-91091792D02*
X235536485Y-91091792D01*
X235536485Y-91091792D02*
X235726961Y-91139411D01*
X235726961Y-91139411D02*
X235822200Y-91234649D01*
X235822200Y-91234649D02*
X235869819Y-91329887D01*
X235869819Y-91329887D02*
X235869819Y-91520363D01*
X235869819Y-91520363D02*
X235822200Y-91615601D01*
X235822200Y-91615601D02*
X235726961Y-91710839D01*
X235726961Y-91710839D02*
X235536485Y-91758458D01*
X235536485Y-91758458D02*
X235203152Y-91758458D01*
X235203152Y-91758458D02*
X235012676Y-91710839D01*
X235012676Y-91710839D02*
X234917438Y-91615601D01*
X234917438Y-91615601D02*
X234869819Y-91520363D01*
X235869819Y-90091792D02*
X235393628Y-90425125D01*
X235869819Y-90663220D02*
X234869819Y-90663220D01*
X234869819Y-90663220D02*
X234869819Y-90282268D01*
X234869819Y-90282268D02*
X234917438Y-90187030D01*
X234917438Y-90187030D02*
X234965057Y-90139411D01*
X234965057Y-90139411D02*
X235060295Y-90091792D01*
X235060295Y-90091792D02*
X235203152Y-90091792D01*
X235203152Y-90091792D02*
X235298390Y-90139411D01*
X235298390Y-90139411D02*
X235346009Y-90187030D01*
X235346009Y-90187030D02*
X235393628Y-90282268D01*
X235393628Y-90282268D02*
X235393628Y-90663220D01*
X235869819Y-88377506D02*
X235869819Y-88948934D01*
X235869819Y-88663220D02*
X234869819Y-88663220D01*
X234869819Y-88663220D02*
X235012676Y-88758458D01*
X235012676Y-88758458D02*
X235107914Y-88853696D01*
X235107914Y-88853696D02*
X235155533Y-88948934D01*
X210408207Y-103369819D02*
X210074874Y-102893628D01*
X209836779Y-103369819D02*
X209836779Y-102369819D01*
X209836779Y-102369819D02*
X210217731Y-102369819D01*
X210217731Y-102369819D02*
X210312969Y-102417438D01*
X210312969Y-102417438D02*
X210360588Y-102465057D01*
X210360588Y-102465057D02*
X210408207Y-102560295D01*
X210408207Y-102560295D02*
X210408207Y-102703152D01*
X210408207Y-102703152D02*
X210360588Y-102798390D01*
X210360588Y-102798390D02*
X210312969Y-102846009D01*
X210312969Y-102846009D02*
X210217731Y-102893628D01*
X210217731Y-102893628D02*
X209836779Y-102893628D01*
X210836779Y-102846009D02*
X211170112Y-102846009D01*
X211312969Y-103369819D02*
X210836779Y-103369819D01*
X210836779Y-103369819D02*
X210836779Y-102369819D01*
X210836779Y-102369819D02*
X211312969Y-102369819D01*
X211693922Y-103322200D02*
X211836779Y-103369819D01*
X211836779Y-103369819D02*
X212074874Y-103369819D01*
X212074874Y-103369819D02*
X212170112Y-103322200D01*
X212170112Y-103322200D02*
X212217731Y-103274580D01*
X212217731Y-103274580D02*
X212265350Y-103179342D01*
X212265350Y-103179342D02*
X212265350Y-103084104D01*
X212265350Y-103084104D02*
X212217731Y-102988866D01*
X212217731Y-102988866D02*
X212170112Y-102941247D01*
X212170112Y-102941247D02*
X212074874Y-102893628D01*
X212074874Y-102893628D02*
X211884398Y-102846009D01*
X211884398Y-102846009D02*
X211789160Y-102798390D01*
X211789160Y-102798390D02*
X211741541Y-102750771D01*
X211741541Y-102750771D02*
X211693922Y-102655533D01*
X211693922Y-102655533D02*
X211693922Y-102560295D01*
X211693922Y-102560295D02*
X211741541Y-102465057D01*
X211741541Y-102465057D02*
X211789160Y-102417438D01*
X211789160Y-102417438D02*
X211884398Y-102369819D01*
X211884398Y-102369819D02*
X212122493Y-102369819D01*
X212122493Y-102369819D02*
X212265350Y-102417438D01*
X212693922Y-102846009D02*
X213027255Y-102846009D01*
X213170112Y-103369819D02*
X212693922Y-103369819D01*
X212693922Y-103369819D02*
X212693922Y-102369819D01*
X212693922Y-102369819D02*
X213170112Y-102369819D01*
X213455827Y-102369819D02*
X214027255Y-102369819D01*
X213741541Y-103369819D02*
X213741541Y-102369819D01*
X208502438Y-79261904D02*
X208454819Y-79357142D01*
X208454819Y-79357142D02*
X208454819Y-79499999D01*
X208454819Y-79499999D02*
X208502438Y-79642856D01*
X208502438Y-79642856D02*
X208597676Y-79738094D01*
X208597676Y-79738094D02*
X208692914Y-79785713D01*
X208692914Y-79785713D02*
X208883390Y-79833332D01*
X208883390Y-79833332D02*
X209026247Y-79833332D01*
X209026247Y-79833332D02*
X209216723Y-79785713D01*
X209216723Y-79785713D02*
X209311961Y-79738094D01*
X209311961Y-79738094D02*
X209407200Y-79642856D01*
X209407200Y-79642856D02*
X209454819Y-79499999D01*
X209454819Y-79499999D02*
X209454819Y-79404761D01*
X209454819Y-79404761D02*
X209407200Y-79261904D01*
X209407200Y-79261904D02*
X209359580Y-79214285D01*
X209359580Y-79214285D02*
X209026247Y-79214285D01*
X209026247Y-79214285D02*
X209026247Y-79404761D01*
X209454819Y-78785713D02*
X208454819Y-78785713D01*
X208454819Y-78785713D02*
X209454819Y-78214285D01*
X209454819Y-78214285D02*
X208454819Y-78214285D01*
X209454819Y-77738094D02*
X208454819Y-77738094D01*
X208454819Y-77738094D02*
X208454819Y-77499999D01*
X208454819Y-77499999D02*
X208502438Y-77357142D01*
X208502438Y-77357142D02*
X208597676Y-77261904D01*
X208597676Y-77261904D02*
X208692914Y-77214285D01*
X208692914Y-77214285D02*
X208883390Y-77166666D01*
X208883390Y-77166666D02*
X209026247Y-77166666D01*
X209026247Y-77166666D02*
X209216723Y-77214285D01*
X209216723Y-77214285D02*
X209311961Y-77261904D01*
X209311961Y-77261904D02*
X209407200Y-77357142D01*
X209407200Y-77357142D02*
X209454819Y-77499999D01*
X209454819Y-77499999D02*
X209454819Y-77738094D01*
X213027255Y-63369819D02*
X213217731Y-63369819D01*
X213217731Y-63369819D02*
X213312969Y-63417438D01*
X213312969Y-63417438D02*
X213408207Y-63512676D01*
X213408207Y-63512676D02*
X213455826Y-63703152D01*
X213455826Y-63703152D02*
X213455826Y-64036485D01*
X213455826Y-64036485D02*
X213408207Y-64226961D01*
X213408207Y-64226961D02*
X213312969Y-64322200D01*
X213312969Y-64322200D02*
X213217731Y-64369819D01*
X213217731Y-64369819D02*
X213027255Y-64369819D01*
X213027255Y-64369819D02*
X212932017Y-64322200D01*
X212932017Y-64322200D02*
X212836779Y-64226961D01*
X212836779Y-64226961D02*
X212789160Y-64036485D01*
X212789160Y-64036485D02*
X212789160Y-63703152D01*
X212789160Y-63703152D02*
X212836779Y-63512676D01*
X212836779Y-63512676D02*
X212932017Y-63417438D01*
X212932017Y-63417438D02*
X213027255Y-63369819D01*
X214217731Y-63846009D02*
X213884398Y-63846009D01*
X213884398Y-64369819D02*
X213884398Y-63369819D01*
X213884398Y-63369819D02*
X214360588Y-63369819D01*
X215074874Y-63846009D02*
X214741541Y-63846009D01*
X214741541Y-64369819D02*
X214741541Y-63369819D01*
X214741541Y-63369819D02*
X215217731Y-63369819D01*
X180869819Y-91163220D02*
X179869819Y-91163220D01*
X179869819Y-90496554D02*
X179869819Y-90401316D01*
X179869819Y-90401316D02*
X179917438Y-90306078D01*
X179917438Y-90306078D02*
X179965057Y-90258459D01*
X179965057Y-90258459D02*
X180060295Y-90210840D01*
X180060295Y-90210840D02*
X180250771Y-90163221D01*
X180250771Y-90163221D02*
X180488866Y-90163221D01*
X180488866Y-90163221D02*
X180679342Y-90210840D01*
X180679342Y-90210840D02*
X180774580Y-90258459D01*
X180774580Y-90258459D02*
X180822200Y-90306078D01*
X180822200Y-90306078D02*
X180869819Y-90401316D01*
X180869819Y-90401316D02*
X180869819Y-90496554D01*
X180869819Y-90496554D02*
X180822200Y-90591792D01*
X180822200Y-90591792D02*
X180774580Y-90639411D01*
X180774580Y-90639411D02*
X180679342Y-90687030D01*
X180679342Y-90687030D02*
X180488866Y-90734649D01*
X180488866Y-90734649D02*
X180250771Y-90734649D01*
X180250771Y-90734649D02*
X180060295Y-90687030D01*
X180060295Y-90687030D02*
X179965057Y-90639411D01*
X179965057Y-90639411D02*
X179917438Y-90591792D01*
X179917438Y-90591792D02*
X179869819Y-90496554D01*
X180203152Y-89306078D02*
X180869819Y-89306078D01*
X179822200Y-89544173D02*
X180536485Y-89782268D01*
X180536485Y-89782268D02*
X180536485Y-89163221D01*
X167789160Y-111822200D02*
X167932017Y-111869819D01*
X167932017Y-111869819D02*
X168170112Y-111869819D01*
X168170112Y-111869819D02*
X168265350Y-111822200D01*
X168265350Y-111822200D02*
X168312969Y-111774580D01*
X168312969Y-111774580D02*
X168360588Y-111679342D01*
X168360588Y-111679342D02*
X168360588Y-111584104D01*
X168360588Y-111584104D02*
X168312969Y-111488866D01*
X168312969Y-111488866D02*
X168265350Y-111441247D01*
X168265350Y-111441247D02*
X168170112Y-111393628D01*
X168170112Y-111393628D02*
X167979636Y-111346009D01*
X167979636Y-111346009D02*
X167884398Y-111298390D01*
X167884398Y-111298390D02*
X167836779Y-111250771D01*
X167836779Y-111250771D02*
X167789160Y-111155533D01*
X167789160Y-111155533D02*
X167789160Y-111060295D01*
X167789160Y-111060295D02*
X167836779Y-110965057D01*
X167836779Y-110965057D02*
X167884398Y-110917438D01*
X167884398Y-110917438D02*
X167979636Y-110869819D01*
X167979636Y-110869819D02*
X168217731Y-110869819D01*
X168217731Y-110869819D02*
X168360588Y-110917438D01*
X168789160Y-111869819D02*
X168789160Y-110869819D01*
X169789159Y-110917438D02*
X169693921Y-110869819D01*
X169693921Y-110869819D02*
X169551064Y-110869819D01*
X169551064Y-110869819D02*
X169408207Y-110917438D01*
X169408207Y-110917438D02*
X169312969Y-111012676D01*
X169312969Y-111012676D02*
X169265350Y-111107914D01*
X169265350Y-111107914D02*
X169217731Y-111298390D01*
X169217731Y-111298390D02*
X169217731Y-111441247D01*
X169217731Y-111441247D02*
X169265350Y-111631723D01*
X169265350Y-111631723D02*
X169312969Y-111726961D01*
X169312969Y-111726961D02*
X169408207Y-111822200D01*
X169408207Y-111822200D02*
X169551064Y-111869819D01*
X169551064Y-111869819D02*
X169646302Y-111869819D01*
X169646302Y-111869819D02*
X169789159Y-111822200D01*
X169789159Y-111822200D02*
X169836778Y-111774580D01*
X169836778Y-111774580D02*
X169836778Y-111441247D01*
X169836778Y-111441247D02*
X169646302Y-111441247D01*
X170265350Y-111203152D02*
X171027255Y-111488866D01*
X171027255Y-111488866D02*
X170265350Y-111774580D01*
X169346009Y-103329887D02*
X169393628Y-103187030D01*
X169393628Y-103187030D02*
X169441247Y-103139411D01*
X169441247Y-103139411D02*
X169536485Y-103091792D01*
X169536485Y-103091792D02*
X169679342Y-103091792D01*
X169679342Y-103091792D02*
X169774580Y-103139411D01*
X169774580Y-103139411D02*
X169822200Y-103187030D01*
X169822200Y-103187030D02*
X169869819Y-103282268D01*
X169869819Y-103282268D02*
X169869819Y-103663220D01*
X169869819Y-103663220D02*
X168869819Y-103663220D01*
X168869819Y-103663220D02*
X168869819Y-103329887D01*
X168869819Y-103329887D02*
X168917438Y-103234649D01*
X168917438Y-103234649D02*
X168965057Y-103187030D01*
X168965057Y-103187030D02*
X169060295Y-103139411D01*
X169060295Y-103139411D02*
X169155533Y-103139411D01*
X169155533Y-103139411D02*
X169250771Y-103187030D01*
X169250771Y-103187030D02*
X169298390Y-103234649D01*
X169298390Y-103234649D02*
X169346009Y-103329887D01*
X169346009Y-103329887D02*
X169346009Y-103663220D01*
X168869819Y-102663220D02*
X169679342Y-102663220D01*
X169679342Y-102663220D02*
X169774580Y-102615601D01*
X169774580Y-102615601D02*
X169822200Y-102567982D01*
X169822200Y-102567982D02*
X169869819Y-102472744D01*
X169869819Y-102472744D02*
X169869819Y-102282268D01*
X169869819Y-102282268D02*
X169822200Y-102187030D01*
X169822200Y-102187030D02*
X169774580Y-102139411D01*
X169774580Y-102139411D02*
X169679342Y-102091792D01*
X169679342Y-102091792D02*
X168869819Y-102091792D01*
X168869819Y-101758458D02*
X168869819Y-101187030D01*
X169869819Y-101472744D02*
X168869819Y-101472744D01*
X168869819Y-100996553D02*
X168869819Y-100425125D01*
X169869819Y-100710839D02*
X168869819Y-100710839D01*
X168869819Y-99901315D02*
X168869819Y-99710839D01*
X168869819Y-99710839D02*
X168917438Y-99615601D01*
X168917438Y-99615601D02*
X169012676Y-99520363D01*
X169012676Y-99520363D02*
X169203152Y-99472744D01*
X169203152Y-99472744D02*
X169536485Y-99472744D01*
X169536485Y-99472744D02*
X169726961Y-99520363D01*
X169726961Y-99520363D02*
X169822200Y-99615601D01*
X169822200Y-99615601D02*
X169869819Y-99710839D01*
X169869819Y-99710839D02*
X169869819Y-99901315D01*
X169869819Y-99901315D02*
X169822200Y-99996553D01*
X169822200Y-99996553D02*
X169726961Y-100091791D01*
X169726961Y-100091791D02*
X169536485Y-100139410D01*
X169536485Y-100139410D02*
X169203152Y-100139410D01*
X169203152Y-100139410D02*
X169012676Y-100091791D01*
X169012676Y-100091791D02*
X168917438Y-99996553D01*
X168917438Y-99996553D02*
X168869819Y-99901315D01*
X169869819Y-99044172D02*
X168869819Y-99044172D01*
X168869819Y-99044172D02*
X169869819Y-98472744D01*
X169869819Y-98472744D02*
X168869819Y-98472744D01*
D11*
X201673558Y-121239638D02*
X201673558Y-119239638D01*
X201673558Y-119239638D02*
X202340225Y-120668209D01*
X202340225Y-120668209D02*
X203006891Y-119239638D01*
X203006891Y-119239638D02*
X203006891Y-121239638D01*
X203959272Y-121239638D02*
X203959272Y-119239638D01*
X206054510Y-121049161D02*
X205959272Y-121144400D01*
X205959272Y-121144400D02*
X205673558Y-121239638D01*
X205673558Y-121239638D02*
X205483082Y-121239638D01*
X205483082Y-121239638D02*
X205197367Y-121144400D01*
X205197367Y-121144400D02*
X205006891Y-120953923D01*
X205006891Y-120953923D02*
X204911653Y-120763447D01*
X204911653Y-120763447D02*
X204816415Y-120382495D01*
X204816415Y-120382495D02*
X204816415Y-120096780D01*
X204816415Y-120096780D02*
X204911653Y-119715828D01*
X204911653Y-119715828D02*
X205006891Y-119525352D01*
X205006891Y-119525352D02*
X205197367Y-119334876D01*
X205197367Y-119334876D02*
X205483082Y-119239638D01*
X205483082Y-119239638D02*
X205673558Y-119239638D01*
X205673558Y-119239638D02*
X205959272Y-119334876D01*
X205959272Y-119334876D02*
X206054510Y-119430114D01*
X208054510Y-121239638D02*
X207387843Y-120287257D01*
X206911653Y-121239638D02*
X206911653Y-119239638D01*
X206911653Y-119239638D02*
X207673558Y-119239638D01*
X207673558Y-119239638D02*
X207864034Y-119334876D01*
X207864034Y-119334876D02*
X207959272Y-119430114D01*
X207959272Y-119430114D02*
X208054510Y-119620590D01*
X208054510Y-119620590D02*
X208054510Y-119906304D01*
X208054510Y-119906304D02*
X207959272Y-120096780D01*
X207959272Y-120096780D02*
X207864034Y-120192019D01*
X207864034Y-120192019D02*
X207673558Y-120287257D01*
X207673558Y-120287257D02*
X206911653Y-120287257D01*
X209292605Y-119239638D02*
X209673558Y-119239638D01*
X209673558Y-119239638D02*
X209864034Y-119334876D01*
X209864034Y-119334876D02*
X210054510Y-119525352D01*
X210054510Y-119525352D02*
X210149748Y-119906304D01*
X210149748Y-119906304D02*
X210149748Y-120572971D01*
X210149748Y-120572971D02*
X210054510Y-120953923D01*
X210054510Y-120953923D02*
X209864034Y-121144400D01*
X209864034Y-121144400D02*
X209673558Y-121239638D01*
X209673558Y-121239638D02*
X209292605Y-121239638D01*
X209292605Y-121239638D02*
X209102129Y-121144400D01*
X209102129Y-121144400D02*
X208911653Y-120953923D01*
X208911653Y-120953923D02*
X208816415Y-120572971D01*
X208816415Y-120572971D02*
X208816415Y-119906304D01*
X208816415Y-119906304D02*
X208911653Y-119525352D01*
X208911653Y-119525352D02*
X209102129Y-119334876D01*
X209102129Y-119334876D02*
X209292605Y-119239638D01*
X211006891Y-121239638D02*
X211006891Y-119239638D01*
X211006891Y-119239638D02*
X211673558Y-120668209D01*
X211673558Y-120668209D02*
X212340224Y-119239638D01*
X212340224Y-119239638D02*
X212340224Y-121239638D01*
X213673557Y-119239638D02*
X214054510Y-119239638D01*
X214054510Y-119239638D02*
X214244986Y-119334876D01*
X214244986Y-119334876D02*
X214435462Y-119525352D01*
X214435462Y-119525352D02*
X214530700Y-119906304D01*
X214530700Y-119906304D02*
X214530700Y-120572971D01*
X214530700Y-120572971D02*
X214435462Y-120953923D01*
X214435462Y-120953923D02*
X214244986Y-121144400D01*
X214244986Y-121144400D02*
X214054510Y-121239638D01*
X214054510Y-121239638D02*
X213673557Y-121239638D01*
X213673557Y-121239638D02*
X213483081Y-121144400D01*
X213483081Y-121144400D02*
X213292605Y-120953923D01*
X213292605Y-120953923D02*
X213197367Y-120572971D01*
X213197367Y-120572971D02*
X213197367Y-119906304D01*
X213197367Y-119906304D02*
X213292605Y-119525352D01*
X213292605Y-119525352D02*
X213483081Y-119334876D01*
X213483081Y-119334876D02*
X213673557Y-119239638D01*
X215387843Y-119239638D02*
X215387843Y-120858685D01*
X215387843Y-120858685D02*
X215483081Y-121049161D01*
X215483081Y-121049161D02*
X215578319Y-121144400D01*
X215578319Y-121144400D02*
X215768795Y-121239638D01*
X215768795Y-121239638D02*
X216149748Y-121239638D01*
X216149748Y-121239638D02*
X216340224Y-121144400D01*
X216340224Y-121144400D02*
X216435462Y-121049161D01*
X216435462Y-121049161D02*
X216530700Y-120858685D01*
X216530700Y-120858685D02*
X216530700Y-119239638D01*
X217387843Y-121144400D02*
X217673557Y-121239638D01*
X217673557Y-121239638D02*
X218149748Y-121239638D01*
X218149748Y-121239638D02*
X218340224Y-121144400D01*
X218340224Y-121144400D02*
X218435462Y-121049161D01*
X218435462Y-121049161D02*
X218530700Y-120858685D01*
X218530700Y-120858685D02*
X218530700Y-120668209D01*
X218530700Y-120668209D02*
X218435462Y-120477733D01*
X218435462Y-120477733D02*
X218340224Y-120382495D01*
X218340224Y-120382495D02*
X218149748Y-120287257D01*
X218149748Y-120287257D02*
X217768795Y-120192019D01*
X217768795Y-120192019D02*
X217578319Y-120096780D01*
X217578319Y-120096780D02*
X217483081Y-120001542D01*
X217483081Y-120001542D02*
X217387843Y-119811066D01*
X217387843Y-119811066D02*
X217387843Y-119620590D01*
X217387843Y-119620590D02*
X217483081Y-119430114D01*
X217483081Y-119430114D02*
X217578319Y-119334876D01*
X217578319Y-119334876D02*
X217768795Y-119239638D01*
X217768795Y-119239638D02*
X218244986Y-119239638D01*
X218244986Y-119239638D02*
X218530700Y-119334876D01*
X219387843Y-120192019D02*
X220054510Y-120192019D01*
X220340224Y-121239638D02*
X219387843Y-121239638D01*
X219387843Y-121239638D02*
X219387843Y-119239638D01*
X219387843Y-119239638D02*
X220340224Y-119239638D01*
D10*
X175836779Y-109369819D02*
X175836779Y-108369819D01*
X176884397Y-109369819D02*
X176551064Y-108893628D01*
X176312969Y-109369819D02*
X176312969Y-108369819D01*
X176312969Y-108369819D02*
X176693921Y-108369819D01*
X176693921Y-108369819D02*
X176789159Y-108417438D01*
X176789159Y-108417438D02*
X176836778Y-108465057D01*
X176836778Y-108465057D02*
X176884397Y-108560295D01*
X176884397Y-108560295D02*
X176884397Y-108703152D01*
X176884397Y-108703152D02*
X176836778Y-108798390D01*
X176836778Y-108798390D02*
X176789159Y-108846009D01*
X176789159Y-108846009D02*
X176693921Y-108893628D01*
X176693921Y-108893628D02*
X176312969Y-108893628D01*
X177265350Y-108465057D02*
X177312969Y-108417438D01*
X177312969Y-108417438D02*
X177408207Y-108369819D01*
X177408207Y-108369819D02*
X177646302Y-108369819D01*
X177646302Y-108369819D02*
X177741540Y-108417438D01*
X177741540Y-108417438D02*
X177789159Y-108465057D01*
X177789159Y-108465057D02*
X177836778Y-108560295D01*
X177836778Y-108560295D02*
X177836778Y-108655533D01*
X177836778Y-108655533D02*
X177789159Y-108798390D01*
X177789159Y-108798390D02*
X177217731Y-109369819D01*
X177217731Y-109369819D02*
X177836778Y-109369819D01*
X212785714Y-87169104D02*
X213261904Y-87169104D01*
X212690476Y-87454819D02*
X213023809Y-86454819D01*
X213023809Y-86454819D02*
X213357142Y-87454819D01*
X214214285Y-87454819D02*
X213642857Y-87454819D01*
X213928571Y-87454819D02*
X213928571Y-86454819D01*
X213928571Y-86454819D02*
X213833333Y-86597676D01*
X213833333Y-86597676D02*
X213738095Y-86692914D01*
X213738095Y-86692914D02*
X213642857Y-86740533D01*
X176693922Y-64869819D02*
X177027255Y-65869819D01*
X177027255Y-65869819D02*
X177360588Y-64869819D01*
X178027255Y-65346009D02*
X178170112Y-65393628D01*
X178170112Y-65393628D02*
X178217731Y-65441247D01*
X178217731Y-65441247D02*
X178265350Y-65536485D01*
X178265350Y-65536485D02*
X178265350Y-65679342D01*
X178265350Y-65679342D02*
X178217731Y-65774580D01*
X178217731Y-65774580D02*
X178170112Y-65822200D01*
X178170112Y-65822200D02*
X178074874Y-65869819D01*
X178074874Y-65869819D02*
X177693922Y-65869819D01*
X177693922Y-65869819D02*
X177693922Y-64869819D01*
X177693922Y-64869819D02*
X178027255Y-64869819D01*
X178027255Y-64869819D02*
X178122493Y-64917438D01*
X178122493Y-64917438D02*
X178170112Y-64965057D01*
X178170112Y-64965057D02*
X178217731Y-65060295D01*
X178217731Y-65060295D02*
X178217731Y-65155533D01*
X178217731Y-65155533D02*
X178170112Y-65250771D01*
X178170112Y-65250771D02*
X178122493Y-65298390D01*
X178122493Y-65298390D02*
X178027255Y-65346009D01*
X178027255Y-65346009D02*
X177693922Y-65346009D01*
X178693922Y-64869819D02*
X178693922Y-65679342D01*
X178693922Y-65679342D02*
X178741541Y-65774580D01*
X178741541Y-65774580D02*
X178789160Y-65822200D01*
X178789160Y-65822200D02*
X178884398Y-65869819D01*
X178884398Y-65869819D02*
X179074874Y-65869819D01*
X179074874Y-65869819D02*
X179170112Y-65822200D01*
X179170112Y-65822200D02*
X179217731Y-65774580D01*
X179217731Y-65774580D02*
X179265350Y-65679342D01*
X179265350Y-65679342D02*
X179265350Y-64869819D01*
X179693922Y-65822200D02*
X179836779Y-65869819D01*
X179836779Y-65869819D02*
X180074874Y-65869819D01*
X180074874Y-65869819D02*
X180170112Y-65822200D01*
X180170112Y-65822200D02*
X180217731Y-65774580D01*
X180217731Y-65774580D02*
X180265350Y-65679342D01*
X180265350Y-65679342D02*
X180265350Y-65584104D01*
X180265350Y-65584104D02*
X180217731Y-65488866D01*
X180217731Y-65488866D02*
X180170112Y-65441247D01*
X180170112Y-65441247D02*
X180074874Y-65393628D01*
X180074874Y-65393628D02*
X179884398Y-65346009D01*
X179884398Y-65346009D02*
X179789160Y-65298390D01*
X179789160Y-65298390D02*
X179741541Y-65250771D01*
X179741541Y-65250771D02*
X179693922Y-65155533D01*
X179693922Y-65155533D02*
X179693922Y-65060295D01*
X179693922Y-65060295D02*
X179741541Y-64965057D01*
X179741541Y-64965057D02*
X179789160Y-64917438D01*
X179789160Y-64917438D02*
X179884398Y-64869819D01*
X179884398Y-64869819D02*
X180122493Y-64869819D01*
X180122493Y-64869819D02*
X180265350Y-64917438D01*
X181741541Y-66250771D02*
X181693922Y-66203152D01*
X181693922Y-66203152D02*
X181598684Y-66060295D01*
X181598684Y-66060295D02*
X181551065Y-65965057D01*
X181551065Y-65965057D02*
X181503446Y-65822200D01*
X181503446Y-65822200D02*
X181455827Y-65584104D01*
X181455827Y-65584104D02*
X181455827Y-65393628D01*
X181455827Y-65393628D02*
X181503446Y-65155533D01*
X181503446Y-65155533D02*
X181551065Y-65012676D01*
X181551065Y-65012676D02*
X181598684Y-64917438D01*
X181598684Y-64917438D02*
X181693922Y-64774580D01*
X181693922Y-64774580D02*
X181741541Y-64726961D01*
X182598684Y-64869819D02*
X182122494Y-64869819D01*
X182122494Y-64869819D02*
X182074875Y-65346009D01*
X182074875Y-65346009D02*
X182122494Y-65298390D01*
X182122494Y-65298390D02*
X182217732Y-65250771D01*
X182217732Y-65250771D02*
X182455827Y-65250771D01*
X182455827Y-65250771D02*
X182551065Y-65298390D01*
X182551065Y-65298390D02*
X182598684Y-65346009D01*
X182598684Y-65346009D02*
X182646303Y-65441247D01*
X182646303Y-65441247D02*
X182646303Y-65679342D01*
X182646303Y-65679342D02*
X182598684Y-65774580D01*
X182598684Y-65774580D02*
X182551065Y-65822200D01*
X182551065Y-65822200D02*
X182455827Y-65869819D01*
X182455827Y-65869819D02*
X182217732Y-65869819D01*
X182217732Y-65869819D02*
X182122494Y-65822200D01*
X182122494Y-65822200D02*
X182074875Y-65774580D01*
X182932018Y-64869819D02*
X183265351Y-65869819D01*
X183265351Y-65869819D02*
X183598684Y-64869819D01*
X183836780Y-66250771D02*
X183884399Y-66203152D01*
X183884399Y-66203152D02*
X183979637Y-66060295D01*
X183979637Y-66060295D02*
X184027256Y-65965057D01*
X184027256Y-65965057D02*
X184074875Y-65822200D01*
X184074875Y-65822200D02*
X184122494Y-65584104D01*
X184122494Y-65584104D02*
X184122494Y-65393628D01*
X184122494Y-65393628D02*
X184074875Y-65155533D01*
X184074875Y-65155533D02*
X184027256Y-65012676D01*
X184027256Y-65012676D02*
X183979637Y-64917438D01*
X183979637Y-64917438D02*
X183884399Y-64774580D01*
X183884399Y-64774580D02*
X183836780Y-64726961D01*
X178369819Y-82663220D02*
X177369819Y-82663220D01*
X177369819Y-81996554D02*
X177369819Y-81901316D01*
X177369819Y-81901316D02*
X177417438Y-81806078D01*
X177417438Y-81806078D02*
X177465057Y-81758459D01*
X177465057Y-81758459D02*
X177560295Y-81710840D01*
X177560295Y-81710840D02*
X177750771Y-81663221D01*
X177750771Y-81663221D02*
X177988866Y-81663221D01*
X177988866Y-81663221D02*
X178179342Y-81710840D01*
X178179342Y-81710840D02*
X178274580Y-81758459D01*
X178274580Y-81758459D02*
X178322200Y-81806078D01*
X178322200Y-81806078D02*
X178369819Y-81901316D01*
X178369819Y-81901316D02*
X178369819Y-81996554D01*
X178369819Y-81996554D02*
X178322200Y-82091792D01*
X178322200Y-82091792D02*
X178274580Y-82139411D01*
X178274580Y-82139411D02*
X178179342Y-82187030D01*
X178179342Y-82187030D02*
X177988866Y-82234649D01*
X177988866Y-82234649D02*
X177750771Y-82234649D01*
X177750771Y-82234649D02*
X177560295Y-82187030D01*
X177560295Y-82187030D02*
X177465057Y-82139411D01*
X177465057Y-82139411D02*
X177417438Y-82091792D01*
X177417438Y-82091792D02*
X177369819Y-81996554D01*
X177465057Y-81282268D02*
X177417438Y-81234649D01*
X177417438Y-81234649D02*
X177369819Y-81139411D01*
X177369819Y-81139411D02*
X177369819Y-80901316D01*
X177369819Y-80901316D02*
X177417438Y-80806078D01*
X177417438Y-80806078D02*
X177465057Y-80758459D01*
X177465057Y-80758459D02*
X177560295Y-80710840D01*
X177560295Y-80710840D02*
X177655533Y-80710840D01*
X177655533Y-80710840D02*
X177798390Y-80758459D01*
X177798390Y-80758459D02*
X178369819Y-81329887D01*
X178369819Y-81329887D02*
X178369819Y-80710840D01*
X170917438Y-76639411D02*
X170869819Y-76734649D01*
X170869819Y-76734649D02*
X170869819Y-76877506D01*
X170869819Y-76877506D02*
X170917438Y-77020363D01*
X170917438Y-77020363D02*
X171012676Y-77115601D01*
X171012676Y-77115601D02*
X171107914Y-77163220D01*
X171107914Y-77163220D02*
X171298390Y-77210839D01*
X171298390Y-77210839D02*
X171441247Y-77210839D01*
X171441247Y-77210839D02*
X171631723Y-77163220D01*
X171631723Y-77163220D02*
X171726961Y-77115601D01*
X171726961Y-77115601D02*
X171822200Y-77020363D01*
X171822200Y-77020363D02*
X171869819Y-76877506D01*
X171869819Y-76877506D02*
X171869819Y-76782268D01*
X171869819Y-76782268D02*
X171822200Y-76639411D01*
X171822200Y-76639411D02*
X171774580Y-76591792D01*
X171774580Y-76591792D02*
X171441247Y-76591792D01*
X171441247Y-76591792D02*
X171441247Y-76782268D01*
X171869819Y-76163220D02*
X170869819Y-76163220D01*
X170869819Y-76163220D02*
X171869819Y-75591792D01*
X171869819Y-75591792D02*
X170869819Y-75591792D01*
X171869819Y-75115601D02*
X170869819Y-75115601D01*
X170869819Y-75115601D02*
X170869819Y-74877506D01*
X170869819Y-74877506D02*
X170917438Y-74734649D01*
X170917438Y-74734649D02*
X171012676Y-74639411D01*
X171012676Y-74639411D02*
X171107914Y-74591792D01*
X171107914Y-74591792D02*
X171298390Y-74544173D01*
X171298390Y-74544173D02*
X171441247Y-74544173D01*
X171441247Y-74544173D02*
X171631723Y-74591792D01*
X171631723Y-74591792D02*
X171726961Y-74639411D01*
X171726961Y-74639411D02*
X171822200Y-74734649D01*
X171822200Y-74734649D02*
X171869819Y-74877506D01*
X171869819Y-74877506D02*
X171869819Y-75115601D01*
X179836779Y-109369819D02*
X179836779Y-108369819D01*
X180884397Y-109369819D02*
X180551064Y-108893628D01*
X180312969Y-109369819D02*
X180312969Y-108369819D01*
X180312969Y-108369819D02*
X180693921Y-108369819D01*
X180693921Y-108369819D02*
X180789159Y-108417438D01*
X180789159Y-108417438D02*
X180836778Y-108465057D01*
X180836778Y-108465057D02*
X180884397Y-108560295D01*
X180884397Y-108560295D02*
X180884397Y-108703152D01*
X180884397Y-108703152D02*
X180836778Y-108798390D01*
X180836778Y-108798390D02*
X180789159Y-108846009D01*
X180789159Y-108846009D02*
X180693921Y-108893628D01*
X180693921Y-108893628D02*
X180312969Y-108893628D01*
X181217731Y-108369819D02*
X181836778Y-108369819D01*
X181836778Y-108369819D02*
X181503445Y-108750771D01*
X181503445Y-108750771D02*
X181646302Y-108750771D01*
X181646302Y-108750771D02*
X181741540Y-108798390D01*
X181741540Y-108798390D02*
X181789159Y-108846009D01*
X181789159Y-108846009D02*
X181836778Y-108941247D01*
X181836778Y-108941247D02*
X181836778Y-109179342D01*
X181836778Y-109179342D02*
X181789159Y-109274580D01*
X181789159Y-109274580D02*
X181741540Y-109322200D01*
X181741540Y-109322200D02*
X181646302Y-109369819D01*
X181646302Y-109369819D02*
X181360588Y-109369819D01*
X181360588Y-109369819D02*
X181265350Y-109322200D01*
X181265350Y-109322200D02*
X181217731Y-109274580D01*
X175869819Y-82663220D02*
X174869819Y-82663220D01*
X174869819Y-81996554D02*
X174869819Y-81901316D01*
X174869819Y-81901316D02*
X174917438Y-81806078D01*
X174917438Y-81806078D02*
X174965057Y-81758459D01*
X174965057Y-81758459D02*
X175060295Y-81710840D01*
X175060295Y-81710840D02*
X175250771Y-81663221D01*
X175250771Y-81663221D02*
X175488866Y-81663221D01*
X175488866Y-81663221D02*
X175679342Y-81710840D01*
X175679342Y-81710840D02*
X175774580Y-81758459D01*
X175774580Y-81758459D02*
X175822200Y-81806078D01*
X175822200Y-81806078D02*
X175869819Y-81901316D01*
X175869819Y-81901316D02*
X175869819Y-81996554D01*
X175869819Y-81996554D02*
X175822200Y-82091792D01*
X175822200Y-82091792D02*
X175774580Y-82139411D01*
X175774580Y-82139411D02*
X175679342Y-82187030D01*
X175679342Y-82187030D02*
X175488866Y-82234649D01*
X175488866Y-82234649D02*
X175250771Y-82234649D01*
X175250771Y-82234649D02*
X175060295Y-82187030D01*
X175060295Y-82187030D02*
X174965057Y-82139411D01*
X174965057Y-82139411D02*
X174917438Y-82091792D01*
X174917438Y-82091792D02*
X174869819Y-81996554D01*
X175869819Y-80710840D02*
X175869819Y-81282268D01*
X175869819Y-80996554D02*
X174869819Y-80996554D01*
X174869819Y-80996554D02*
X175012676Y-81091792D01*
X175012676Y-81091792D02*
X175107914Y-81187030D01*
X175107914Y-81187030D02*
X175155533Y-81282268D01*
X175869819Y-91163220D02*
X174869819Y-91163220D01*
X174869819Y-90496554D02*
X174869819Y-90401316D01*
X174869819Y-90401316D02*
X174917438Y-90306078D01*
X174917438Y-90306078D02*
X174965057Y-90258459D01*
X174965057Y-90258459D02*
X175060295Y-90210840D01*
X175060295Y-90210840D02*
X175250771Y-90163221D01*
X175250771Y-90163221D02*
X175488866Y-90163221D01*
X175488866Y-90163221D02*
X175679342Y-90210840D01*
X175679342Y-90210840D02*
X175774580Y-90258459D01*
X175774580Y-90258459D02*
X175822200Y-90306078D01*
X175822200Y-90306078D02*
X175869819Y-90401316D01*
X175869819Y-90401316D02*
X175869819Y-90496554D01*
X175869819Y-90496554D02*
X175822200Y-90591792D01*
X175822200Y-90591792D02*
X175774580Y-90639411D01*
X175774580Y-90639411D02*
X175679342Y-90687030D01*
X175679342Y-90687030D02*
X175488866Y-90734649D01*
X175488866Y-90734649D02*
X175250771Y-90734649D01*
X175250771Y-90734649D02*
X175060295Y-90687030D01*
X175060295Y-90687030D02*
X174965057Y-90639411D01*
X174965057Y-90639411D02*
X174917438Y-90591792D01*
X174917438Y-90591792D02*
X174869819Y-90496554D01*
X174869819Y-89306078D02*
X174869819Y-89496554D01*
X174869819Y-89496554D02*
X174917438Y-89591792D01*
X174917438Y-89591792D02*
X174965057Y-89639411D01*
X174965057Y-89639411D02*
X175107914Y-89734649D01*
X175107914Y-89734649D02*
X175298390Y-89782268D01*
X175298390Y-89782268D02*
X175679342Y-89782268D01*
X175679342Y-89782268D02*
X175774580Y-89734649D01*
X175774580Y-89734649D02*
X175822200Y-89687030D01*
X175822200Y-89687030D02*
X175869819Y-89591792D01*
X175869819Y-89591792D02*
X175869819Y-89401316D01*
X175869819Y-89401316D02*
X175822200Y-89306078D01*
X175822200Y-89306078D02*
X175774580Y-89258459D01*
X175774580Y-89258459D02*
X175679342Y-89210840D01*
X175679342Y-89210840D02*
X175441247Y-89210840D01*
X175441247Y-89210840D02*
X175346009Y-89258459D01*
X175346009Y-89258459D02*
X175298390Y-89306078D01*
X175298390Y-89306078D02*
X175250771Y-89401316D01*
X175250771Y-89401316D02*
X175250771Y-89591792D01*
X175250771Y-89591792D02*
X175298390Y-89687030D01*
X175298390Y-89687030D02*
X175346009Y-89734649D01*
X175346009Y-89734649D02*
X175441247Y-89782268D01*
X221836779Y-118869819D02*
X221836779Y-117869819D01*
X221836779Y-117869819D02*
X222170112Y-118584104D01*
X222170112Y-118584104D02*
X222503445Y-117869819D01*
X222503445Y-117869819D02*
X222503445Y-118869819D01*
X223170112Y-117869819D02*
X223360588Y-117869819D01*
X223360588Y-117869819D02*
X223455826Y-117917438D01*
X223455826Y-117917438D02*
X223551064Y-118012676D01*
X223551064Y-118012676D02*
X223598683Y-118203152D01*
X223598683Y-118203152D02*
X223598683Y-118536485D01*
X223598683Y-118536485D02*
X223551064Y-118726961D01*
X223551064Y-118726961D02*
X223455826Y-118822200D01*
X223455826Y-118822200D02*
X223360588Y-118869819D01*
X223360588Y-118869819D02*
X223170112Y-118869819D01*
X223170112Y-118869819D02*
X223074874Y-118822200D01*
X223074874Y-118822200D02*
X222979636Y-118726961D01*
X222979636Y-118726961D02*
X222932017Y-118536485D01*
X222932017Y-118536485D02*
X222932017Y-118203152D01*
X222932017Y-118203152D02*
X222979636Y-118012676D01*
X222979636Y-118012676D02*
X223074874Y-117917438D01*
X223074874Y-117917438D02*
X223170112Y-117869819D01*
X223884398Y-117869819D02*
X224455826Y-117869819D01*
X224170112Y-118869819D02*
X224170112Y-117869819D01*
X224979636Y-117869819D02*
X225170112Y-117869819D01*
X225170112Y-117869819D02*
X225265350Y-117917438D01*
X225265350Y-117917438D02*
X225360588Y-118012676D01*
X225360588Y-118012676D02*
X225408207Y-118203152D01*
X225408207Y-118203152D02*
X225408207Y-118536485D01*
X225408207Y-118536485D02*
X225360588Y-118726961D01*
X225360588Y-118726961D02*
X225265350Y-118822200D01*
X225265350Y-118822200D02*
X225170112Y-118869819D01*
X225170112Y-118869819D02*
X224979636Y-118869819D01*
X224979636Y-118869819D02*
X224884398Y-118822200D01*
X224884398Y-118822200D02*
X224789160Y-118726961D01*
X224789160Y-118726961D02*
X224741541Y-118536485D01*
X224741541Y-118536485D02*
X224741541Y-118203152D01*
X224741541Y-118203152D02*
X224789160Y-118012676D01*
X224789160Y-118012676D02*
X224884398Y-117917438D01*
X224884398Y-117917438D02*
X224979636Y-117869819D01*
X226408207Y-118869819D02*
X226074874Y-118393628D01*
X225836779Y-118869819D02*
X225836779Y-117869819D01*
X225836779Y-117869819D02*
X226217731Y-117869819D01*
X226217731Y-117869819D02*
X226312969Y-117917438D01*
X226312969Y-117917438D02*
X226360588Y-117965057D01*
X226360588Y-117965057D02*
X226408207Y-118060295D01*
X226408207Y-118060295D02*
X226408207Y-118203152D01*
X226408207Y-118203152D02*
X226360588Y-118298390D01*
X226360588Y-118298390D02*
X226312969Y-118346009D01*
X226312969Y-118346009D02*
X226217731Y-118393628D01*
X226217731Y-118393628D02*
X225836779Y-118393628D01*
X227551065Y-117965057D02*
X227598684Y-117917438D01*
X227598684Y-117917438D02*
X227693922Y-117869819D01*
X227693922Y-117869819D02*
X227932017Y-117869819D01*
X227932017Y-117869819D02*
X228027255Y-117917438D01*
X228027255Y-117917438D02*
X228074874Y-117965057D01*
X228074874Y-117965057D02*
X228122493Y-118060295D01*
X228122493Y-118060295D02*
X228122493Y-118155533D01*
X228122493Y-118155533D02*
X228074874Y-118298390D01*
X228074874Y-118298390D02*
X227503446Y-118869819D01*
X227503446Y-118869819D02*
X228122493Y-118869819D01*
X222527255Y-63369819D02*
X222717731Y-63369819D01*
X222717731Y-63369819D02*
X222812969Y-63417438D01*
X222812969Y-63417438D02*
X222908207Y-63512676D01*
X222908207Y-63512676D02*
X222955826Y-63703152D01*
X222955826Y-63703152D02*
X222955826Y-64036485D01*
X222955826Y-64036485D02*
X222908207Y-64226961D01*
X222908207Y-64226961D02*
X222812969Y-64322200D01*
X222812969Y-64322200D02*
X222717731Y-64369819D01*
X222717731Y-64369819D02*
X222527255Y-64369819D01*
X222527255Y-64369819D02*
X222432017Y-64322200D01*
X222432017Y-64322200D02*
X222336779Y-64226961D01*
X222336779Y-64226961D02*
X222289160Y-64036485D01*
X222289160Y-64036485D02*
X222289160Y-63703152D01*
X222289160Y-63703152D02*
X222336779Y-63512676D01*
X222336779Y-63512676D02*
X222432017Y-63417438D01*
X222432017Y-63417438D02*
X222527255Y-63369819D01*
X223384398Y-64369819D02*
X223384398Y-63369819D01*
X223384398Y-63369819D02*
X223955826Y-64369819D01*
X223955826Y-64369819D02*
X223955826Y-63369819D01*
X175741541Y-118869819D02*
X176360588Y-118869819D01*
X176360588Y-118869819D02*
X176027255Y-119250771D01*
X176027255Y-119250771D02*
X176170112Y-119250771D01*
X176170112Y-119250771D02*
X176265350Y-119298390D01*
X176265350Y-119298390D02*
X176312969Y-119346009D01*
X176312969Y-119346009D02*
X176360588Y-119441247D01*
X176360588Y-119441247D02*
X176360588Y-119679342D01*
X176360588Y-119679342D02*
X176312969Y-119774580D01*
X176312969Y-119774580D02*
X176265350Y-119822200D01*
X176265350Y-119822200D02*
X176170112Y-119869819D01*
X176170112Y-119869819D02*
X175884398Y-119869819D01*
X175884398Y-119869819D02*
X175789160Y-119822200D01*
X175789160Y-119822200D02*
X175741541Y-119774580D01*
X176789160Y-119774580D02*
X176836779Y-119822200D01*
X176836779Y-119822200D02*
X176789160Y-119869819D01*
X176789160Y-119869819D02*
X176741541Y-119822200D01*
X176741541Y-119822200D02*
X176789160Y-119774580D01*
X176789160Y-119774580D02*
X176789160Y-119869819D01*
X177170112Y-118869819D02*
X177789159Y-118869819D01*
X177789159Y-118869819D02*
X177455826Y-119250771D01*
X177455826Y-119250771D02*
X177598683Y-119250771D01*
X177598683Y-119250771D02*
X177693921Y-119298390D01*
X177693921Y-119298390D02*
X177741540Y-119346009D01*
X177741540Y-119346009D02*
X177789159Y-119441247D01*
X177789159Y-119441247D02*
X177789159Y-119679342D01*
X177789159Y-119679342D02*
X177741540Y-119774580D01*
X177741540Y-119774580D02*
X177693921Y-119822200D01*
X177693921Y-119822200D02*
X177598683Y-119869819D01*
X177598683Y-119869819D02*
X177312969Y-119869819D01*
X177312969Y-119869819D02*
X177217731Y-119822200D01*
X177217731Y-119822200D02*
X177170112Y-119774580D01*
X178074874Y-118869819D02*
X178408207Y-119869819D01*
X178408207Y-119869819D02*
X178741540Y-118869819D01*
X180869819Y-82663220D02*
X179869819Y-82663220D01*
X179869819Y-81996554D02*
X179869819Y-81901316D01*
X179869819Y-81901316D02*
X179917438Y-81806078D01*
X179917438Y-81806078D02*
X179965057Y-81758459D01*
X179965057Y-81758459D02*
X180060295Y-81710840D01*
X180060295Y-81710840D02*
X180250771Y-81663221D01*
X180250771Y-81663221D02*
X180488866Y-81663221D01*
X180488866Y-81663221D02*
X180679342Y-81710840D01*
X180679342Y-81710840D02*
X180774580Y-81758459D01*
X180774580Y-81758459D02*
X180822200Y-81806078D01*
X180822200Y-81806078D02*
X180869819Y-81901316D01*
X180869819Y-81901316D02*
X180869819Y-81996554D01*
X180869819Y-81996554D02*
X180822200Y-82091792D01*
X180822200Y-82091792D02*
X180774580Y-82139411D01*
X180774580Y-82139411D02*
X180679342Y-82187030D01*
X180679342Y-82187030D02*
X180488866Y-82234649D01*
X180488866Y-82234649D02*
X180250771Y-82234649D01*
X180250771Y-82234649D02*
X180060295Y-82187030D01*
X180060295Y-82187030D02*
X179965057Y-82139411D01*
X179965057Y-82139411D02*
X179917438Y-82091792D01*
X179917438Y-82091792D02*
X179869819Y-81996554D01*
X179869819Y-81329887D02*
X179869819Y-80710840D01*
X179869819Y-80710840D02*
X180250771Y-81044173D01*
X180250771Y-81044173D02*
X180250771Y-80901316D01*
X180250771Y-80901316D02*
X180298390Y-80806078D01*
X180298390Y-80806078D02*
X180346009Y-80758459D01*
X180346009Y-80758459D02*
X180441247Y-80710840D01*
X180441247Y-80710840D02*
X180679342Y-80710840D01*
X180679342Y-80710840D02*
X180774580Y-80758459D01*
X180774580Y-80758459D02*
X180822200Y-80806078D01*
X180822200Y-80806078D02*
X180869819Y-80901316D01*
X180869819Y-80901316D02*
X180869819Y-81187030D01*
X180869819Y-81187030D02*
X180822200Y-81282268D01*
X180822200Y-81282268D02*
X180774580Y-81329887D01*
X212785714Y-84669104D02*
X213261904Y-84669104D01*
X212690476Y-84954819D02*
X213023809Y-83954819D01*
X213023809Y-83954819D02*
X213357142Y-84954819D01*
X213642857Y-84050057D02*
X213690476Y-84002438D01*
X213690476Y-84002438D02*
X213785714Y-83954819D01*
X213785714Y-83954819D02*
X214023809Y-83954819D01*
X214023809Y-83954819D02*
X214119047Y-84002438D01*
X214119047Y-84002438D02*
X214166666Y-84050057D01*
X214166666Y-84050057D02*
X214214285Y-84145295D01*
X214214285Y-84145295D02*
X214214285Y-84240533D01*
X214214285Y-84240533D02*
X214166666Y-84383390D01*
X214166666Y-84383390D02*
X213595238Y-84954819D01*
X213595238Y-84954819D02*
X214214285Y-84954819D01*
X172336779Y-109369819D02*
X172336779Y-108369819D01*
X173384397Y-109369819D02*
X173051064Y-108893628D01*
X172812969Y-109369819D02*
X172812969Y-108369819D01*
X172812969Y-108369819D02*
X173193921Y-108369819D01*
X173193921Y-108369819D02*
X173289159Y-108417438D01*
X173289159Y-108417438D02*
X173336778Y-108465057D01*
X173336778Y-108465057D02*
X173384397Y-108560295D01*
X173384397Y-108560295D02*
X173384397Y-108703152D01*
X173384397Y-108703152D02*
X173336778Y-108798390D01*
X173336778Y-108798390D02*
X173289159Y-108846009D01*
X173289159Y-108846009D02*
X173193921Y-108893628D01*
X173193921Y-108893628D02*
X172812969Y-108893628D01*
X174336778Y-109369819D02*
X173765350Y-109369819D01*
X174051064Y-109369819D02*
X174051064Y-108369819D01*
X174051064Y-108369819D02*
X173955826Y-108512676D01*
X173955826Y-108512676D02*
X173860588Y-108607914D01*
X173860588Y-108607914D02*
X173765350Y-108655533D01*
X234836779Y-68988866D02*
X235598684Y-68988866D01*
X167860588Y-113417438D02*
X167765350Y-113369819D01*
X167765350Y-113369819D02*
X167622493Y-113369819D01*
X167622493Y-113369819D02*
X167479636Y-113417438D01*
X167479636Y-113417438D02*
X167384398Y-113512676D01*
X167384398Y-113512676D02*
X167336779Y-113607914D01*
X167336779Y-113607914D02*
X167289160Y-113798390D01*
X167289160Y-113798390D02*
X167289160Y-113941247D01*
X167289160Y-113941247D02*
X167336779Y-114131723D01*
X167336779Y-114131723D02*
X167384398Y-114226961D01*
X167384398Y-114226961D02*
X167479636Y-114322200D01*
X167479636Y-114322200D02*
X167622493Y-114369819D01*
X167622493Y-114369819D02*
X167717731Y-114369819D01*
X167717731Y-114369819D02*
X167860588Y-114322200D01*
X167860588Y-114322200D02*
X167908207Y-114274580D01*
X167908207Y-114274580D02*
X167908207Y-113941247D01*
X167908207Y-113941247D02*
X167717731Y-113941247D01*
X168336779Y-114369819D02*
X168336779Y-113369819D01*
X168336779Y-113369819D02*
X168908207Y-114369819D01*
X168908207Y-114369819D02*
X168908207Y-113369819D01*
X169384398Y-114369819D02*
X169384398Y-113369819D01*
X169384398Y-113369819D02*
X169622493Y-113369819D01*
X169622493Y-113369819D02*
X169765350Y-113417438D01*
X169765350Y-113417438D02*
X169860588Y-113512676D01*
X169860588Y-113512676D02*
X169908207Y-113607914D01*
X169908207Y-113607914D02*
X169955826Y-113798390D01*
X169955826Y-113798390D02*
X169955826Y-113941247D01*
X169955826Y-113941247D02*
X169908207Y-114131723D01*
X169908207Y-114131723D02*
X169860588Y-114226961D01*
X169860588Y-114226961D02*
X169765350Y-114322200D01*
X169765350Y-114322200D02*
X169622493Y-114369819D01*
X169622493Y-114369819D02*
X169384398Y-114369819D01*
X170384398Y-113703152D02*
X171146303Y-113988866D01*
X171146303Y-113988866D02*
X170384398Y-114274580D01*
X221904761Y-77550057D02*
X221809523Y-77502438D01*
X221809523Y-77502438D02*
X221714285Y-77407200D01*
X221714285Y-77407200D02*
X221571428Y-77264342D01*
X221571428Y-77264342D02*
X221476190Y-77216723D01*
X221476190Y-77216723D02*
X221380952Y-77216723D01*
X221428571Y-77454819D02*
X221333333Y-77407200D01*
X221333333Y-77407200D02*
X221238095Y-77311961D01*
X221238095Y-77311961D02*
X221190476Y-77121485D01*
X221190476Y-77121485D02*
X221190476Y-76788152D01*
X221190476Y-76788152D02*
X221238095Y-76597676D01*
X221238095Y-76597676D02*
X221333333Y-76502438D01*
X221333333Y-76502438D02*
X221428571Y-76454819D01*
X221428571Y-76454819D02*
X221619047Y-76454819D01*
X221619047Y-76454819D02*
X221714285Y-76502438D01*
X221714285Y-76502438D02*
X221809523Y-76597676D01*
X221809523Y-76597676D02*
X221857142Y-76788152D01*
X221857142Y-76788152D02*
X221857142Y-77121485D01*
X221857142Y-77121485D02*
X221809523Y-77311961D01*
X221809523Y-77311961D02*
X221714285Y-77407200D01*
X221714285Y-77407200D02*
X221619047Y-77454819D01*
X221619047Y-77454819D02*
X221428571Y-77454819D01*
X222809523Y-77454819D02*
X222238095Y-77454819D01*
X222523809Y-77454819D02*
X222523809Y-76454819D01*
X222523809Y-76454819D02*
X222428571Y-76597676D01*
X222428571Y-76597676D02*
X222333333Y-76692914D01*
X222333333Y-76692914D02*
X222238095Y-76740533D01*
X169333333Y-106359580D02*
X169285714Y-106407200D01*
X169285714Y-106407200D02*
X169142857Y-106454819D01*
X169142857Y-106454819D02*
X169047619Y-106454819D01*
X169047619Y-106454819D02*
X168904762Y-106407200D01*
X168904762Y-106407200D02*
X168809524Y-106311961D01*
X168809524Y-106311961D02*
X168761905Y-106216723D01*
X168761905Y-106216723D02*
X168714286Y-106026247D01*
X168714286Y-106026247D02*
X168714286Y-105883390D01*
X168714286Y-105883390D02*
X168761905Y-105692914D01*
X168761905Y-105692914D02*
X168809524Y-105597676D01*
X168809524Y-105597676D02*
X168904762Y-105502438D01*
X168904762Y-105502438D02*
X169047619Y-105454819D01*
X169047619Y-105454819D02*
X169142857Y-105454819D01*
X169142857Y-105454819D02*
X169285714Y-105502438D01*
X169285714Y-105502438D02*
X169333333Y-105550057D01*
X170285714Y-106454819D02*
X169714286Y-106454819D01*
X170000000Y-106454819D02*
X170000000Y-105454819D01*
X170000000Y-105454819D02*
X169904762Y-105597676D01*
X169904762Y-105597676D02*
X169809524Y-105692914D01*
X169809524Y-105692914D02*
X169714286Y-105740533D01*
X215833333Y-79859580D02*
X215785714Y-79907200D01*
X215785714Y-79907200D02*
X215642857Y-79954819D01*
X215642857Y-79954819D02*
X215547619Y-79954819D01*
X215547619Y-79954819D02*
X215404762Y-79907200D01*
X215404762Y-79907200D02*
X215309524Y-79811961D01*
X215309524Y-79811961D02*
X215261905Y-79716723D01*
X215261905Y-79716723D02*
X215214286Y-79526247D01*
X215214286Y-79526247D02*
X215214286Y-79383390D01*
X215214286Y-79383390D02*
X215261905Y-79192914D01*
X215261905Y-79192914D02*
X215309524Y-79097676D01*
X215309524Y-79097676D02*
X215404762Y-79002438D01*
X215404762Y-79002438D02*
X215547619Y-78954819D01*
X215547619Y-78954819D02*
X215642857Y-78954819D01*
X215642857Y-78954819D02*
X215785714Y-79002438D01*
X215785714Y-79002438D02*
X215833333Y-79050057D01*
X216690476Y-78954819D02*
X216500000Y-78954819D01*
X216500000Y-78954819D02*
X216404762Y-79002438D01*
X216404762Y-79002438D02*
X216357143Y-79050057D01*
X216357143Y-79050057D02*
X216261905Y-79192914D01*
X216261905Y-79192914D02*
X216214286Y-79383390D01*
X216214286Y-79383390D02*
X216214286Y-79764342D01*
X216214286Y-79764342D02*
X216261905Y-79859580D01*
X216261905Y-79859580D02*
X216309524Y-79907200D01*
X216309524Y-79907200D02*
X216404762Y-79954819D01*
X216404762Y-79954819D02*
X216595238Y-79954819D01*
X216595238Y-79954819D02*
X216690476Y-79907200D01*
X216690476Y-79907200D02*
X216738095Y-79859580D01*
X216738095Y-79859580D02*
X216785714Y-79764342D01*
X216785714Y-79764342D02*
X216785714Y-79526247D01*
X216785714Y-79526247D02*
X216738095Y-79431009D01*
X216738095Y-79431009D02*
X216690476Y-79383390D01*
X216690476Y-79383390D02*
X216595238Y-79335771D01*
X216595238Y-79335771D02*
X216404762Y-79335771D01*
X216404762Y-79335771D02*
X216309524Y-79383390D01*
X216309524Y-79383390D02*
X216261905Y-79431009D01*
X216261905Y-79431009D02*
X216214286Y-79526247D01*
X209547733Y-92786819D02*
X209214400Y-92310628D01*
X208976305Y-92786819D02*
X208976305Y-91786819D01*
X208976305Y-91786819D02*
X209357257Y-91786819D01*
X209357257Y-91786819D02*
X209452495Y-91834438D01*
X209452495Y-91834438D02*
X209500114Y-91882057D01*
X209500114Y-91882057D02*
X209547733Y-91977295D01*
X209547733Y-91977295D02*
X209547733Y-92120152D01*
X209547733Y-92120152D02*
X209500114Y-92215390D01*
X209500114Y-92215390D02*
X209452495Y-92263009D01*
X209452495Y-92263009D02*
X209357257Y-92310628D01*
X209357257Y-92310628D02*
X208976305Y-92310628D01*
X209881067Y-91786819D02*
X210547733Y-91786819D01*
X210547733Y-91786819D02*
X210119162Y-92786819D01*
X179761905Y-96454819D02*
X179761905Y-95454819D01*
X179761905Y-95454819D02*
X180000000Y-95454819D01*
X180000000Y-95454819D02*
X180142857Y-95502438D01*
X180142857Y-95502438D02*
X180238095Y-95597676D01*
X180238095Y-95597676D02*
X180285714Y-95692914D01*
X180285714Y-95692914D02*
X180333333Y-95883390D01*
X180333333Y-95883390D02*
X180333333Y-96026247D01*
X180333333Y-96026247D02*
X180285714Y-96216723D01*
X180285714Y-96216723D02*
X180238095Y-96311961D01*
X180238095Y-96311961D02*
X180142857Y-96407200D01*
X180142857Y-96407200D02*
X180000000Y-96454819D01*
X180000000Y-96454819D02*
X179761905Y-96454819D01*
X180714286Y-95550057D02*
X180761905Y-95502438D01*
X180761905Y-95502438D02*
X180857143Y-95454819D01*
X180857143Y-95454819D02*
X181095238Y-95454819D01*
X181095238Y-95454819D02*
X181190476Y-95502438D01*
X181190476Y-95502438D02*
X181238095Y-95550057D01*
X181238095Y-95550057D02*
X181285714Y-95645295D01*
X181285714Y-95645295D02*
X181285714Y-95740533D01*
X181285714Y-95740533D02*
X181238095Y-95883390D01*
X181238095Y-95883390D02*
X180666667Y-96454819D01*
X180666667Y-96454819D02*
X181285714Y-96454819D01*
X226238095Y-107454819D02*
X226238095Y-108264342D01*
X226238095Y-108264342D02*
X226285714Y-108359580D01*
X226285714Y-108359580D02*
X226333333Y-108407200D01*
X226333333Y-108407200D02*
X226428571Y-108454819D01*
X226428571Y-108454819D02*
X226619047Y-108454819D01*
X226619047Y-108454819D02*
X226714285Y-108407200D01*
X226714285Y-108407200D02*
X226761904Y-108359580D01*
X226761904Y-108359580D02*
X226809523Y-108264342D01*
X226809523Y-108264342D02*
X226809523Y-107454819D01*
X227238095Y-107550057D02*
X227285714Y-107502438D01*
X227285714Y-107502438D02*
X227380952Y-107454819D01*
X227380952Y-107454819D02*
X227619047Y-107454819D01*
X227619047Y-107454819D02*
X227714285Y-107502438D01*
X227714285Y-107502438D02*
X227761904Y-107550057D01*
X227761904Y-107550057D02*
X227809523Y-107645295D01*
X227809523Y-107645295D02*
X227809523Y-107740533D01*
X227809523Y-107740533D02*
X227761904Y-107883390D01*
X227761904Y-107883390D02*
X227190476Y-108454819D01*
X227190476Y-108454819D02*
X227809523Y-108454819D01*
X231333333Y-77859580D02*
X231285714Y-77907200D01*
X231285714Y-77907200D02*
X231142857Y-77954819D01*
X231142857Y-77954819D02*
X231047619Y-77954819D01*
X231047619Y-77954819D02*
X230904762Y-77907200D01*
X230904762Y-77907200D02*
X230809524Y-77811961D01*
X230809524Y-77811961D02*
X230761905Y-77716723D01*
X230761905Y-77716723D02*
X230714286Y-77526247D01*
X230714286Y-77526247D02*
X230714286Y-77383390D01*
X230714286Y-77383390D02*
X230761905Y-77192914D01*
X230761905Y-77192914D02*
X230809524Y-77097676D01*
X230809524Y-77097676D02*
X230904762Y-77002438D01*
X230904762Y-77002438D02*
X231047619Y-76954819D01*
X231047619Y-76954819D02*
X231142857Y-76954819D01*
X231142857Y-76954819D02*
X231285714Y-77002438D01*
X231285714Y-77002438D02*
X231333333Y-77050057D01*
X232238095Y-76954819D02*
X231761905Y-76954819D01*
X231761905Y-76954819D02*
X231714286Y-77431009D01*
X231714286Y-77431009D02*
X231761905Y-77383390D01*
X231761905Y-77383390D02*
X231857143Y-77335771D01*
X231857143Y-77335771D02*
X232095238Y-77335771D01*
X232095238Y-77335771D02*
X232190476Y-77383390D01*
X232190476Y-77383390D02*
X232238095Y-77431009D01*
X232238095Y-77431009D02*
X232285714Y-77526247D01*
X232285714Y-77526247D02*
X232285714Y-77764342D01*
X232285714Y-77764342D02*
X232238095Y-77859580D01*
X232238095Y-77859580D02*
X232190476Y-77907200D01*
X232190476Y-77907200D02*
X232095238Y-77954819D01*
X232095238Y-77954819D02*
X231857143Y-77954819D01*
X231857143Y-77954819D02*
X231761905Y-77907200D01*
X231761905Y-77907200D02*
X231714286Y-77859580D01*
X212761905Y-77454819D02*
X212761905Y-76454819D01*
X212761905Y-76454819D02*
X213000000Y-76454819D01*
X213000000Y-76454819D02*
X213142857Y-76502438D01*
X213142857Y-76502438D02*
X213238095Y-76597676D01*
X213238095Y-76597676D02*
X213285714Y-76692914D01*
X213285714Y-76692914D02*
X213333333Y-76883390D01*
X213333333Y-76883390D02*
X213333333Y-77026247D01*
X213333333Y-77026247D02*
X213285714Y-77216723D01*
X213285714Y-77216723D02*
X213238095Y-77311961D01*
X213238095Y-77311961D02*
X213142857Y-77407200D01*
X213142857Y-77407200D02*
X213000000Y-77454819D01*
X213000000Y-77454819D02*
X212761905Y-77454819D01*
X213666667Y-76454819D02*
X214285714Y-76454819D01*
X214285714Y-76454819D02*
X213952381Y-76835771D01*
X213952381Y-76835771D02*
X214095238Y-76835771D01*
X214095238Y-76835771D02*
X214190476Y-76883390D01*
X214190476Y-76883390D02*
X214238095Y-76931009D01*
X214238095Y-76931009D02*
X214285714Y-77026247D01*
X214285714Y-77026247D02*
X214285714Y-77264342D01*
X214285714Y-77264342D02*
X214238095Y-77359580D01*
X214238095Y-77359580D02*
X214190476Y-77407200D01*
X214190476Y-77407200D02*
X214095238Y-77454819D01*
X214095238Y-77454819D02*
X213809524Y-77454819D01*
X213809524Y-77454819D02*
X213714286Y-77407200D01*
X213714286Y-77407200D02*
X213666667Y-77359580D01*
X217333333Y-86454819D02*
X217000000Y-85978628D01*
X216761905Y-86454819D02*
X216761905Y-85454819D01*
X216761905Y-85454819D02*
X217142857Y-85454819D01*
X217142857Y-85454819D02*
X217238095Y-85502438D01*
X217238095Y-85502438D02*
X217285714Y-85550057D01*
X217285714Y-85550057D02*
X217333333Y-85645295D01*
X217333333Y-85645295D02*
X217333333Y-85788152D01*
X217333333Y-85788152D02*
X217285714Y-85883390D01*
X217285714Y-85883390D02*
X217238095Y-85931009D01*
X217238095Y-85931009D02*
X217142857Y-85978628D01*
X217142857Y-85978628D02*
X216761905Y-85978628D01*
X218190476Y-85788152D02*
X218190476Y-86454819D01*
X217952381Y-85407200D02*
X217714286Y-86121485D01*
X217714286Y-86121485D02*
X218333333Y-86121485D01*
X207464260Y-116907504D02*
X207940450Y-116907504D01*
X207369022Y-117193219D02*
X207702355Y-116193219D01*
X207702355Y-116193219D02*
X208035688Y-117193219D01*
X208321403Y-116288457D02*
X208369022Y-116240838D01*
X208369022Y-116240838D02*
X208464260Y-116193219D01*
X208464260Y-116193219D02*
X208702355Y-116193219D01*
X208702355Y-116193219D02*
X208797593Y-116240838D01*
X208797593Y-116240838D02*
X208845212Y-116288457D01*
X208845212Y-116288457D02*
X208892831Y-116383695D01*
X208892831Y-116383695D02*
X208892831Y-116478933D01*
X208892831Y-116478933D02*
X208845212Y-116621790D01*
X208845212Y-116621790D02*
X208273784Y-117193219D01*
X208273784Y-117193219D02*
X208892831Y-117193219D01*
X216833333Y-93859580D02*
X216785714Y-93907200D01*
X216785714Y-93907200D02*
X216642857Y-93954819D01*
X216642857Y-93954819D02*
X216547619Y-93954819D01*
X216547619Y-93954819D02*
X216404762Y-93907200D01*
X216404762Y-93907200D02*
X216309524Y-93811961D01*
X216309524Y-93811961D02*
X216261905Y-93716723D01*
X216261905Y-93716723D02*
X216214286Y-93526247D01*
X216214286Y-93526247D02*
X216214286Y-93383390D01*
X216214286Y-93383390D02*
X216261905Y-93192914D01*
X216261905Y-93192914D02*
X216309524Y-93097676D01*
X216309524Y-93097676D02*
X216404762Y-93002438D01*
X216404762Y-93002438D02*
X216547619Y-92954819D01*
X216547619Y-92954819D02*
X216642857Y-92954819D01*
X216642857Y-92954819D02*
X216785714Y-93002438D01*
X216785714Y-93002438D02*
X216833333Y-93050057D01*
X217166667Y-92954819D02*
X217833333Y-92954819D01*
X217833333Y-92954819D02*
X217404762Y-93954819D01*
X223738095Y-89954819D02*
X223738095Y-90764342D01*
X223738095Y-90764342D02*
X223785714Y-90859580D01*
X223785714Y-90859580D02*
X223833333Y-90907200D01*
X223833333Y-90907200D02*
X223928571Y-90954819D01*
X223928571Y-90954819D02*
X224119047Y-90954819D01*
X224119047Y-90954819D02*
X224214285Y-90907200D01*
X224214285Y-90907200D02*
X224261904Y-90859580D01*
X224261904Y-90859580D02*
X224309523Y-90764342D01*
X224309523Y-90764342D02*
X224309523Y-89954819D01*
X225309523Y-90954819D02*
X224738095Y-90954819D01*
X225023809Y-90954819D02*
X225023809Y-89954819D01*
X225023809Y-89954819D02*
X224928571Y-90097676D01*
X224928571Y-90097676D02*
X224833333Y-90192914D01*
X224833333Y-90192914D02*
X224738095Y-90240533D01*
X229166666Y-64954819D02*
X229166666Y-65669104D01*
X229166666Y-65669104D02*
X229119047Y-65811961D01*
X229119047Y-65811961D02*
X229023809Y-65907200D01*
X229023809Y-65907200D02*
X228880952Y-65954819D01*
X228880952Y-65954819D02*
X228785714Y-65954819D01*
X230071428Y-65288152D02*
X230071428Y-65954819D01*
X229833333Y-64907200D02*
X229595238Y-65621485D01*
X229595238Y-65621485D02*
X230214285Y-65621485D01*
X171333333Y-93954819D02*
X171000000Y-93478628D01*
X170761905Y-93954819D02*
X170761905Y-92954819D01*
X170761905Y-92954819D02*
X171142857Y-92954819D01*
X171142857Y-92954819D02*
X171238095Y-93002438D01*
X171238095Y-93002438D02*
X171285714Y-93050057D01*
X171285714Y-93050057D02*
X171333333Y-93145295D01*
X171333333Y-93145295D02*
X171333333Y-93288152D01*
X171333333Y-93288152D02*
X171285714Y-93383390D01*
X171285714Y-93383390D02*
X171238095Y-93431009D01*
X171238095Y-93431009D02*
X171142857Y-93478628D01*
X171142857Y-93478628D02*
X170761905Y-93478628D01*
X172285714Y-93954819D02*
X171714286Y-93954819D01*
X172000000Y-93954819D02*
X172000000Y-92954819D01*
X172000000Y-92954819D02*
X171904762Y-93097676D01*
X171904762Y-93097676D02*
X171809524Y-93192914D01*
X171809524Y-93192914D02*
X171714286Y-93240533D01*
X220904761Y-83550057D02*
X220809523Y-83502438D01*
X220809523Y-83502438D02*
X220714285Y-83407200D01*
X220714285Y-83407200D02*
X220571428Y-83264342D01*
X220571428Y-83264342D02*
X220476190Y-83216723D01*
X220476190Y-83216723D02*
X220380952Y-83216723D01*
X220428571Y-83454819D02*
X220333333Y-83407200D01*
X220333333Y-83407200D02*
X220238095Y-83311961D01*
X220238095Y-83311961D02*
X220190476Y-83121485D01*
X220190476Y-83121485D02*
X220190476Y-82788152D01*
X220190476Y-82788152D02*
X220238095Y-82597676D01*
X220238095Y-82597676D02*
X220333333Y-82502438D01*
X220333333Y-82502438D02*
X220428571Y-82454819D01*
X220428571Y-82454819D02*
X220619047Y-82454819D01*
X220619047Y-82454819D02*
X220714285Y-82502438D01*
X220714285Y-82502438D02*
X220809523Y-82597676D01*
X220809523Y-82597676D02*
X220857142Y-82788152D01*
X220857142Y-82788152D02*
X220857142Y-83121485D01*
X220857142Y-83121485D02*
X220809523Y-83311961D01*
X220809523Y-83311961D02*
X220714285Y-83407200D01*
X220714285Y-83407200D02*
X220619047Y-83454819D01*
X220619047Y-83454819D02*
X220428571Y-83454819D01*
X221238095Y-82550057D02*
X221285714Y-82502438D01*
X221285714Y-82502438D02*
X221380952Y-82454819D01*
X221380952Y-82454819D02*
X221619047Y-82454819D01*
X221619047Y-82454819D02*
X221714285Y-82502438D01*
X221714285Y-82502438D02*
X221761904Y-82550057D01*
X221761904Y-82550057D02*
X221809523Y-82645295D01*
X221809523Y-82645295D02*
X221809523Y-82740533D01*
X221809523Y-82740533D02*
X221761904Y-82883390D01*
X221761904Y-82883390D02*
X221190476Y-83454819D01*
X221190476Y-83454819D02*
X221809523Y-83454819D01*
X224333333Y-83359580D02*
X224285714Y-83407200D01*
X224285714Y-83407200D02*
X224142857Y-83454819D01*
X224142857Y-83454819D02*
X224047619Y-83454819D01*
X224047619Y-83454819D02*
X223904762Y-83407200D01*
X223904762Y-83407200D02*
X223809524Y-83311961D01*
X223809524Y-83311961D02*
X223761905Y-83216723D01*
X223761905Y-83216723D02*
X223714286Y-83026247D01*
X223714286Y-83026247D02*
X223714286Y-82883390D01*
X223714286Y-82883390D02*
X223761905Y-82692914D01*
X223761905Y-82692914D02*
X223809524Y-82597676D01*
X223809524Y-82597676D02*
X223904762Y-82502438D01*
X223904762Y-82502438D02*
X224047619Y-82454819D01*
X224047619Y-82454819D02*
X224142857Y-82454819D01*
X224142857Y-82454819D02*
X224285714Y-82502438D01*
X224285714Y-82502438D02*
X224333333Y-82550057D01*
X225190476Y-82788152D02*
X225190476Y-83454819D01*
X224952381Y-82407200D02*
X224714286Y-83121485D01*
X224714286Y-83121485D02*
X225333333Y-83121485D01*
X220416333Y-95859580D02*
X220368714Y-95907200D01*
X220368714Y-95907200D02*
X220225857Y-95954819D01*
X220225857Y-95954819D02*
X220130619Y-95954819D01*
X220130619Y-95954819D02*
X219987762Y-95907200D01*
X219987762Y-95907200D02*
X219892524Y-95811961D01*
X219892524Y-95811961D02*
X219844905Y-95716723D01*
X219844905Y-95716723D02*
X219797286Y-95526247D01*
X219797286Y-95526247D02*
X219797286Y-95383390D01*
X219797286Y-95383390D02*
X219844905Y-95192914D01*
X219844905Y-95192914D02*
X219892524Y-95097676D01*
X219892524Y-95097676D02*
X219987762Y-95002438D01*
X219987762Y-95002438D02*
X220130619Y-94954819D01*
X220130619Y-94954819D02*
X220225857Y-94954819D01*
X220225857Y-94954819D02*
X220368714Y-95002438D01*
X220368714Y-95002438D02*
X220416333Y-95050057D01*
X220749667Y-94954819D02*
X221368714Y-94954819D01*
X221368714Y-94954819D02*
X221035381Y-95335771D01*
X221035381Y-95335771D02*
X221178238Y-95335771D01*
X221178238Y-95335771D02*
X221273476Y-95383390D01*
X221273476Y-95383390D02*
X221321095Y-95431009D01*
X221321095Y-95431009D02*
X221368714Y-95526247D01*
X221368714Y-95526247D02*
X221368714Y-95764342D01*
X221368714Y-95764342D02*
X221321095Y-95859580D01*
X221321095Y-95859580D02*
X221273476Y-95907200D01*
X221273476Y-95907200D02*
X221178238Y-95954819D01*
X221178238Y-95954819D02*
X220892524Y-95954819D01*
X220892524Y-95954819D02*
X220797286Y-95907200D01*
X220797286Y-95907200D02*
X220749667Y-95859580D01*
X179761905Y-93954819D02*
X179761905Y-92954819D01*
X179761905Y-92954819D02*
X180000000Y-92954819D01*
X180000000Y-92954819D02*
X180142857Y-93002438D01*
X180142857Y-93002438D02*
X180238095Y-93097676D01*
X180238095Y-93097676D02*
X180285714Y-93192914D01*
X180285714Y-93192914D02*
X180333333Y-93383390D01*
X180333333Y-93383390D02*
X180333333Y-93526247D01*
X180333333Y-93526247D02*
X180285714Y-93716723D01*
X180285714Y-93716723D02*
X180238095Y-93811961D01*
X180238095Y-93811961D02*
X180142857Y-93907200D01*
X180142857Y-93907200D02*
X180000000Y-93954819D01*
X180000000Y-93954819D02*
X179761905Y-93954819D01*
X181285714Y-93954819D02*
X180714286Y-93954819D01*
X181000000Y-93954819D02*
X181000000Y-92954819D01*
X181000000Y-92954819D02*
X180904762Y-93097676D01*
X180904762Y-93097676D02*
X180809524Y-93192914D01*
X180809524Y-93192914D02*
X180714286Y-93240533D01*
X205738095Y-61954819D02*
X206309523Y-61954819D01*
X206023809Y-62954819D02*
X206023809Y-61954819D01*
X206642857Y-62954819D02*
X206642857Y-61954819D01*
X206642857Y-61954819D02*
X207023809Y-61954819D01*
X207023809Y-61954819D02*
X207119047Y-62002438D01*
X207119047Y-62002438D02*
X207166666Y-62050057D01*
X207166666Y-62050057D02*
X207214285Y-62145295D01*
X207214285Y-62145295D02*
X207214285Y-62288152D01*
X207214285Y-62288152D02*
X207166666Y-62383390D01*
X207166666Y-62383390D02*
X207119047Y-62431009D01*
X207119047Y-62431009D02*
X207023809Y-62478628D01*
X207023809Y-62478628D02*
X206642857Y-62478628D01*
X207595238Y-62050057D02*
X207642857Y-62002438D01*
X207642857Y-62002438D02*
X207738095Y-61954819D01*
X207738095Y-61954819D02*
X207976190Y-61954819D01*
X207976190Y-61954819D02*
X208071428Y-62002438D01*
X208071428Y-62002438D02*
X208119047Y-62050057D01*
X208119047Y-62050057D02*
X208166666Y-62145295D01*
X208166666Y-62145295D02*
X208166666Y-62240533D01*
X208166666Y-62240533D02*
X208119047Y-62383390D01*
X208119047Y-62383390D02*
X207547619Y-62954819D01*
X207547619Y-62954819D02*
X208166666Y-62954819D01*
X221738095Y-84954819D02*
X222309523Y-84954819D01*
X222023809Y-85954819D02*
X222023809Y-84954819D01*
X222642857Y-85954819D02*
X222642857Y-84954819D01*
X222642857Y-84954819D02*
X223023809Y-84954819D01*
X223023809Y-84954819D02*
X223119047Y-85002438D01*
X223119047Y-85002438D02*
X223166666Y-85050057D01*
X223166666Y-85050057D02*
X223214285Y-85145295D01*
X223214285Y-85145295D02*
X223214285Y-85288152D01*
X223214285Y-85288152D02*
X223166666Y-85383390D01*
X223166666Y-85383390D02*
X223119047Y-85431009D01*
X223119047Y-85431009D02*
X223023809Y-85478628D01*
X223023809Y-85478628D02*
X222642857Y-85478628D01*
X224166666Y-85954819D02*
X223595238Y-85954819D01*
X223880952Y-85954819D02*
X223880952Y-84954819D01*
X223880952Y-84954819D02*
X223785714Y-85097676D01*
X223785714Y-85097676D02*
X223690476Y-85192914D01*
X223690476Y-85192914D02*
X223595238Y-85240533D01*
X178333333Y-106454819D02*
X178000000Y-105978628D01*
X177761905Y-106454819D02*
X177761905Y-105454819D01*
X177761905Y-105454819D02*
X178142857Y-105454819D01*
X178142857Y-105454819D02*
X178238095Y-105502438D01*
X178238095Y-105502438D02*
X178285714Y-105550057D01*
X178285714Y-105550057D02*
X178333333Y-105645295D01*
X178333333Y-105645295D02*
X178333333Y-105788152D01*
X178333333Y-105788152D02*
X178285714Y-105883390D01*
X178285714Y-105883390D02*
X178238095Y-105931009D01*
X178238095Y-105931009D02*
X178142857Y-105978628D01*
X178142857Y-105978628D02*
X177761905Y-105978628D01*
X178666667Y-105454819D02*
X179285714Y-105454819D01*
X179285714Y-105454819D02*
X178952381Y-105835771D01*
X178952381Y-105835771D02*
X179095238Y-105835771D01*
X179095238Y-105835771D02*
X179190476Y-105883390D01*
X179190476Y-105883390D02*
X179238095Y-105931009D01*
X179238095Y-105931009D02*
X179285714Y-106026247D01*
X179285714Y-106026247D02*
X179285714Y-106264342D01*
X179285714Y-106264342D02*
X179238095Y-106359580D01*
X179238095Y-106359580D02*
X179190476Y-106407200D01*
X179190476Y-106407200D02*
X179095238Y-106454819D01*
X179095238Y-106454819D02*
X178809524Y-106454819D01*
X178809524Y-106454819D02*
X178714286Y-106407200D01*
X178714286Y-106407200D02*
X178666667Y-106359580D01*
X171333333Y-96454819D02*
X171000000Y-95978628D01*
X170761905Y-96454819D02*
X170761905Y-95454819D01*
X170761905Y-95454819D02*
X171142857Y-95454819D01*
X171142857Y-95454819D02*
X171238095Y-95502438D01*
X171238095Y-95502438D02*
X171285714Y-95550057D01*
X171285714Y-95550057D02*
X171333333Y-95645295D01*
X171333333Y-95645295D02*
X171333333Y-95788152D01*
X171333333Y-95788152D02*
X171285714Y-95883390D01*
X171285714Y-95883390D02*
X171238095Y-95931009D01*
X171238095Y-95931009D02*
X171142857Y-95978628D01*
X171142857Y-95978628D02*
X170761905Y-95978628D01*
X171714286Y-95550057D02*
X171761905Y-95502438D01*
X171761905Y-95502438D02*
X171857143Y-95454819D01*
X171857143Y-95454819D02*
X172095238Y-95454819D01*
X172095238Y-95454819D02*
X172190476Y-95502438D01*
X172190476Y-95502438D02*
X172238095Y-95550057D01*
X172238095Y-95550057D02*
X172285714Y-95645295D01*
X172285714Y-95645295D02*
X172285714Y-95740533D01*
X172285714Y-95740533D02*
X172238095Y-95883390D01*
X172238095Y-95883390D02*
X171666667Y-96454819D01*
X171666667Y-96454819D02*
X172285714Y-96454819D01*
X218333333Y-106359580D02*
X218285714Y-106407200D01*
X218285714Y-106407200D02*
X218142857Y-106454819D01*
X218142857Y-106454819D02*
X218047619Y-106454819D01*
X218047619Y-106454819D02*
X217904762Y-106407200D01*
X217904762Y-106407200D02*
X217809524Y-106311961D01*
X217809524Y-106311961D02*
X217761905Y-106216723D01*
X217761905Y-106216723D02*
X217714286Y-106026247D01*
X217714286Y-106026247D02*
X217714286Y-105883390D01*
X217714286Y-105883390D02*
X217761905Y-105692914D01*
X217761905Y-105692914D02*
X217809524Y-105597676D01*
X217809524Y-105597676D02*
X217904762Y-105502438D01*
X217904762Y-105502438D02*
X218047619Y-105454819D01*
X218047619Y-105454819D02*
X218142857Y-105454819D01*
X218142857Y-105454819D02*
X218285714Y-105502438D01*
X218285714Y-105502438D02*
X218333333Y-105550057D01*
X218714286Y-105550057D02*
X218761905Y-105502438D01*
X218761905Y-105502438D02*
X218857143Y-105454819D01*
X218857143Y-105454819D02*
X219095238Y-105454819D01*
X219095238Y-105454819D02*
X219190476Y-105502438D01*
X219190476Y-105502438D02*
X219238095Y-105550057D01*
X219238095Y-105550057D02*
X219285714Y-105645295D01*
X219285714Y-105645295D02*
X219285714Y-105740533D01*
X219285714Y-105740533D02*
X219238095Y-105883390D01*
X219238095Y-105883390D02*
X218666667Y-106454819D01*
X218666667Y-106454819D02*
X219285714Y-106454819D01*
D12*
X217440000Y-77937500D02*
X217440000Y-77287500D01*
X217440000Y-77937500D02*
X217440000Y-78587500D01*
X220560000Y-77937500D02*
X220560000Y-77287500D01*
X220560000Y-77937500D02*
X220560000Y-78587500D01*
X217490000Y-79100000D02*
X217160000Y-79340000D01*
X217160000Y-78860000D01*
X217490000Y-79100000D01*
G36*
X217490000Y-79100000D02*
G01*
X217160000Y-79340000D01*
X217160000Y-78860000D01*
X217490000Y-79100000D01*
G37*
X171759200Y-115360800D02*
X171759200Y-110170800D01*
X174519200Y-110170800D02*
X171759200Y-110170800D01*
X174519200Y-115360800D02*
X171759200Y-115360800D01*
X174519200Y-115360800D02*
X174519200Y-110170800D01*
X174519200Y-116630800D02*
X174519200Y-118010800D01*
X174519200Y-118010800D02*
X173139200Y-118010800D01*
X171836200Y-100469000D02*
X171836200Y-101969000D01*
X173086200Y-104469000D02*
X177586200Y-104469000D01*
X177586200Y-97969000D02*
X173086200Y-97969000D01*
X178836200Y-101969000D02*
X178836200Y-100469000D01*
X208640800Y-97624200D02*
X208640800Y-99124200D01*
X209890800Y-101624200D02*
X214390800Y-101624200D01*
X214390800Y-95124200D02*
X209890800Y-95124200D01*
X215640800Y-99124200D02*
X215640800Y-97624200D01*
X216284800Y-110705400D02*
X216284800Y-116675400D01*
X216284800Y-116675400D02*
X233904800Y-116675400D01*
X216294800Y-114415400D02*
X217044800Y-114415400D01*
X216294800Y-115915400D02*
X216294800Y-116665400D01*
X216294800Y-116665400D02*
X218094800Y-116665400D01*
X217044800Y-111465400D02*
X225094800Y-111465400D01*
X217044800Y-114415400D02*
X217044800Y-111465400D01*
X218094800Y-115915400D02*
X216294800Y-115915400D01*
X218094800Y-116665400D02*
X218094800Y-115915400D01*
X219594800Y-115915400D02*
X219594800Y-116665400D01*
X219594800Y-116665400D02*
X230594800Y-116665400D01*
X230594800Y-115915400D02*
X219594800Y-115915400D01*
X230594800Y-116665400D02*
X230594800Y-115915400D01*
X232094800Y-115915400D02*
X232094800Y-116665400D01*
X232094800Y-116665400D02*
X233894800Y-116665400D01*
X232944800Y-116965400D02*
X234194800Y-116965400D01*
X233144800Y-111465400D02*
X225094800Y-111465400D01*
X233144800Y-114415400D02*
X233144800Y-111465400D01*
X233894800Y-114415400D02*
X233144800Y-114415400D01*
X233894800Y-115915400D02*
X232094800Y-115915400D01*
X233894800Y-116665400D02*
X233894800Y-115915400D01*
X233904800Y-110705400D02*
X216284800Y-110705400D01*
X233904800Y-116675400D02*
X233904800Y-110705400D01*
X234194800Y-116965400D02*
X234194800Y-115715400D01*
X173011780Y-105372000D02*
X172730620Y-105372000D01*
X173011780Y-106392000D02*
X172730620Y-106392000D01*
X179356400Y-115335400D02*
X179356400Y-110145400D01*
X182116400Y-110145400D02*
X179356400Y-110145400D01*
X182116400Y-115335400D02*
X179356400Y-115335400D01*
X182116400Y-115335400D02*
X182116400Y-110145400D01*
X182116400Y-116605400D02*
X182116400Y-117985400D01*
X182116400Y-117985400D02*
X180736400Y-117985400D01*
X215490000Y-81890580D02*
X215490000Y-81609420D01*
X216510000Y-81890580D02*
X216510000Y-81609420D01*
X209477142Y-93239500D02*
X209951658Y-93239500D01*
X209477142Y-94284500D02*
X209951658Y-94284500D01*
X175937200Y-94772600D02*
X175937200Y-96692600D01*
X175937200Y-96692600D02*
X178622200Y-96692600D01*
X178622200Y-94772600D02*
X175937200Y-94772600D01*
X227680800Y-83346600D02*
X227680800Y-100966600D01*
X227680800Y-100966600D02*
X233650800Y-100966600D01*
X228440800Y-84106600D02*
X228440800Y-92156600D01*
X228440800Y-100206600D02*
X228440800Y-92156600D01*
X231390800Y-83356600D02*
X231390800Y-84106600D01*
X231390800Y-84106600D02*
X228440800Y-84106600D01*
X231390800Y-100206600D02*
X228440800Y-100206600D01*
X231390800Y-100956600D02*
X231390800Y-100206600D01*
X232890800Y-83356600D02*
X232890800Y-85156600D01*
X232890800Y-85156600D02*
X233640800Y-85156600D01*
X232890800Y-86656600D02*
X232890800Y-97656600D01*
X232890800Y-97656600D02*
X233640800Y-97656600D01*
X232890800Y-99156600D02*
X232890800Y-100956600D01*
X232890800Y-100956600D02*
X233640800Y-100956600D01*
X233640800Y-83356600D02*
X232890800Y-83356600D01*
X233640800Y-85156600D02*
X233640800Y-83356600D01*
X233640800Y-86656600D02*
X232890800Y-86656600D01*
X233640800Y-97656600D02*
X233640800Y-86656600D01*
X233640800Y-99156600D02*
X232890800Y-99156600D01*
X233640800Y-100956600D02*
X233640800Y-99156600D01*
X233650800Y-83346600D02*
X227680800Y-83346600D01*
X233650800Y-100966600D02*
X233650800Y-83346600D01*
X233940800Y-83056600D02*
X232690800Y-83056600D01*
X233940800Y-84306600D02*
X233940800Y-83056600D01*
X223864600Y-108755700D02*
X223864600Y-108155700D01*
X223864600Y-108755700D02*
X223864600Y-109355700D01*
X225734600Y-108755700D02*
X225734600Y-108155700D01*
X225734600Y-108755700D02*
X225734600Y-109355700D01*
X225299600Y-107445700D02*
X225059600Y-107115700D01*
X225539600Y-107115700D01*
X225299600Y-107445700D01*
G36*
X225299600Y-107445700D02*
G01*
X225059600Y-107115700D01*
X225539600Y-107115700D01*
X225299600Y-107445700D01*
G37*
D13*
X210541600Y-65387400D02*
X226541600Y-65387400D01*
X226541600Y-75887400D01*
X210541600Y-75887400D01*
X210541600Y-65387400D01*
D12*
X209059000Y-80509600D02*
X210439000Y-80509600D01*
X209059000Y-81889600D02*
X209059000Y-80509600D01*
X209059000Y-83159600D02*
X209059000Y-90889600D01*
X209059000Y-83159600D02*
X211819000Y-83159600D01*
X209059000Y-90889600D02*
X211819000Y-90889600D01*
X211819000Y-83159600D02*
X211819000Y-90889600D01*
X225820000Y-79915112D02*
X230980000Y-79915112D01*
X225820000Y-79955112D02*
X230980000Y-79955112D01*
X225821000Y-79875112D02*
X230979000Y-79875112D01*
X225823000Y-79835112D02*
X230977000Y-79835112D01*
X225825000Y-79795112D02*
X230975000Y-79795112D01*
X225828000Y-79755112D02*
X230972000Y-79755112D01*
X225831000Y-79715112D02*
X227360000Y-79715112D01*
X225835000Y-79675112D02*
X227360000Y-79675112D01*
X225840000Y-79635112D02*
X227360000Y-79635112D01*
X225845000Y-79595112D02*
X227360000Y-79595112D01*
X225851000Y-79555112D02*
X227360000Y-79555112D01*
X225857000Y-79515112D02*
X227360000Y-79515112D01*
X225864000Y-79475112D02*
X227360000Y-79475112D01*
X225872000Y-79435112D02*
X227360000Y-79435112D01*
X225881000Y-79395112D02*
X227360000Y-79395112D01*
X225890000Y-79355112D02*
X227360000Y-79355112D01*
X225899000Y-79315112D02*
X227360000Y-79315112D01*
X225910000Y-79275112D02*
X227360000Y-79275112D01*
X225921000Y-79235112D02*
X227360000Y-79235112D01*
X225933000Y-79195112D02*
X227360000Y-79195112D01*
X225945000Y-79155112D02*
X227360000Y-79155112D01*
X225958000Y-79115112D02*
X227360000Y-79115112D01*
X225972000Y-79075112D02*
X227360000Y-79075112D01*
X225987000Y-79035112D02*
X227360000Y-79035112D01*
X226002000Y-78995112D02*
X227360000Y-78995112D01*
X226018000Y-78955112D02*
X227360000Y-78955112D01*
X226035000Y-78915112D02*
X227360000Y-78915112D01*
X226053000Y-78875112D02*
X227360000Y-78875112D01*
X226071000Y-78835112D02*
X227360000Y-78835112D01*
X226091000Y-78795112D02*
X227360000Y-78795112D01*
X226111000Y-78755112D02*
X227360000Y-78755112D01*
X226132000Y-78715112D02*
X227360000Y-78715112D01*
X226154000Y-78675112D02*
X227360000Y-78675112D01*
X226177000Y-78635112D02*
X227360000Y-78635112D01*
X226201000Y-78595112D02*
X227360000Y-78595112D01*
X226225000Y-78555112D02*
X227360000Y-78555112D01*
X226251000Y-78515112D02*
X227360000Y-78515112D01*
X226278000Y-78475112D02*
X227360000Y-78475112D01*
X226306000Y-78435112D02*
X227360000Y-78435112D01*
X226335000Y-78395112D02*
X227360000Y-78395112D01*
X226365000Y-78355112D02*
X227360000Y-78355112D01*
X226397000Y-78315112D02*
X227360000Y-78315112D01*
X226430000Y-78275112D02*
X227360000Y-78275112D01*
X226464000Y-78235112D02*
X227360000Y-78235112D01*
X226499000Y-78195112D02*
X227360000Y-78195112D01*
X226536000Y-78155112D02*
X227360000Y-78155112D01*
X226575000Y-78115112D02*
X227360000Y-78115112D01*
X226615000Y-78075112D02*
X227360000Y-78075112D01*
X226657000Y-78035112D02*
X227360000Y-78035112D01*
X226675000Y-82509887D02*
X227175000Y-82509887D01*
X226701000Y-77995112D02*
X227360000Y-77995112D01*
X226748000Y-77955112D02*
X227360000Y-77955112D01*
X226796000Y-77915112D02*
X227360000Y-77915112D01*
X226847000Y-77875112D02*
X227360000Y-77875112D01*
X226901000Y-77835112D02*
X227360000Y-77835112D01*
X226925000Y-82759887D02*
X226925000Y-82259887D01*
X226957000Y-77795112D02*
X227360000Y-77795112D01*
X227017000Y-77755112D02*
X227360000Y-77755112D01*
X227081000Y-77715112D02*
X227360000Y-77715112D01*
X227149000Y-77675112D02*
X227360000Y-77675112D01*
X227223000Y-77635112D02*
X229577000Y-77635112D01*
X227302000Y-77595112D02*
X229498000Y-77595112D01*
X227389000Y-77555112D02*
X229411000Y-77555112D01*
X227486000Y-77515112D02*
X229314000Y-77515112D01*
X227595000Y-77475112D02*
X229205000Y-77475112D01*
X227723000Y-77435112D02*
X229077000Y-77435112D01*
X227883000Y-77395112D02*
X228917000Y-77395112D01*
X228117000Y-77355112D02*
X228683000Y-77355112D01*
X229440000Y-77675112D02*
X229651000Y-77675112D01*
X229440000Y-77715112D02*
X229719000Y-77715112D01*
X229440000Y-77755112D02*
X229783000Y-77755112D01*
X229440000Y-77795112D02*
X229843000Y-77795112D01*
X229440000Y-77835112D02*
X229899000Y-77835112D01*
X229440000Y-77875112D02*
X229953000Y-77875112D01*
X229440000Y-77915112D02*
X230004000Y-77915112D01*
X229440000Y-77955112D02*
X230052000Y-77955112D01*
X229440000Y-77995112D02*
X230099000Y-77995112D01*
X229440000Y-78035112D02*
X230143000Y-78035112D01*
X229440000Y-78075112D02*
X230185000Y-78075112D01*
X229440000Y-78115112D02*
X230225000Y-78115112D01*
X229440000Y-78155112D02*
X230264000Y-78155112D01*
X229440000Y-78195112D02*
X230301000Y-78195112D01*
X229440000Y-78235112D02*
X230336000Y-78235112D01*
X229440000Y-78275112D02*
X230370000Y-78275112D01*
X229440000Y-78315112D02*
X230403000Y-78315112D01*
X229440000Y-78355112D02*
X230435000Y-78355112D01*
X229440000Y-78395112D02*
X230465000Y-78395112D01*
X229440000Y-78435112D02*
X230494000Y-78435112D01*
X229440000Y-78475112D02*
X230522000Y-78475112D01*
X229440000Y-78515112D02*
X230549000Y-78515112D01*
X229440000Y-78555112D02*
X230575000Y-78555112D01*
X229440000Y-78595112D02*
X230599000Y-78595112D01*
X229440000Y-78635112D02*
X230623000Y-78635112D01*
X229440000Y-78675112D02*
X230646000Y-78675112D01*
X229440000Y-78715112D02*
X230668000Y-78715112D01*
X229440000Y-78755112D02*
X230689000Y-78755112D01*
X229440000Y-78795112D02*
X230709000Y-78795112D01*
X229440000Y-78835112D02*
X230729000Y-78835112D01*
X229440000Y-78875112D02*
X230747000Y-78875112D01*
X229440000Y-78915112D02*
X230765000Y-78915112D01*
X229440000Y-78955112D02*
X230782000Y-78955112D01*
X229440000Y-78995112D02*
X230798000Y-78995112D01*
X229440000Y-79035112D02*
X230813000Y-79035112D01*
X229440000Y-79075112D02*
X230828000Y-79075112D01*
X229440000Y-79115112D02*
X230842000Y-79115112D01*
X229440000Y-79155112D02*
X230855000Y-79155112D01*
X229440000Y-79195112D02*
X230867000Y-79195112D01*
X229440000Y-79235112D02*
X230879000Y-79235112D01*
X229440000Y-79275112D02*
X230890000Y-79275112D01*
X229440000Y-79315112D02*
X230901000Y-79315112D01*
X229440000Y-79355112D02*
X230910000Y-79355112D01*
X229440000Y-79395112D02*
X230919000Y-79395112D01*
X229440000Y-79435112D02*
X230928000Y-79435112D01*
X229440000Y-79475112D02*
X230936000Y-79475112D01*
X229440000Y-79515112D02*
X230943000Y-79515112D01*
X229440000Y-79555112D02*
X230949000Y-79555112D01*
X229440000Y-79595112D02*
X230955000Y-79595112D01*
X229440000Y-79635112D02*
X230960000Y-79635112D01*
X229440000Y-79675112D02*
X230965000Y-79675112D01*
X229440000Y-79715112D02*
X230969000Y-79715112D01*
X231020000Y-79955112D02*
G75*
G02*
X225780000Y-79955112I-2620000J0D01*
G01*
X225780000Y-79955112D02*
G75*
G02*
X231020000Y-79955112I2620000J0D01*
G01*
X212750000Y-82460000D02*
X212750000Y-78600000D01*
X212750000Y-82460000D02*
X214750000Y-82460000D01*
X214750000Y-82460000D02*
X214750000Y-78600000D01*
X217737258Y-83727500D02*
X217262742Y-83727500D01*
X217737258Y-84772500D02*
X217262742Y-84772500D01*
X184817600Y-68903400D02*
X184337600Y-68903400D01*
X184817600Y-68903400D02*
X184817600Y-69323400D01*
X184817600Y-71443400D02*
X184817600Y-71863400D01*
X184817600Y-73983400D02*
X184817600Y-74403400D01*
X184817600Y-76523400D02*
X184817600Y-76943400D01*
X184817600Y-79063400D02*
X184817600Y-79483400D01*
X184817600Y-81603400D02*
X184817600Y-82023400D01*
X184817600Y-84143400D02*
X184817600Y-84563400D01*
X184817600Y-86683400D02*
X184817600Y-87103400D01*
X184817600Y-89223400D02*
X184817600Y-89643400D01*
X184817600Y-91763400D02*
X184817600Y-92183400D01*
X184817600Y-94303400D02*
X184817600Y-94723400D01*
X184817600Y-96843400D02*
X184817600Y-97263400D01*
X184817600Y-99383400D02*
X184817600Y-99803400D01*
X184817600Y-101923400D02*
X184817600Y-102343400D01*
X184817600Y-104463400D02*
X184817600Y-104883400D01*
X184817600Y-107003400D02*
X184817600Y-107423400D01*
X184817600Y-109543400D02*
X184817600Y-109963400D01*
X184817600Y-112083400D02*
X184817600Y-112503400D01*
X184817600Y-114623400D02*
X184817600Y-115043400D01*
X184847924Y-66783400D02*
X184337600Y-66783400D01*
X185157600Y-66783463D02*
X185157600Y-66426400D01*
X185157600Y-68903400D02*
X185157600Y-69323400D01*
X185157600Y-71443400D02*
X185157600Y-71863400D01*
X185157600Y-73983400D02*
X185157600Y-74403400D01*
X185157600Y-76523400D02*
X185157600Y-76943400D01*
X185157600Y-79063400D02*
X185157600Y-79483400D01*
X185157600Y-81603400D02*
X185157600Y-82023400D01*
X185157600Y-84143400D02*
X185157600Y-84563400D01*
X185157600Y-86683400D02*
X185157600Y-87103400D01*
X185157600Y-89223400D02*
X185157600Y-89643400D01*
X185157600Y-91763400D02*
X185157600Y-92183400D01*
X185157600Y-94303400D02*
X185157600Y-94723400D01*
X185157600Y-96843400D02*
X185157600Y-97263400D01*
X185157600Y-99383400D02*
X185157600Y-99803400D01*
X185157600Y-101923400D02*
X185157600Y-102343400D01*
X185157600Y-104463400D02*
X185157600Y-104883400D01*
X185157600Y-107003400D02*
X185157600Y-107423400D01*
X185157600Y-109543400D02*
X185157600Y-109963400D01*
X185157600Y-112083400D02*
X185157600Y-112503400D01*
X185157600Y-114623400D02*
X185157600Y-115043400D01*
X185157600Y-117163337D02*
X185157600Y-117520400D01*
X185427600Y-66363400D02*
X187917600Y-66363400D01*
X185427600Y-117583400D02*
X189265539Y-117583400D01*
X187917600Y-66363400D02*
X187917600Y-67276920D01*
X187917600Y-66363400D02*
X189265540Y-66363400D01*
X187917600Y-69669880D02*
X187917600Y-114276920D01*
X187917600Y-116669880D02*
X187917600Y-117583400D01*
X190189661Y-66363400D02*
X191192600Y-66363400D01*
X191192600Y-66363400D02*
X199662600Y-66363400D01*
X191527600Y-66363400D02*
X191527600Y-67279400D01*
X191527600Y-69667400D02*
X191527600Y-70883400D01*
X191527600Y-70883400D02*
X191823690Y-70883400D01*
X191827600Y-117583400D02*
X190189661Y-117583400D01*
X194181510Y-70883400D02*
X196673690Y-70883400D01*
X199027600Y-117583400D02*
X191827600Y-117583400D01*
X199031510Y-70883400D02*
X199327600Y-70883400D01*
X199327600Y-66363400D02*
X199327600Y-67279400D01*
X199327600Y-69667400D02*
X199327600Y-70883400D01*
X199662600Y-66363400D02*
X200665539Y-66363400D01*
X200665539Y-117583400D02*
X199027600Y-117583400D01*
X201589661Y-66363400D02*
X202937600Y-66363400D01*
X201589661Y-117583400D02*
X205427600Y-117583400D01*
X202937600Y-66363400D02*
X202937600Y-67276920D01*
X202937600Y-69669880D02*
X202937600Y-114276920D01*
X202937600Y-116669880D02*
X202937600Y-117583400D01*
X205427600Y-66363400D02*
X202937600Y-66363400D01*
X205697600Y-66783463D02*
X205697600Y-66426400D01*
X205697600Y-68903400D02*
X205697600Y-69323400D01*
X205697600Y-71443400D02*
X205697600Y-71863400D01*
X205697600Y-73983400D02*
X205697600Y-74403400D01*
X205697600Y-76523400D02*
X205697600Y-76943400D01*
X205697600Y-79063400D02*
X205697600Y-79483400D01*
X205697600Y-81603400D02*
X205697600Y-82023400D01*
X205697600Y-84143400D02*
X205697600Y-84563400D01*
X205697600Y-86683400D02*
X205697600Y-87103400D01*
X205697600Y-89223400D02*
X205697600Y-89643400D01*
X205697600Y-91763400D02*
X205697600Y-92183400D01*
X205697600Y-94303400D02*
X205697600Y-94723400D01*
X205697600Y-96843400D02*
X205697600Y-97263400D01*
X205697600Y-99383400D02*
X205697600Y-99803400D01*
X205697600Y-101923400D02*
X205697600Y-102343400D01*
X205697600Y-104463400D02*
X205697600Y-104883400D01*
X205697600Y-107003400D02*
X205697600Y-107423400D01*
X205697600Y-109543400D02*
X205697600Y-109963400D01*
X205697600Y-112083400D02*
X205697600Y-112503400D01*
X205697600Y-114623400D02*
X205697600Y-115043400D01*
X205697600Y-117163337D02*
X205697600Y-117520400D01*
X206037600Y-68903400D02*
X206037600Y-69323400D01*
X206037600Y-71443400D02*
X206037600Y-71863400D01*
X206037600Y-73983400D02*
X206037600Y-74403400D01*
X206037600Y-76523400D02*
X206037600Y-76943400D01*
X206037600Y-79063400D02*
X206037600Y-79483400D01*
X206037600Y-81603400D02*
X206037600Y-82023400D01*
X206037600Y-84143400D02*
X206037600Y-84563400D01*
X206037600Y-86683400D02*
X206037600Y-87103400D01*
X206037600Y-89223400D02*
X206037600Y-89643400D01*
X206037600Y-91763400D02*
X206037600Y-92183400D01*
X206037600Y-94303400D02*
X206037600Y-94723400D01*
X206037600Y-96843400D02*
X206037600Y-97263400D01*
X206037600Y-99383400D02*
X206037600Y-99803400D01*
X206037600Y-101923400D02*
X206037600Y-102343400D01*
X206037600Y-104463400D02*
X206037600Y-104883400D01*
X206037600Y-107003400D02*
X206037600Y-107423400D01*
X206037600Y-109543400D02*
X206037600Y-109963400D01*
X206037600Y-112083400D02*
X206037600Y-112503400D01*
X206037600Y-114623400D02*
X206037600Y-115043400D01*
X184847924Y-66783400D02*
G75*
G02*
X185427600Y-66363400I579692J-190051D01*
G01*
X185427600Y-117583400D02*
G75*
G02*
X184847924Y-117163337I1J610002D01*
G01*
X205427600Y-66363400D02*
G75*
G02*
X206007276Y-66783463I0J-610000D01*
G01*
X206007276Y-117163337D02*
G75*
G02*
X205427600Y-117583469I-579676J189837D01*
G01*
X214668980Y-93190600D02*
X214387820Y-93190600D01*
X214668980Y-94210600D02*
X214387820Y-94210600D01*
X224814100Y-91462200D02*
X224214100Y-91462200D01*
X224814100Y-91462200D02*
X225414100Y-91462200D01*
X224814100Y-93332200D02*
X224214100Y-93332200D01*
X224814100Y-93332200D02*
X225414100Y-93332200D01*
X223504100Y-91897200D02*
X223174100Y-92137200D01*
X223174100Y-91657200D01*
X223504100Y-91897200D01*
G36*
X223504100Y-91897200D02*
G01*
X223174100Y-92137200D01*
X223174100Y-91657200D01*
X223504100Y-91897200D01*
G37*
X227628000Y-73380400D02*
X227628000Y-74630400D01*
X227628000Y-74630400D02*
X228878000Y-74630400D01*
X227918000Y-66720400D02*
X227918000Y-74340400D01*
X227918000Y-74340400D02*
X233888000Y-74340400D01*
X227928000Y-66730400D02*
X227928000Y-68530400D01*
X227928000Y-68530400D02*
X228678000Y-68530400D01*
X227928000Y-70030400D02*
X227928000Y-71030400D01*
X227928000Y-71030400D02*
X228678000Y-71030400D01*
X227928000Y-72530400D02*
X227928000Y-74330400D01*
X227928000Y-74330400D02*
X228678000Y-74330400D01*
X228678000Y-66730400D02*
X227928000Y-66730400D01*
X228678000Y-68530400D02*
X228678000Y-66730400D01*
X228678000Y-70030400D02*
X227928000Y-70030400D01*
X228678000Y-71030400D02*
X228678000Y-70030400D01*
X228678000Y-72530400D02*
X227928000Y-72530400D01*
X228678000Y-74330400D02*
X228678000Y-72530400D01*
X230178000Y-66730400D02*
X230178000Y-67480400D01*
X230178000Y-67480400D02*
X233128000Y-67480400D01*
X230178000Y-73580400D02*
X233128000Y-73580400D01*
X230178000Y-74330400D02*
X230178000Y-73580400D01*
X233128000Y-67480400D02*
X233128000Y-70530400D01*
X233128000Y-73580400D02*
X233128000Y-70530400D01*
X233888000Y-66720400D02*
X227918000Y-66720400D01*
X233888000Y-74340400D02*
X233888000Y-66720400D01*
X173955942Y-93076500D02*
X174430458Y-93076500D01*
X173955942Y-94121500D02*
X174430458Y-94121500D01*
X218240000Y-80140000D02*
X219760000Y-80140000D01*
X218240000Y-80190000D02*
X218240000Y-80140000D01*
X218240000Y-82090000D02*
X218240000Y-81310000D01*
X218240000Y-83260000D02*
X218240000Y-83210000D01*
X219760000Y-80140000D02*
X219760000Y-81140000D01*
X219760000Y-82260000D02*
X219760000Y-83260000D01*
X219760000Y-83260000D02*
X218240000Y-83260000D01*
X217940000Y-81650000D02*
X217460000Y-81650000D01*
X217700000Y-81320000D01*
X217940000Y-81650000D01*
G36*
X217940000Y-81650000D02*
G01*
X217460000Y-81650000D01*
X217700000Y-81320000D01*
X217940000Y-81650000D01*
G37*
X175620000Y-115310000D02*
X175620000Y-110120000D01*
X178380000Y-110120000D02*
X175620000Y-110120000D01*
X178380000Y-115310000D02*
X175620000Y-115310000D01*
X178380000Y-115310000D02*
X178380000Y-110120000D01*
X178380000Y-116580000D02*
X178380000Y-117960000D01*
X178380000Y-117960000D02*
X177000000Y-117960000D01*
X221020000Y-80060000D02*
X225180000Y-80060000D01*
X221020000Y-80100000D02*
X225180000Y-80100000D01*
X221022000Y-80020000D02*
X225178000Y-80020000D01*
X221023000Y-79980000D02*
X225177000Y-79980000D01*
X221026000Y-79940000D02*
X225174000Y-79940000D01*
X221029000Y-79900000D02*
X222260000Y-79900000D01*
X221034000Y-79860000D02*
X222260000Y-79860000D01*
X221039000Y-79820000D02*
X222260000Y-79820000D01*
X221044000Y-79780000D02*
X222260000Y-79780000D01*
X221051000Y-79740000D02*
X222260000Y-79740000D01*
X221058000Y-79700000D02*
X222260000Y-79700000D01*
X221066000Y-79660000D02*
X222260000Y-79660000D01*
X221075000Y-79620000D02*
X222260000Y-79620000D01*
X221085000Y-79580000D02*
X222260000Y-79580000D01*
X221095000Y-79540000D02*
X222260000Y-79540000D01*
X221107000Y-79500000D02*
X222260000Y-79500000D01*
X221119000Y-79460000D02*
X222260000Y-79460000D01*
X221132000Y-79420000D02*
X222260000Y-79420000D01*
X221146000Y-79380000D02*
X222260000Y-79380000D01*
X221161000Y-79340000D02*
X222260000Y-79340000D01*
X221177000Y-79300000D02*
X222260000Y-79300000D01*
X221194000Y-79260000D02*
X222260000Y-79260000D01*
X221211000Y-79220000D02*
X222260000Y-79220000D01*
X221230000Y-79180000D02*
X222260000Y-79180000D01*
X221250000Y-79140000D02*
X222260000Y-79140000D01*
X221271000Y-79100000D02*
X222260000Y-79100000D01*
X221293000Y-79060000D02*
X222260000Y-79060000D01*
X221316000Y-79020000D02*
X222260000Y-79020000D01*
X221340000Y-78980000D02*
X222260000Y-78980000D01*
X221366000Y-78940000D02*
X222260000Y-78940000D01*
X221392000Y-78900000D02*
X222260000Y-78900000D01*
X221420000Y-78860000D02*
X222260000Y-78860000D01*
X221450000Y-78820000D02*
X222260000Y-78820000D01*
X221481000Y-78780000D02*
X222260000Y-78780000D01*
X221514000Y-78740000D02*
X222260000Y-78740000D01*
X221548000Y-78700000D02*
X222260000Y-78700000D01*
X221584000Y-78660000D02*
X222260000Y-78660000D01*
X221622000Y-78620000D02*
X222260000Y-78620000D01*
X221662000Y-78580000D02*
X222260000Y-78580000D01*
X221704000Y-78540000D02*
X222260000Y-78540000D01*
X221705000Y-82169801D02*
X222105000Y-82169801D01*
X221749000Y-78500000D02*
X222260000Y-78500000D01*
X221797000Y-78460000D02*
X222260000Y-78460000D01*
X221847000Y-78420000D02*
X222260000Y-78420000D01*
X221901000Y-78380000D02*
X222260000Y-78380000D01*
X221905000Y-82369801D02*
X221905000Y-81969801D01*
X221958000Y-78340000D02*
X222260000Y-78340000D01*
X222020000Y-78300000D02*
X222260000Y-78300000D01*
X222087000Y-78260000D02*
X224113000Y-78260000D01*
X222160000Y-78220000D02*
X224040000Y-78220000D01*
X222241000Y-78180000D02*
X223959000Y-78180000D01*
X222332000Y-78140000D02*
X223868000Y-78140000D01*
X222437000Y-78100000D02*
X223763000Y-78100000D01*
X222563000Y-78060000D02*
X223637000Y-78060000D01*
X222730000Y-78020000D02*
X223470000Y-78020000D01*
X223940000Y-78300000D02*
X224180000Y-78300000D01*
X223940000Y-78340000D02*
X224242000Y-78340000D01*
X223940000Y-78380000D02*
X224299000Y-78380000D01*
X223940000Y-78420000D02*
X224353000Y-78420000D01*
X223940000Y-78460000D02*
X224403000Y-78460000D01*
X223940000Y-78500000D02*
X224451000Y-78500000D01*
X223940000Y-78540000D02*
X224496000Y-78540000D01*
X223940000Y-78580000D02*
X224538000Y-78580000D01*
X223940000Y-78620000D02*
X224578000Y-78620000D01*
X223940000Y-78660000D02*
X224616000Y-78660000D01*
X223940000Y-78700000D02*
X224652000Y-78700000D01*
X223940000Y-78740000D02*
X224686000Y-78740000D01*
X223940000Y-78780000D02*
X224719000Y-78780000D01*
X223940000Y-78820000D02*
X224750000Y-78820000D01*
X223940000Y-78860000D02*
X224780000Y-78860000D01*
X223940000Y-78900000D02*
X224808000Y-78900000D01*
X223940000Y-78940000D02*
X224834000Y-78940000D01*
X223940000Y-78980000D02*
X224860000Y-78980000D01*
X223940000Y-79020000D02*
X224884000Y-79020000D01*
X223940000Y-79060000D02*
X224907000Y-79060000D01*
X223940000Y-79100000D02*
X224929000Y-79100000D01*
X223940000Y-79140000D02*
X224950000Y-79140000D01*
X223940000Y-79180000D02*
X224970000Y-79180000D01*
X223940000Y-79220000D02*
X224989000Y-79220000D01*
X223940000Y-79260000D02*
X225006000Y-79260000D01*
X223940000Y-79300000D02*
X225023000Y-79300000D01*
X223940000Y-79340000D02*
X225039000Y-79340000D01*
X223940000Y-79380000D02*
X225054000Y-79380000D01*
X223940000Y-79420000D02*
X225068000Y-79420000D01*
X223940000Y-79460000D02*
X225081000Y-79460000D01*
X223940000Y-79500000D02*
X225093000Y-79500000D01*
X223940000Y-79540000D02*
X225105000Y-79540000D01*
X223940000Y-79580000D02*
X225115000Y-79580000D01*
X223940000Y-79620000D02*
X225125000Y-79620000D01*
X223940000Y-79660000D02*
X225134000Y-79660000D01*
X223940000Y-79700000D02*
X225142000Y-79700000D01*
X223940000Y-79740000D02*
X225149000Y-79740000D01*
X223940000Y-79780000D02*
X225156000Y-79780000D01*
X223940000Y-79820000D02*
X225161000Y-79820000D01*
X223940000Y-79860000D02*
X225166000Y-79860000D01*
X223940000Y-79900000D02*
X225171000Y-79900000D01*
X225220000Y-80100000D02*
G75*
G02*
X220980000Y-80100000I-2120000J0D01*
G01*
X220980000Y-80100000D02*
G75*
G02*
X225220000Y-80100000I2120000J0D01*
G01*
X223160000Y-95949201D02*
X221929000Y-95949201D01*
X223160000Y-95989201D02*
X221934000Y-95989201D01*
X223160000Y-96029201D02*
X221939000Y-96029201D01*
X223160000Y-96069201D02*
X221944000Y-96069201D01*
X223160000Y-96109201D02*
X221951000Y-96109201D01*
X223160000Y-96149201D02*
X221958000Y-96149201D01*
X223160000Y-96189201D02*
X221966000Y-96189201D01*
X223160000Y-96229201D02*
X221975000Y-96229201D01*
X223160000Y-96269201D02*
X221985000Y-96269201D01*
X223160000Y-96309201D02*
X221995000Y-96309201D01*
X223160000Y-96349201D02*
X222007000Y-96349201D01*
X223160000Y-96389201D02*
X222019000Y-96389201D01*
X223160000Y-96429201D02*
X222032000Y-96429201D01*
X223160000Y-96469201D02*
X222046000Y-96469201D01*
X223160000Y-96509201D02*
X222061000Y-96509201D01*
X223160000Y-96549201D02*
X222077000Y-96549201D01*
X223160000Y-96589201D02*
X222094000Y-96589201D01*
X223160000Y-96629201D02*
X222111000Y-96629201D01*
X223160000Y-96669201D02*
X222130000Y-96669201D01*
X223160000Y-96709201D02*
X222150000Y-96709201D01*
X223160000Y-96749201D02*
X222171000Y-96749201D01*
X223160000Y-96789201D02*
X222193000Y-96789201D01*
X223160000Y-96829201D02*
X222216000Y-96829201D01*
X223160000Y-96869201D02*
X222240000Y-96869201D01*
X223160000Y-96909201D02*
X222266000Y-96909201D01*
X223160000Y-96949201D02*
X222292000Y-96949201D01*
X223160000Y-96989201D02*
X222320000Y-96989201D01*
X223160000Y-97029201D02*
X222350000Y-97029201D01*
X223160000Y-97069201D02*
X222381000Y-97069201D01*
X223160000Y-97109201D02*
X222414000Y-97109201D01*
X223160000Y-97149201D02*
X222448000Y-97149201D01*
X223160000Y-97189201D02*
X222484000Y-97189201D01*
X223160000Y-97229201D02*
X222522000Y-97229201D01*
X223160000Y-97269201D02*
X222562000Y-97269201D01*
X223160000Y-97309201D02*
X222604000Y-97309201D01*
X223160000Y-97349201D02*
X222649000Y-97349201D01*
X223160000Y-97389201D02*
X222697000Y-97389201D01*
X223160000Y-97429201D02*
X222747000Y-97429201D01*
X223160000Y-97469201D02*
X222801000Y-97469201D01*
X223160000Y-97509201D02*
X222858000Y-97509201D01*
X223160000Y-97549201D02*
X222920000Y-97549201D01*
X224370000Y-97829201D02*
X223630000Y-97829201D01*
X224537000Y-97789201D02*
X223463000Y-97789201D01*
X224663000Y-97749201D02*
X223337000Y-97749201D01*
X224768000Y-97709201D02*
X223232000Y-97709201D01*
X224859000Y-97669201D02*
X223141000Y-97669201D01*
X224940000Y-97629201D02*
X223060000Y-97629201D01*
X225013000Y-97589201D02*
X222987000Y-97589201D01*
X225080000Y-97549201D02*
X224840000Y-97549201D01*
X225142000Y-97509201D02*
X224840000Y-97509201D01*
X225195000Y-93479400D02*
X225195000Y-93879400D01*
X225199000Y-97469201D02*
X224840000Y-97469201D01*
X225253000Y-97429201D02*
X224840000Y-97429201D01*
X225303000Y-97389201D02*
X224840000Y-97389201D01*
X225351000Y-97349201D02*
X224840000Y-97349201D01*
X225395000Y-93679400D02*
X224995000Y-93679400D01*
X225396000Y-97309201D02*
X224840000Y-97309201D01*
X225438000Y-97269201D02*
X224840000Y-97269201D01*
X225478000Y-97229201D02*
X224840000Y-97229201D01*
X225516000Y-97189201D02*
X224840000Y-97189201D01*
X225552000Y-97149201D02*
X224840000Y-97149201D01*
X225586000Y-97109201D02*
X224840000Y-97109201D01*
X225619000Y-97069201D02*
X224840000Y-97069201D01*
X225650000Y-97029201D02*
X224840000Y-97029201D01*
X225680000Y-96989201D02*
X224840000Y-96989201D01*
X225708000Y-96949201D02*
X224840000Y-96949201D01*
X225734000Y-96909201D02*
X224840000Y-96909201D01*
X225760000Y-96869201D02*
X224840000Y-96869201D01*
X225784000Y-96829201D02*
X224840000Y-96829201D01*
X225807000Y-96789201D02*
X224840000Y-96789201D01*
X225829000Y-96749201D02*
X224840000Y-96749201D01*
X225850000Y-96709201D02*
X224840000Y-96709201D01*
X225870000Y-96669201D02*
X224840000Y-96669201D01*
X225889000Y-96629201D02*
X224840000Y-96629201D01*
X225906000Y-96589201D02*
X224840000Y-96589201D01*
X225923000Y-96549201D02*
X224840000Y-96549201D01*
X225939000Y-96509201D02*
X224840000Y-96509201D01*
X225954000Y-96469201D02*
X224840000Y-96469201D01*
X225968000Y-96429201D02*
X224840000Y-96429201D01*
X225981000Y-96389201D02*
X224840000Y-96389201D01*
X225993000Y-96349201D02*
X224840000Y-96349201D01*
X226005000Y-96309201D02*
X224840000Y-96309201D01*
X226015000Y-96269201D02*
X224840000Y-96269201D01*
X226025000Y-96229201D02*
X224840000Y-96229201D01*
X226034000Y-96189201D02*
X224840000Y-96189201D01*
X226042000Y-96149201D02*
X224840000Y-96149201D01*
X226049000Y-96109201D02*
X224840000Y-96109201D01*
X226056000Y-96069201D02*
X224840000Y-96069201D01*
X226061000Y-96029201D02*
X224840000Y-96029201D01*
X226066000Y-95989201D02*
X224840000Y-95989201D01*
X226071000Y-95949201D02*
X224840000Y-95949201D01*
X226074000Y-95909201D02*
X221926000Y-95909201D01*
X226077000Y-95869201D02*
X221923000Y-95869201D01*
X226078000Y-95829201D02*
X221922000Y-95829201D01*
X226080000Y-95749201D02*
X221920000Y-95749201D01*
X226080000Y-95789201D02*
X221920000Y-95789201D01*
X226120000Y-95749201D02*
G75*
G02*
X221880000Y-95749201I-2120000J0D01*
G01*
X221880000Y-95749201D02*
G75*
G02*
X226120000Y-95749201I2120000J0D01*
G01*
X175937200Y-92664400D02*
X175937200Y-94584400D01*
X175937200Y-94584400D02*
X178622200Y-94584400D01*
X178622200Y-92664400D02*
X175937200Y-92664400D01*
X205200000Y-62500000D02*
G75*
G02*
X203800000Y-62500000I-700000J0D01*
G01*
X203800000Y-62500000D02*
G75*
G02*
X205200000Y-62500000I700000J0D01*
G01*
X220900000Y-85500000D02*
G75*
G02*
X219500000Y-85500000I-700000J0D01*
G01*
X219500000Y-85500000D02*
G75*
G02*
X220900000Y-85500000I700000J0D01*
G01*
X175834342Y-105334100D02*
X176308858Y-105334100D01*
X175834342Y-106379100D02*
X176308858Y-106379100D01*
X168850800Y-83227400D02*
X168850800Y-88527400D01*
X179120800Y-83227400D02*
X168850800Y-83227400D01*
X179120800Y-83227400D02*
X179120800Y-85877400D01*
X179120800Y-85877400D02*
X181770800Y-85877400D01*
X180390800Y-83227400D02*
X181770800Y-83227400D01*
X181770800Y-83227400D02*
X181770800Y-84607400D01*
X181770800Y-85877400D02*
X181770800Y-88527400D01*
X181770800Y-88527400D02*
X168850800Y-88527400D01*
X173955942Y-95108500D02*
X174430458Y-95108500D01*
X173955942Y-96153500D02*
X174430458Y-96153500D01*
X173016400Y-64583800D02*
X174396400Y-64583800D01*
X173016400Y-65963800D02*
X173016400Y-64583800D01*
X173016400Y-67233800D02*
X173016400Y-80043800D01*
X173016400Y-67233800D02*
X175776400Y-67233800D01*
X173016400Y-80043800D02*
X175776400Y-80043800D01*
X175776400Y-67233800D02*
X175776400Y-80043800D01*
X219347800Y-108142200D02*
X219347800Y-107402200D01*
X219387800Y-108309200D02*
X219387800Y-107235200D01*
X219427800Y-108435200D02*
X219427800Y-107109200D01*
X219467800Y-108540200D02*
X219467800Y-107004200D01*
X219507800Y-108631200D02*
X219507800Y-106913200D01*
X219547800Y-108712200D02*
X219547800Y-106832200D01*
X219587800Y-108785200D02*
X219587800Y-106759200D01*
X219627800Y-106932200D02*
X219627800Y-106692200D01*
X219627800Y-108852200D02*
X219627800Y-108612200D01*
X219667800Y-106932200D02*
X219667800Y-106630200D01*
X219667800Y-108914200D02*
X219667800Y-108612200D01*
X219707800Y-106932200D02*
X219707800Y-106573200D01*
X219707800Y-108971200D02*
X219707800Y-108612200D01*
X219747800Y-106932200D02*
X219747800Y-106519200D01*
X219747800Y-109025200D02*
X219747800Y-108612200D01*
X219787800Y-106932200D02*
X219787800Y-106469200D01*
X219787800Y-109075200D02*
X219787800Y-108612200D01*
X219827800Y-106932200D02*
X219827800Y-106421200D01*
X219827800Y-109123200D02*
X219827800Y-108612200D01*
X219867800Y-106932200D02*
X219867800Y-106376200D01*
X219867800Y-109168200D02*
X219867800Y-108612200D01*
X219907800Y-106932200D02*
X219907800Y-106334200D01*
X219907800Y-109210200D02*
X219907800Y-108612200D01*
X219947800Y-106932200D02*
X219947800Y-106294200D01*
X219947800Y-109250200D02*
X219947800Y-108612200D01*
X219987800Y-106932200D02*
X219987800Y-106256200D01*
X219987800Y-109288200D02*
X219987800Y-108612200D01*
X220027800Y-106932200D02*
X220027800Y-106220200D01*
X220027800Y-109324200D02*
X220027800Y-108612200D01*
X220067800Y-106932200D02*
X220067800Y-106186200D01*
X220067800Y-109358200D02*
X220067800Y-108612200D01*
X220107800Y-106932200D02*
X220107800Y-106153200D01*
X220107800Y-109391200D02*
X220107800Y-108612200D01*
X220147800Y-106932200D02*
X220147800Y-106122200D01*
X220147800Y-109422200D02*
X220147800Y-108612200D01*
X220187800Y-106932200D02*
X220187800Y-106092200D01*
X220187800Y-109452200D02*
X220187800Y-108612200D01*
X220227800Y-106932200D02*
X220227800Y-106064200D01*
X220227800Y-109480200D02*
X220227800Y-108612200D01*
X220267800Y-106932200D02*
X220267800Y-106038200D01*
X220267800Y-109506200D02*
X220267800Y-108612200D01*
X220307800Y-106932200D02*
X220307800Y-106012200D01*
X220307800Y-109532200D02*
X220307800Y-108612200D01*
X220347800Y-106932200D02*
X220347800Y-105988200D01*
X220347800Y-109556200D02*
X220347800Y-108612200D01*
X220387800Y-106932200D02*
X220387800Y-105965200D01*
X220387800Y-109579200D02*
X220387800Y-108612200D01*
X220427800Y-106932200D02*
X220427800Y-105943200D01*
X220427800Y-109601200D02*
X220427800Y-108612200D01*
X220467800Y-106932200D02*
X220467800Y-105922200D01*
X220467800Y-109622200D02*
X220467800Y-108612200D01*
X220507800Y-106932200D02*
X220507800Y-105902200D01*
X220507800Y-109642200D02*
X220507800Y-108612200D01*
X220547800Y-106932200D02*
X220547800Y-105883200D01*
X220547800Y-109661200D02*
X220547800Y-108612200D01*
X220587800Y-106932200D02*
X220587800Y-105866200D01*
X220587800Y-109678200D02*
X220587800Y-108612200D01*
X220627800Y-106932200D02*
X220627800Y-105849200D01*
X220627800Y-109695200D02*
X220627800Y-108612200D01*
X220667800Y-106932200D02*
X220667800Y-105833200D01*
X220667800Y-109711200D02*
X220667800Y-108612200D01*
X220707800Y-106932200D02*
X220707800Y-105818200D01*
X220707800Y-109726200D02*
X220707800Y-108612200D01*
X220747800Y-106932200D02*
X220747800Y-105804200D01*
X220747800Y-109740200D02*
X220747800Y-108612200D01*
X220787800Y-106932200D02*
X220787800Y-105791200D01*
X220787800Y-109753200D02*
X220787800Y-108612200D01*
X220827800Y-106932200D02*
X220827800Y-105779200D01*
X220827800Y-109765200D02*
X220827800Y-108612200D01*
X220867800Y-106932200D02*
X220867800Y-105767200D01*
X220867800Y-109777200D02*
X220867800Y-108612200D01*
X220907800Y-106932200D02*
X220907800Y-105757200D01*
X220907800Y-109787200D02*
X220907800Y-108612200D01*
X220947800Y-106932200D02*
X220947800Y-105747200D01*
X220947800Y-109797200D02*
X220947800Y-108612200D01*
X220987800Y-106932200D02*
X220987800Y-105738200D01*
X220987800Y-109806200D02*
X220987800Y-108612200D01*
X221027800Y-106932200D02*
X221027800Y-105730200D01*
X221027800Y-109814200D02*
X221027800Y-108612200D01*
X221067800Y-106932200D02*
X221067800Y-105723200D01*
X221067800Y-109821200D02*
X221067800Y-108612200D01*
X221107800Y-106932200D02*
X221107800Y-105716200D01*
X221107800Y-109828200D02*
X221107800Y-108612200D01*
X221147800Y-106932200D02*
X221147800Y-105711200D01*
X221147800Y-109833200D02*
X221147800Y-108612200D01*
X221187800Y-106932200D02*
X221187800Y-105706200D01*
X221187800Y-109838200D02*
X221187800Y-108612200D01*
X221227800Y-106932200D02*
X221227800Y-105701200D01*
X221227800Y-109843200D02*
X221227800Y-108612200D01*
X221267800Y-109846200D02*
X221267800Y-105698200D01*
X221307800Y-109849200D02*
X221307800Y-105695200D01*
X221347800Y-109850200D02*
X221347800Y-105694200D01*
X221387800Y-109852200D02*
X221387800Y-105692200D01*
X221427800Y-109852200D02*
X221427800Y-105692200D01*
X223497601Y-109167200D02*
X223497601Y-108767200D01*
X223697601Y-108967200D02*
X223297601Y-108967200D01*
X223547800Y-107772200D02*
G75*
G02*
X219307800Y-107772200I-2120000J0D01*
G01*
X219307800Y-107772200D02*
G75*
G02*
X223547800Y-107772200I2120000J0D01*
G01*
M02*
