G04 #@! TF.GenerationSoftware,KiCad,Pcbnew,9.0.6*
G04 #@! TF.CreationDate,2025-11-30T22:10:16+10:00*
G04 #@! TF.ProjectId,MARS_Micromouse,4d415253-5f4d-4696-9372-6f6d6f757365,rev?*
G04 #@! TF.SameCoordinates,Original*
G04 #@! TF.FileFunction,Soldermask,Top*
G04 #@! TF.FilePolarity,Negative*
%FSLAX46Y46*%
G04 Gerber Fmt 4.6, Leading zero omitted, Abs format (unit mm)*
G04 Created by KiCad (PCBNEW 9.0.6) date 2025-11-30 22:10:16*
%MOMM*%
%LPD*%
G01*
G04 APERTURE LIST*
G04 Aperture macros list*
%AMRoundRect*
0 Rectangle with rounded corners*
0 $1 Rounding radius*
0 $2 $3 $4 $5 $6 $7 $8 $9 X,Y pos of 4 corners*
0 Add a 4 corners polygon primitive as box body*
4,1,4,$2,$3,$4,$5,$6,$7,$8,$9,$2,$3,0*
0 Add four circle primitives for the rounded corners*
1,1,$1+$1,$2,$3*
1,1,$1+$1,$4,$5*
1,1,$1+$1,$6,$7*
1,1,$1+$1,$8,$9*
0 Add four rect primitives between the rounded corners*
20,1,$1+$1,$2,$3,$4,$5,0*
20,1,$1+$1,$4,$5,$6,$7,0*
20,1,$1+$1,$6,$7,$8,$9,0*
20,1,$1+$1,$8,$9,$2,$3,0*%
%AMFreePoly0*
4,1,37,0.800000,0.796148,0.878414,0.796148,1.032228,0.765552,1.177117,0.705537,1.307515,0.618408,1.418408,0.507515,1.505537,0.377117,1.565552,0.232228,1.596148,0.078414,1.596148,-0.078414,1.565552,-0.232228,1.505537,-0.377117,1.418408,-0.507515,1.307515,-0.618408,1.177117,-0.705537,1.032228,-0.765552,0.878414,-0.796148,0.800000,-0.796148,0.800000,-0.800000,-1.400000,-0.800000,
-1.403843,-0.796157,-1.439018,-0.796157,-1.511114,-0.766294,-1.566294,-0.711114,-1.596157,-0.639018,-1.596157,-0.603843,-1.600000,-0.600000,-1.600000,0.600000,-1.596157,0.603843,-1.596157,0.639018,-1.566294,0.711114,-1.511114,0.766294,-1.439018,0.796157,-1.403843,0.796157,-1.400000,0.800000,0.800000,0.800000,0.800000,0.796148,0.800000,0.796148,$1*%
%AMFreePoly1*
4,1,37,1.403843,0.796157,1.439018,0.796157,1.511114,0.766294,1.566294,0.711114,1.596157,0.639018,1.596157,0.603843,1.600000,0.600000,1.600000,-0.600000,1.596157,-0.603843,1.596157,-0.639018,1.566294,-0.711114,1.511114,-0.766294,1.439018,-0.796157,1.403843,-0.796157,1.400000,-0.800000,-0.800000,-0.800000,-0.800000,-0.796148,-0.878414,-0.796148,-1.032228,-0.765552,-1.177117,-0.705537,
-1.307515,-0.618408,-1.418408,-0.507515,-1.505537,-0.377117,-1.565552,-0.232228,-1.596148,-0.078414,-1.596148,0.078414,-1.565552,0.232228,-1.505537,0.377117,-1.418408,0.507515,-1.307515,0.618408,-1.177117,0.705537,-1.032228,0.765552,-0.878414,0.796148,-0.800000,0.796148,-0.800000,0.800000,1.400000,0.800000,1.403843,0.796157,1.403843,0.796157,$1*%
%AMFreePoly2*
4,1,37,0.603843,0.796157,0.639018,0.796157,0.711114,0.766294,0.766294,0.711114,0.796157,0.639018,0.796157,0.603843,0.800000,0.600000,0.800000,-0.600000,0.796157,-0.603843,0.796157,-0.639018,0.766294,-0.711114,0.711114,-0.766294,0.639018,-0.796157,0.603843,-0.796157,0.600000,-0.800000,0.000000,-0.800000,0.000000,-0.796148,-0.078414,-0.796148,-0.232228,-0.765552,-0.377117,-0.705537,
-0.507515,-0.618408,-0.618408,-0.507515,-0.705537,-0.377117,-0.765552,-0.232228,-0.796148,-0.078414,-0.796148,0.078414,-0.765552,0.232228,-0.705537,0.377117,-0.618408,0.507515,-0.507515,0.618408,-0.377117,0.705537,-0.232228,0.765552,-0.078414,0.796148,0.000000,0.796148,0.000000,0.800000,0.600000,0.800000,0.603843,0.796157,0.603843,0.796157,$1*%
%AMFreePoly3*
4,1,37,0.000000,0.796148,0.078414,0.796148,0.232228,0.765552,0.377117,0.705537,0.507515,0.618408,0.618408,0.507515,0.705537,0.377117,0.765552,0.232228,0.796148,0.078414,0.796148,-0.078414,0.765552,-0.232228,0.705537,-0.377117,0.618408,-0.507515,0.507515,-0.618408,0.377117,-0.705537,0.232228,-0.765552,0.078414,-0.796148,0.000000,-0.796148,0.000000,-0.800000,-0.600000,-0.800000,
-0.603843,-0.796157,-0.639018,-0.796157,-0.711114,-0.766294,-0.766294,-0.711114,-0.796157,-0.639018,-0.796157,-0.603843,-0.800000,-0.600000,-0.800000,0.600000,-0.796157,0.603843,-0.796157,0.639018,-0.766294,0.711114,-0.711114,0.766294,-0.639018,0.796157,-0.603843,0.796157,-0.600000,0.800000,0.000000,0.800000,0.000000,0.796148,0.000000,0.796148,$1*%
G04 Aperture macros list end*
%ADD10C,0.000000*%
%ADD11C,0.326465*%
%ADD12RoundRect,0.150000X0.150000X-0.587500X0.150000X0.587500X-0.150000X0.587500X-0.150000X-0.587500X0*%
%ADD13R,1.700000X1.700000*%
%ADD14C,1.700000*%
%ADD15C,2.000000*%
%ADD16RoundRect,0.250000X0.600000X0.725000X-0.600000X0.725000X-0.600000X-0.725000X0.600000X-0.725000X0*%
%ADD17O,1.700000X1.950000*%
%ADD18RoundRect,0.225000X0.225000X0.250000X-0.225000X0.250000X-0.225000X-0.250000X0.225000X-0.250000X0*%
%ADD19RoundRect,0.225000X0.250000X-0.225000X0.250000X0.225000X-0.250000X0.225000X-0.250000X-0.225000X0*%
%ADD20RoundRect,0.200000X-0.200000X-0.275000X0.200000X-0.275000X0.200000X0.275000X-0.200000X0.275000X0*%
%ADD21C,5.500000*%
%ADD22RoundRect,0.243750X-0.243750X-0.456250X0.243750X-0.456250X0.243750X0.456250X-0.243750X0.456250X0*%
%ADD23RoundRect,0.250000X-0.725000X0.600000X-0.725000X-0.600000X0.725000X-0.600000X0.725000X0.600000X0*%
%ADD24O,1.950000X1.700000*%
%ADD25RoundRect,0.087500X-0.087500X0.250000X-0.087500X-0.250000X0.087500X-0.250000X0.087500X0.250000X0*%
%ADD26C,2.800000*%
%ADD27RoundRect,0.250000X0.550000X-0.550000X0.550000X0.550000X-0.550000X0.550000X-0.550000X-0.550000X0*%
%ADD28C,1.600000*%
%ADD29RoundRect,0.250000X0.300000X-0.300000X0.300000X0.300000X-0.300000X0.300000X-0.300000X-0.300000X0*%
%ADD30RoundRect,0.200000X0.200000X0.275000X-0.200000X0.275000X-0.200000X-0.275000X0.200000X-0.275000X0*%
%ADD31C,2.200000*%
%ADD32C,1.850000*%
%ADD33FreePoly0,0.000000*%
%ADD34RoundRect,0.200000X-0.600000X-0.600000X0.600000X-0.600000X0.600000X0.600000X-0.600000X0.600000X0*%
%ADD35RoundRect,0.800000X-0.800000X-0.000010X0.800000X-0.000010X0.800000X0.000010X-0.800000X0.000010X0*%
%ADD36FreePoly1,0.000000*%
%ADD37FreePoly2,0.000000*%
%ADD38FreePoly3,0.000000*%
%ADD39RoundRect,0.087500X-0.250000X-0.087500X0.250000X-0.087500X0.250000X0.087500X-0.250000X0.087500X0*%
%ADD40RoundRect,0.250000X0.750000X-0.600000X0.750000X0.600000X-0.750000X0.600000X-0.750000X-0.600000X0*%
%ADD41O,2.000000X1.700000*%
%ADD42RoundRect,0.150000X-0.587500X-0.150000X0.587500X-0.150000X0.587500X0.150000X-0.587500X0.150000X0*%
%ADD43RoundRect,0.250000X0.350000X-0.350000X0.350000X0.350000X-0.350000X0.350000X-0.350000X-0.350000X0*%
%ADD44C,1.200000*%
%ADD45RoundRect,0.250000X-0.350000X0.350000X-0.350000X-0.350000X0.350000X-0.350000X0.350000X0.350000X0*%
%ADD46C,1.000000*%
%ADD47RoundRect,0.250000X0.350000X0.350000X-0.350000X0.350000X-0.350000X-0.350000X0.350000X-0.350000X0*%
G04 APERTURE END LIST*
D10*
G36*
X198606974Y-119074932D02*
G01*
X198653437Y-119076352D01*
X198698574Y-119078717D01*
X198742384Y-119082029D01*
X198784868Y-119086287D01*
X198826022Y-119091491D01*
X198865848Y-119097642D01*
X198904342Y-119104739D01*
X198942011Y-119112877D01*
X198979298Y-119122150D01*
X199016205Y-119132559D01*
X199052732Y-119144103D01*
X199088880Y-119156782D01*
X199124650Y-119170598D01*
X199160043Y-119185548D01*
X199195060Y-119201634D01*
X199195060Y-119670971D01*
X199161734Y-119654105D01*
X199128385Y-119638326D01*
X199095013Y-119623636D01*
X199061617Y-119610034D01*
X199028199Y-119597520D01*
X198994758Y-119586094D01*
X198961294Y-119575756D01*
X198927807Y-119566507D01*
X198894297Y-119558345D01*
X198860764Y-119551272D01*
X198827208Y-119545287D01*
X198793629Y-119540390D01*
X198760027Y-119536581D01*
X198726403Y-119533860D01*
X198692755Y-119532228D01*
X198659084Y-119531684D01*
X198641144Y-119531873D01*
X198623653Y-119532441D01*
X198606612Y-119533387D01*
X198590020Y-119534712D01*
X198573877Y-119536416D01*
X198558183Y-119538497D01*
X198542937Y-119540958D01*
X198528141Y-119543797D01*
X198513792Y-119547014D01*
X198499893Y-119550610D01*
X198486441Y-119554584D01*
X198473438Y-119558937D01*
X198460883Y-119563668D01*
X198448776Y-119568777D01*
X198437116Y-119574265D01*
X198425905Y-119580131D01*
X198415646Y-119585975D01*
X198406049Y-119592149D01*
X198397114Y-119598654D01*
X198388841Y-119605490D01*
X198384952Y-119609033D01*
X198381229Y-119612658D01*
X198377672Y-119616366D01*
X198374280Y-119620157D01*
X198371053Y-119624030D01*
X198367992Y-119627987D01*
X198365097Y-119632026D01*
X198362367Y-119636148D01*
X198359802Y-119640353D01*
X198357403Y-119644641D01*
X198355169Y-119649011D01*
X198353100Y-119653464D01*
X198351198Y-119658000D01*
X198349460Y-119662619D01*
X198347888Y-119667321D01*
X198346482Y-119672105D01*
X198345241Y-119676973D01*
X198344165Y-119681923D01*
X198343255Y-119686956D01*
X198342511Y-119692071D01*
X198341932Y-119697270D01*
X198341518Y-119702551D01*
X198341187Y-119713363D01*
X198341529Y-119724209D01*
X198342557Y-119734796D01*
X198344269Y-119745122D01*
X198346667Y-119755188D01*
X198349750Y-119764993D01*
X198353518Y-119774538D01*
X198357972Y-119783823D01*
X198363111Y-119792848D01*
X198368937Y-119801612D01*
X198375448Y-119810117D01*
X198382645Y-119818361D01*
X198390528Y-119826344D01*
X198399098Y-119834068D01*
X198408354Y-119841531D01*
X198418296Y-119848734D01*
X198428925Y-119855677D01*
X198453215Y-119869919D01*
X198482135Y-119885390D01*
X198515686Y-119902091D01*
X198553870Y-119920023D01*
X198596686Y-119939185D01*
X198644136Y-119959576D01*
X198696222Y-119981197D01*
X198752943Y-120004048D01*
X198805176Y-120025955D01*
X198854385Y-120047766D01*
X198900568Y-120069483D01*
X198943723Y-120091105D01*
X198983847Y-120112632D01*
X199020940Y-120134064D01*
X199054998Y-120155401D01*
X199086021Y-120176643D01*
X199100910Y-120187347D01*
X199115277Y-120198264D01*
X199129122Y-120209394D01*
X199142445Y-120220737D01*
X199155246Y-120232293D01*
X199167526Y-120244062D01*
X199179284Y-120256045D01*
X199190521Y-120268239D01*
X199201237Y-120280647D01*
X199211431Y-120293268D01*
X199221104Y-120306102D01*
X199230257Y-120319148D01*
X199238888Y-120332407D01*
X199247000Y-120345879D01*
X199254590Y-120359564D01*
X199261660Y-120373462D01*
X199268258Y-120387702D01*
X199274430Y-120402416D01*
X199280178Y-120417603D01*
X199285501Y-120433263D01*
X199290399Y-120449396D01*
X199294871Y-120466003D01*
X199298918Y-120483083D01*
X199302540Y-120500636D01*
X199305736Y-120518662D01*
X199308506Y-120537161D01*
X199310851Y-120556133D01*
X199312769Y-120575579D01*
X199314262Y-120595497D01*
X199315328Y-120615889D01*
X199315967Y-120636754D01*
X199316181Y-120658092D01*
X199315341Y-120694309D01*
X199312822Y-120729532D01*
X199308623Y-120763762D01*
X199302745Y-120796999D01*
X199295187Y-120829243D01*
X199285949Y-120860492D01*
X199275032Y-120890749D01*
X199262436Y-120920012D01*
X199248160Y-120948281D01*
X199232204Y-120975557D01*
X199214569Y-121001839D01*
X199195255Y-121027127D01*
X199174261Y-121051422D01*
X199151587Y-121074723D01*
X199127234Y-121097030D01*
X199101202Y-121118344D01*
X199073869Y-121138144D01*
X199044883Y-121156667D01*
X199014241Y-121173912D01*
X198981945Y-121189880D01*
X198947994Y-121204570D01*
X198912388Y-121217983D01*
X198875128Y-121230119D01*
X198836213Y-121240977D01*
X198795644Y-121250558D01*
X198753419Y-121258861D01*
X198709541Y-121265887D01*
X198664007Y-121271635D01*
X198616819Y-121276106D01*
X198567976Y-121279300D01*
X198517479Y-121281216D01*
X198465327Y-121281855D01*
X198415396Y-121281240D01*
X198365565Y-121279394D01*
X198315834Y-121276319D01*
X198266202Y-121272013D01*
X198216670Y-121266477D01*
X198167237Y-121259712D01*
X198117904Y-121251716D01*
X198068670Y-121242492D01*
X198020545Y-121232934D01*
X197974600Y-121222431D01*
X197930834Y-121210981D01*
X197889246Y-121198585D01*
X197849834Y-121185242D01*
X197812599Y-121170954D01*
X197777538Y-121155720D01*
X197744651Y-121139540D01*
X197744651Y-120658092D01*
X197785706Y-120678624D01*
X197827147Y-120697832D01*
X197868973Y-120715716D01*
X197911180Y-120732275D01*
X197953767Y-120747510D01*
X197996728Y-120761420D01*
X198040063Y-120774005D01*
X198083768Y-120785267D01*
X198128140Y-120795203D01*
X198171946Y-120803814D01*
X198215185Y-120811100D01*
X198257857Y-120817061D01*
X198299964Y-120821698D01*
X198341504Y-120825009D01*
X198382478Y-120826996D01*
X198422885Y-120827658D01*
X198441149Y-120827481D01*
X198458844Y-120826949D01*
X198475972Y-120826061D01*
X198492532Y-120824819D01*
X198508524Y-120823223D01*
X198523948Y-120821271D01*
X198538805Y-120818965D01*
X198553095Y-120816303D01*
X198566818Y-120813287D01*
X198579973Y-120809916D01*
X198592562Y-120806190D01*
X198604584Y-120802110D01*
X198616039Y-120797674D01*
X198626927Y-120792884D01*
X198637249Y-120787739D01*
X198647005Y-120782239D01*
X198656167Y-120776407D01*
X198664737Y-120770269D01*
X198668801Y-120767084D01*
X198672717Y-120763822D01*
X198676485Y-120760484D01*
X198680106Y-120757068D01*
X198683578Y-120753576D01*
X198686903Y-120750007D01*
X198690080Y-120746361D01*
X198693110Y-120742638D01*
X198695991Y-120738838D01*
X198698725Y-120734961D01*
X198701311Y-120731008D01*
X198703749Y-120726977D01*
X198706039Y-120722870D01*
X198708182Y-120718685D01*
X198710177Y-120714424D01*
X198712024Y-120710086D01*
X198713723Y-120705672D01*
X198715275Y-120701180D01*
X198716679Y-120696611D01*
X198717935Y-120691966D01*
X198719043Y-120687244D01*
X198720004Y-120682444D01*
X198720816Y-120677568D01*
X198721481Y-120672616D01*
X198721999Y-120667586D01*
X198722368Y-120662479D01*
X198722663Y-120652035D01*
X198722498Y-120644158D01*
X198722002Y-120636422D01*
X198721174Y-120628829D01*
X198720016Y-120621377D01*
X198718527Y-120614067D01*
X198716707Y-120606900D01*
X198714556Y-120599874D01*
X198712074Y-120592990D01*
X198709261Y-120586248D01*
X198706117Y-120579648D01*
X198702642Y-120573190D01*
X198698837Y-120566874D01*
X198694700Y-120560699D01*
X198690233Y-120554667D01*
X198685434Y-120548777D01*
X198680305Y-120543028D01*
X198675224Y-120537008D01*
X198669837Y-120531059D01*
X198664144Y-120525181D01*
X198658144Y-120519373D01*
X198651838Y-120513636D01*
X198645225Y-120507970D01*
X198638306Y-120502375D01*
X198631079Y-120496852D01*
X198623546Y-120491399D01*
X198615705Y-120486017D01*
X198607558Y-120480706D01*
X198599103Y-120475466D01*
X198590340Y-120470297D01*
X198581270Y-120465199D01*
X198571892Y-120460172D01*
X198562206Y-120455217D01*
X198541153Y-120444904D01*
X198517353Y-120433644D01*
X198490809Y-120421438D01*
X198461521Y-120408285D01*
X198394717Y-120379140D01*
X198316948Y-120346210D01*
X198280862Y-120330585D01*
X198246029Y-120314747D01*
X198212449Y-120298696D01*
X198180123Y-120282432D01*
X198149050Y-120265956D01*
X198119231Y-120249267D01*
X198090666Y-120232365D01*
X198063354Y-120215250D01*
X198037296Y-120197922D01*
X198012492Y-120180381D01*
X197988942Y-120162627D01*
X197966647Y-120144661D01*
X197945606Y-120126481D01*
X197925819Y-120108088D01*
X197907288Y-120089483D01*
X197890010Y-120070664D01*
X197873867Y-120051467D01*
X197858765Y-120031725D01*
X197844706Y-120011440D01*
X197831689Y-119990610D01*
X197819714Y-119969237D01*
X197808781Y-119947319D01*
X197798890Y-119924858D01*
X197790040Y-119901852D01*
X197782232Y-119878303D01*
X197775466Y-119854209D01*
X197769741Y-119829571D01*
X197765057Y-119804390D01*
X197761414Y-119778664D01*
X197758812Y-119752394D01*
X197757251Y-119725580D01*
X197756731Y-119698223D01*
X197757121Y-119675667D01*
X197758292Y-119653418D01*
X197760243Y-119631477D01*
X197762976Y-119609844D01*
X197766489Y-119588518D01*
X197770783Y-119567500D01*
X197775859Y-119546789D01*
X197781716Y-119526386D01*
X197788354Y-119506290D01*
X197795774Y-119486502D01*
X197803975Y-119467021D01*
X197812958Y-119447848D01*
X197822724Y-119428982D01*
X197833271Y-119410424D01*
X197844600Y-119392173D01*
X197856712Y-119374229D01*
X197869889Y-119356688D01*
X197883680Y-119339644D01*
X197898085Y-119323096D01*
X197913105Y-119307046D01*
X197928739Y-119291492D01*
X197944988Y-119276435D01*
X197961851Y-119261874D01*
X197979330Y-119247811D01*
X197997423Y-119234244D01*
X198016132Y-119221174D01*
X198035456Y-119208601D01*
X198055395Y-119196524D01*
X198075950Y-119184945D01*
X198097120Y-119173862D01*
X198118906Y-119163276D01*
X198141308Y-119153187D01*
X198164232Y-119143653D01*
X198187581Y-119134735D01*
X198211357Y-119126432D01*
X198235559Y-119118743D01*
X198260187Y-119111670D01*
X198285242Y-119105212D01*
X198310722Y-119099369D01*
X198336628Y-119094141D01*
X198362959Y-119089528D01*
X198389716Y-119085530D01*
X198416898Y-119082147D01*
X198444506Y-119079380D01*
X198472539Y-119077227D01*
X198500996Y-119075689D01*
X198529879Y-119074767D01*
X198559187Y-119074459D01*
X198606974Y-119074932D01*
G37*
D11*
X185678307Y-121309891D02*
X186281786Y-122524473D01*
D10*
G36*
X195099206Y-120852107D02*
G01*
X195109108Y-120852781D01*
X195118795Y-120853905D01*
X195128269Y-120855478D01*
X195137530Y-120857501D01*
X195146578Y-120859973D01*
X195155413Y-120862895D01*
X195164035Y-120866266D01*
X195172445Y-120870086D01*
X195180643Y-120874356D01*
X195188629Y-120879076D01*
X195196404Y-120884245D01*
X195203967Y-120889863D01*
X195211319Y-120895930D01*
X195218460Y-120902447D01*
X195225391Y-120909414D01*
X195232358Y-120916699D01*
X195238876Y-120924174D01*
X195244945Y-120931839D01*
X195250564Y-120939692D01*
X195255734Y-120947735D01*
X195260454Y-120955968D01*
X195264724Y-120964389D01*
X195268545Y-120973000D01*
X195271916Y-120981800D01*
X195274838Y-120990790D01*
X195277311Y-120999969D01*
X195279334Y-121009336D01*
X195280907Y-121018894D01*
X195282031Y-121028640D01*
X195282705Y-121038576D01*
X195282930Y-121048701D01*
X195282705Y-121058447D01*
X195282031Y-121068005D01*
X195280907Y-121077373D01*
X195279334Y-121086552D01*
X195277311Y-121095541D01*
X195274838Y-121104341D01*
X195271916Y-121112952D01*
X195268545Y-121121373D01*
X195264724Y-121129605D01*
X195260454Y-121137648D01*
X195255734Y-121145502D01*
X195250564Y-121153166D01*
X195244945Y-121160641D01*
X195238876Y-121167927D01*
X195232358Y-121175024D01*
X195225391Y-121181932D01*
X195218460Y-121188532D01*
X195211319Y-121194706D01*
X195203967Y-121200454D01*
X195196404Y-121205777D01*
X195188629Y-121210674D01*
X195180643Y-121215145D01*
X195172445Y-121219190D01*
X195164035Y-121222809D01*
X195155413Y-121226003D01*
X195146578Y-121228771D01*
X195137530Y-121231113D01*
X195128269Y-121233029D01*
X195118795Y-121234519D01*
X195109108Y-121235584D01*
X195099206Y-121236223D01*
X195089091Y-121236435D01*
X195079334Y-121236223D01*
X195069744Y-121235584D01*
X195060319Y-121234519D01*
X195051061Y-121233029D01*
X195041969Y-121231113D01*
X195033043Y-121228771D01*
X195024282Y-121226003D01*
X195015687Y-121222809D01*
X195007257Y-121219190D01*
X194998993Y-121215145D01*
X194990894Y-121210674D01*
X194982960Y-121205777D01*
X194975191Y-121200454D01*
X194967587Y-121194706D01*
X194960148Y-121188532D01*
X194952873Y-121181932D01*
X194946262Y-121175024D01*
X194940079Y-121167927D01*
X194934324Y-121160641D01*
X194928997Y-121153166D01*
X194924098Y-121145502D01*
X194919626Y-121137648D01*
X194915581Y-121129605D01*
X194911962Y-121121373D01*
X194908771Y-121112952D01*
X194906005Y-121104341D01*
X194903666Y-121095541D01*
X194901753Y-121086552D01*
X194900265Y-121077373D01*
X194899203Y-121068005D01*
X194898566Y-121058447D01*
X194898353Y-121048701D01*
X194898566Y-121038576D01*
X194899203Y-121028640D01*
X194900265Y-121018894D01*
X194901753Y-121009337D01*
X194903666Y-120999969D01*
X194906005Y-120990790D01*
X194908771Y-120981800D01*
X194911962Y-120973000D01*
X194915581Y-120964389D01*
X194919626Y-120955968D01*
X194924098Y-120947735D01*
X194928997Y-120939692D01*
X194934324Y-120931839D01*
X194940079Y-120924174D01*
X194946262Y-120916699D01*
X194952873Y-120909414D01*
X194960148Y-120902447D01*
X194967587Y-120895930D01*
X194975191Y-120889863D01*
X194982960Y-120884245D01*
X194990894Y-120879076D01*
X194998993Y-120874356D01*
X195007257Y-120870086D01*
X195015687Y-120866266D01*
X195024282Y-120862895D01*
X195033043Y-120859973D01*
X195041969Y-120857501D01*
X195051061Y-120855478D01*
X195060319Y-120853905D01*
X195069744Y-120852781D01*
X195079334Y-120852107D01*
X195089091Y-120851882D01*
X195099206Y-120852107D01*
G37*
G36*
X185000000Y-119500000D02*
G01*
X184985376Y-119521206D01*
X184971513Y-119542858D01*
X184958419Y-119564938D01*
X184946101Y-119587422D01*
X184934566Y-119610290D01*
X184923823Y-119633522D01*
X184913879Y-119657095D01*
X184904742Y-119680988D01*
X184896419Y-119705181D01*
X184888919Y-119729653D01*
X184882249Y-119754382D01*
X184876416Y-119779346D01*
X184871428Y-119804526D01*
X184867294Y-119829899D01*
X184864019Y-119855445D01*
X184861614Y-119881142D01*
X184860087Y-119906907D01*
X184859440Y-119932656D01*
X184859671Y-119958368D01*
X184860774Y-119984019D01*
X184862745Y-120009588D01*
X184865580Y-120035052D01*
X184869274Y-120060390D01*
X184873822Y-120085580D01*
X184879221Y-120110600D01*
X184885467Y-120135426D01*
X184892554Y-120160038D01*
X184900478Y-120184413D01*
X184909235Y-120208530D01*
X184918821Y-120232365D01*
X184929231Y-120255897D01*
X184940460Y-120279105D01*
X184952476Y-120301909D01*
X184965235Y-120324238D01*
X184978724Y-120346075D01*
X184992926Y-120367404D01*
X185007827Y-120388209D01*
X185023412Y-120408473D01*
X185039665Y-120428178D01*
X185056572Y-120447310D01*
X185074117Y-120465850D01*
X185092284Y-120483782D01*
X185111060Y-120501091D01*
X185130428Y-120517759D01*
X185150374Y-120533769D01*
X185170882Y-120549106D01*
X185191938Y-120563752D01*
X185213525Y-120577691D01*
X185235574Y-120590877D01*
X185258013Y-120603268D01*
X185280821Y-120614857D01*
X185303976Y-120625638D01*
X185327457Y-120635606D01*
X185351241Y-120644753D01*
X185375308Y-120653074D01*
X185399637Y-120660562D01*
X185424205Y-120667212D01*
X185448991Y-120673017D01*
X185473973Y-120677970D01*
X185499131Y-120682066D01*
X185524442Y-120685298D01*
X185549885Y-120687660D01*
X185575439Y-120689147D01*
X185601082Y-120689751D01*
X185626729Y-120689468D01*
X185652298Y-120688301D01*
X185677767Y-120686258D01*
X185703116Y-120683342D01*
X185728322Y-120679562D01*
X185753364Y-120674922D01*
X185778220Y-120669428D01*
X185802868Y-120663086D01*
X185827287Y-120655903D01*
X185851456Y-120647885D01*
X185875352Y-120639036D01*
X185898955Y-120629364D01*
X185922242Y-120618874D01*
X185945191Y-120607571D01*
X185967783Y-120595463D01*
X185989994Y-120582555D01*
X186011752Y-120568887D01*
X186032987Y-120554505D01*
X186053683Y-120539426D01*
X186073826Y-120523666D01*
X186093399Y-120507242D01*
X186112387Y-120490169D01*
X186130775Y-120472465D01*
X186148547Y-120454146D01*
X186165689Y-120435227D01*
X186182185Y-120415726D01*
X186198019Y-120395659D01*
X186213176Y-120375043D01*
X186227642Y-120353892D01*
X186241399Y-120332225D01*
X186254434Y-120310057D01*
X186266731Y-120287405D01*
X186278247Y-120264343D01*
X186288948Y-120240944D01*
X186298828Y-120217233D01*
X186307882Y-120193229D01*
X186316107Y-120168956D01*
X186323498Y-120144436D01*
X186330049Y-120119690D01*
X186335757Y-120094741D01*
X186340617Y-120069610D01*
X186344624Y-120044320D01*
X186347773Y-120018893D01*
X186350060Y-119993351D01*
X186351480Y-119967716D01*
X186352029Y-119942009D01*
X186351702Y-119916253D01*
X186350494Y-119890471D01*
X186348407Y-119864745D01*
X186345450Y-119839160D01*
X186341629Y-119813736D01*
X186336954Y-119788496D01*
X186331430Y-119763459D01*
X186325066Y-119738648D01*
X186317869Y-119714084D01*
X186309846Y-119689788D01*
X186301005Y-119665781D01*
X186291353Y-119642084D01*
X186280898Y-119618719D01*
X186269647Y-119595707D01*
X186257607Y-119573070D01*
X186244786Y-119550828D01*
X186231192Y-119529002D01*
X186216831Y-119507615D01*
X186661650Y-119193815D01*
X186686462Y-119230769D01*
X186709951Y-119268480D01*
X186732103Y-119306911D01*
X186752906Y-119346025D01*
X186772346Y-119385787D01*
X186790411Y-119426158D01*
X186807088Y-119467102D01*
X186822364Y-119508583D01*
X186836226Y-119550564D01*
X186848661Y-119593008D01*
X186859658Y-119635879D01*
X186869202Y-119679139D01*
X186877281Y-119722752D01*
X186883882Y-119766682D01*
X186888993Y-119810891D01*
X186892600Y-119855343D01*
X186894689Y-119899892D01*
X186895256Y-119944394D01*
X186894308Y-119988812D01*
X186891855Y-120033107D01*
X186887904Y-120077241D01*
X186882462Y-120121175D01*
X186875539Y-120164873D01*
X186867142Y-120208296D01*
X186857279Y-120251406D01*
X186845958Y-120294165D01*
X186833188Y-120336534D01*
X186818975Y-120378476D01*
X186803329Y-120419952D01*
X186786258Y-120460925D01*
X186767768Y-120501357D01*
X186747869Y-120541209D01*
X186726623Y-120580349D01*
X186704101Y-120618652D01*
X186680330Y-120656091D01*
X186655336Y-120692636D01*
X186629146Y-120728259D01*
X186601786Y-120762932D01*
X186573283Y-120796627D01*
X186543664Y-120829315D01*
X186512955Y-120860969D01*
X186481183Y-120891559D01*
X186448373Y-120921058D01*
X186414553Y-120949437D01*
X186379750Y-120976668D01*
X186343989Y-121002723D01*
X186307298Y-121027573D01*
X186269702Y-121051190D01*
X186231324Y-121073494D01*
X186192288Y-121094415D01*
X186152634Y-121113944D01*
X186112397Y-121132071D01*
X186071614Y-121148784D01*
X186030324Y-121164073D01*
X185988564Y-121177929D01*
X185946371Y-121190341D01*
X185903781Y-121201298D01*
X185860833Y-121210791D01*
X185817564Y-121218808D01*
X185774011Y-121225341D01*
X185730211Y-121230377D01*
X185686201Y-121233908D01*
X185642020Y-121235923D01*
X185597703Y-121236411D01*
X185553396Y-121235367D01*
X185509243Y-121232798D01*
X185465280Y-121228715D01*
X185421546Y-121223130D01*
X185378076Y-121216053D01*
X185334909Y-121207494D01*
X185292081Y-121197465D01*
X185249630Y-121185975D01*
X185207592Y-121173037D01*
X185166006Y-121158660D01*
X185124908Y-121142855D01*
X185084335Y-121125634D01*
X185044324Y-121107006D01*
X185004913Y-121086982D01*
X184966139Y-121065574D01*
X184928039Y-121042792D01*
X184890739Y-121018704D01*
X184854358Y-120993396D01*
X184818923Y-120966894D01*
X184784460Y-120939228D01*
X184750994Y-120910427D01*
X184718553Y-120880519D01*
X184687161Y-120849533D01*
X184656846Y-120817497D01*
X184627634Y-120784440D01*
X184599550Y-120750391D01*
X184572621Y-120715377D01*
X184546874Y-120679428D01*
X184522333Y-120642573D01*
X184499027Y-120604839D01*
X184476980Y-120566256D01*
X184456218Y-120526852D01*
X184436814Y-120486755D01*
X184418827Y-120446095D01*
X184402264Y-120404912D01*
X184387133Y-120363243D01*
X184373441Y-120321127D01*
X184361195Y-120278601D01*
X184350404Y-120235704D01*
X184341075Y-120192474D01*
X184333216Y-120148949D01*
X184326833Y-120105167D01*
X184321935Y-120061167D01*
X184318530Y-120016986D01*
X184316624Y-119972663D01*
X184316225Y-119928236D01*
X184317341Y-119883744D01*
X184319980Y-119839223D01*
X184324137Y-119794821D01*
X184329794Y-119750680D01*
X184336938Y-119706837D01*
X184345556Y-119663329D01*
X184355635Y-119620192D01*
X184367161Y-119577463D01*
X184380120Y-119535179D01*
X184394501Y-119493375D01*
X184410289Y-119452089D01*
X184427471Y-119411357D01*
X184446033Y-119371215D01*
X184465964Y-119331701D01*
X184487248Y-119292850D01*
X184509874Y-119254700D01*
X184533827Y-119217286D01*
X184559095Y-119180646D01*
X185000000Y-119500000D01*
G37*
G36*
X194806861Y-121236435D02*
G01*
X194258804Y-121236435D01*
X194089286Y-120800407D01*
X193308052Y-120800407D01*
X193138452Y-121236435D01*
X192587377Y-121236435D01*
X192926996Y-120388602D01*
X193438230Y-120388602D01*
X193956007Y-120388602D01*
X193698669Y-119677027D01*
X193438230Y-120388602D01*
X192926996Y-120388602D01*
X193435211Y-119119879D01*
X193962046Y-119119879D01*
X194806861Y-121236435D01*
G37*
G36*
X197470824Y-120852107D02*
G01*
X197480728Y-120852781D01*
X197490419Y-120853905D01*
X197499898Y-120855478D01*
X197509163Y-120857501D01*
X197518216Y-120859973D01*
X197527056Y-120862895D01*
X197535683Y-120866266D01*
X197544096Y-120870086D01*
X197552296Y-120874356D01*
X197560282Y-120879076D01*
X197568055Y-120884245D01*
X197575614Y-120889863D01*
X197582959Y-120895930D01*
X197590090Y-120902447D01*
X197597007Y-120909414D01*
X197603975Y-120916699D01*
X197610493Y-120924174D01*
X197616562Y-120931839D01*
X197622181Y-120939692D01*
X197627350Y-120947735D01*
X197632070Y-120955968D01*
X197636341Y-120964389D01*
X197640162Y-120973000D01*
X197643533Y-120981800D01*
X197646455Y-120990790D01*
X197648927Y-120999969D01*
X197650950Y-121009336D01*
X197652523Y-121018894D01*
X197653647Y-121028640D01*
X197654322Y-121038576D01*
X197654546Y-121048701D01*
X197654322Y-121058447D01*
X197653647Y-121068005D01*
X197652523Y-121077373D01*
X197650950Y-121086552D01*
X197648927Y-121095541D01*
X197646455Y-121104341D01*
X197643533Y-121112952D01*
X197640162Y-121121373D01*
X197636341Y-121129605D01*
X197632070Y-121137648D01*
X197627350Y-121145502D01*
X197622181Y-121153166D01*
X197616562Y-121160641D01*
X197610493Y-121167927D01*
X197603975Y-121175024D01*
X197597007Y-121181932D01*
X197590090Y-121188532D01*
X197582959Y-121194706D01*
X197575614Y-121200454D01*
X197568055Y-121205777D01*
X197560282Y-121210674D01*
X197552296Y-121215145D01*
X197544096Y-121219190D01*
X197535683Y-121222809D01*
X197527056Y-121226003D01*
X197518216Y-121228771D01*
X197509163Y-121231113D01*
X197499898Y-121233029D01*
X197490419Y-121234519D01*
X197480728Y-121235584D01*
X197470824Y-121236223D01*
X197460707Y-121236435D01*
X197450950Y-121236223D01*
X197441360Y-121235584D01*
X197431936Y-121234519D01*
X197422678Y-121233029D01*
X197413585Y-121231113D01*
X197404659Y-121228771D01*
X197395898Y-121226003D01*
X197387303Y-121222809D01*
X197378874Y-121219190D01*
X197370609Y-121215145D01*
X197362510Y-121210674D01*
X197354576Y-121205777D01*
X197346807Y-121200454D01*
X197339203Y-121194706D01*
X197331764Y-121188532D01*
X197324489Y-121181932D01*
X197317892Y-121175024D01*
X197311719Y-121167927D01*
X197305971Y-121160641D01*
X197300648Y-121153166D01*
X197295750Y-121145502D01*
X197291278Y-121137648D01*
X197287231Y-121129605D01*
X197283609Y-121121373D01*
X197280414Y-121112952D01*
X197277643Y-121104341D01*
X197275299Y-121095541D01*
X197273381Y-121086552D01*
X197271889Y-121077373D01*
X197270822Y-121068005D01*
X197270183Y-121058447D01*
X197269970Y-121048701D01*
X197270183Y-121038576D01*
X197270822Y-121028640D01*
X197271889Y-121018894D01*
X197273381Y-121009337D01*
X197275299Y-120999969D01*
X197277643Y-120990790D01*
X197280414Y-120981800D01*
X197283609Y-120973000D01*
X197287231Y-120964389D01*
X197291278Y-120955968D01*
X197295750Y-120947735D01*
X197300648Y-120939692D01*
X197305971Y-120931839D01*
X197311719Y-120924174D01*
X197317892Y-120916699D01*
X197324489Y-120909414D01*
X197331764Y-120902447D01*
X197339203Y-120895930D01*
X197346807Y-120889863D01*
X197354576Y-120884245D01*
X197362510Y-120879076D01*
X197370609Y-120874356D01*
X197378874Y-120870086D01*
X197387303Y-120866266D01*
X197395898Y-120862895D01*
X197404659Y-120859973D01*
X197413585Y-120857501D01*
X197422678Y-120855478D01*
X197431936Y-120853905D01*
X197441360Y-120852781D01*
X197450950Y-120852107D01*
X197460707Y-120851882D01*
X197470824Y-120852107D01*
G37*
G36*
X185767745Y-120867295D02*
G01*
X185787053Y-120868606D01*
X185806220Y-120870845D01*
X185825213Y-120873999D01*
X185843999Y-120878054D01*
X185862545Y-120882998D01*
X185880817Y-120888817D01*
X185898784Y-120895498D01*
X185916412Y-120903028D01*
X185933668Y-120911394D01*
X185950519Y-120920582D01*
X185966932Y-120930580D01*
X185982875Y-120941374D01*
X185998313Y-120952951D01*
X186013215Y-120965299D01*
X186027548Y-120978403D01*
X186041277Y-120992251D01*
X186054371Y-121006829D01*
X186066796Y-121022125D01*
X186078520Y-121038124D01*
X186089509Y-121054815D01*
X186099731Y-121072184D01*
X186109152Y-121090217D01*
X186117740Y-121108902D01*
X186125373Y-121127997D01*
X186131959Y-121147247D01*
X186137512Y-121166620D01*
X186142044Y-121186083D01*
X186145570Y-121205602D01*
X186148103Y-121225145D01*
X186149654Y-121244679D01*
X186150239Y-121264171D01*
X186149869Y-121283587D01*
X186148558Y-121302895D01*
X186146319Y-121322062D01*
X186143165Y-121341055D01*
X186139110Y-121359841D01*
X186134166Y-121378387D01*
X186128347Y-121396660D01*
X186121666Y-121414627D01*
X186114136Y-121432254D01*
X186105770Y-121449510D01*
X186096582Y-121466362D01*
X186086584Y-121482775D01*
X186075790Y-121498717D01*
X186064212Y-121514156D01*
X186051865Y-121529058D01*
X186038761Y-121543390D01*
X186024913Y-121557120D01*
X186010335Y-121570214D01*
X185995039Y-121582639D01*
X185979039Y-121594363D01*
X185962349Y-121605352D01*
X185944980Y-121615574D01*
X185926947Y-121624995D01*
X185908262Y-121633583D01*
X185889167Y-121641215D01*
X185869916Y-121647801D01*
X185850543Y-121653354D01*
X185831081Y-121657887D01*
X185811561Y-121661413D01*
X185792018Y-121663945D01*
X185772484Y-121665497D01*
X185752993Y-121666081D01*
X185733576Y-121665711D01*
X185714268Y-121664400D01*
X185695101Y-121662161D01*
X185676108Y-121659008D01*
X185657323Y-121654952D01*
X185638777Y-121650009D01*
X185620504Y-121644190D01*
X185602537Y-121637508D01*
X185584909Y-121629978D01*
X185567653Y-121621613D01*
X185550802Y-121612424D01*
X185534389Y-121602426D01*
X185518446Y-121591632D01*
X185503008Y-121580055D01*
X185488106Y-121567707D01*
X185473773Y-121554603D01*
X185460044Y-121540755D01*
X185446950Y-121526177D01*
X185434525Y-121510881D01*
X185422801Y-121494882D01*
X185411812Y-121478191D01*
X185401590Y-121460822D01*
X185392169Y-121442789D01*
X185383581Y-121424104D01*
X185375949Y-121405009D01*
X185369362Y-121385759D01*
X185363810Y-121366386D01*
X185359277Y-121346923D01*
X185355751Y-121327404D01*
X185353218Y-121307861D01*
X185351667Y-121288327D01*
X185351082Y-121268835D01*
X185351452Y-121249419D01*
X185352763Y-121230111D01*
X185355002Y-121210944D01*
X185358156Y-121191951D01*
X185362211Y-121173165D01*
X185367155Y-121154619D01*
X185372974Y-121136346D01*
X185379655Y-121118379D01*
X185387185Y-121100752D01*
X185395551Y-121083496D01*
X185404740Y-121066645D01*
X185414738Y-121050231D01*
X185425532Y-121034289D01*
X185437109Y-121018850D01*
X185449456Y-121003948D01*
X185462561Y-120989616D01*
X185476408Y-120975886D01*
X185490987Y-120962793D01*
X185506282Y-120950367D01*
X185522282Y-120938643D01*
X185538973Y-120927654D01*
X185556341Y-120917433D01*
X185574375Y-120908011D01*
X185593059Y-120899424D01*
X185612154Y-120891791D01*
X185631405Y-120885205D01*
X185650778Y-120879652D01*
X185670241Y-120875119D01*
X185689760Y-120871593D01*
X185709303Y-120869061D01*
X185728837Y-120867509D01*
X185748329Y-120866925D01*
X185767745Y-120867295D01*
G37*
G36*
X187772462Y-122436734D02*
G01*
X187793149Y-122438307D01*
X187813534Y-122440897D01*
X187833594Y-122444479D01*
X187853301Y-122449028D01*
X187872631Y-122454517D01*
X187891557Y-122460921D01*
X187910055Y-122468214D01*
X187928098Y-122476371D01*
X187945662Y-122485367D01*
X187962720Y-122495175D01*
X187979247Y-122505770D01*
X187995217Y-122517127D01*
X188010605Y-122529220D01*
X188025385Y-122542022D01*
X188039532Y-122555510D01*
X188053019Y-122569656D01*
X188065822Y-122584436D01*
X188077915Y-122599824D01*
X188089271Y-122615795D01*
X188099867Y-122632322D01*
X188109675Y-122649380D01*
X188118670Y-122666943D01*
X188126828Y-122684987D01*
X188134121Y-122703485D01*
X188140525Y-122722411D01*
X188146014Y-122741741D01*
X188150563Y-122761448D01*
X188154145Y-122781507D01*
X188156735Y-122801893D01*
X188158308Y-122822579D01*
X188158838Y-122843541D01*
X188158308Y-122864502D01*
X188156735Y-122885189D01*
X188154145Y-122905574D01*
X188150563Y-122925633D01*
X188146014Y-122945341D01*
X188140525Y-122964670D01*
X188134121Y-122983597D01*
X188126828Y-123002095D01*
X188118670Y-123020138D01*
X188109675Y-123037702D01*
X188099867Y-123054760D01*
X188089271Y-123071287D01*
X188077915Y-123087257D01*
X188065822Y-123102645D01*
X188053019Y-123117425D01*
X188039532Y-123131571D01*
X188025385Y-123145059D01*
X188010605Y-123157862D01*
X187995217Y-123169954D01*
X187979247Y-123181311D01*
X187962720Y-123191906D01*
X187945662Y-123201714D01*
X187928098Y-123210710D01*
X187910055Y-123218867D01*
X187891557Y-123226160D01*
X187872631Y-123232564D01*
X187853301Y-123238053D01*
X187833594Y-123242602D01*
X187813534Y-123246184D01*
X187793149Y-123248774D01*
X187772462Y-123250347D01*
X187751501Y-123250877D01*
X187730539Y-123250347D01*
X187709853Y-123248774D01*
X187689467Y-123246184D01*
X187669408Y-123242602D01*
X187649701Y-123238053D01*
X187630371Y-123232564D01*
X187611445Y-123226160D01*
X187592947Y-123218867D01*
X187574903Y-123210710D01*
X187557340Y-123201714D01*
X187540282Y-123191906D01*
X187523755Y-123181311D01*
X187507785Y-123169954D01*
X187492397Y-123157862D01*
X187477617Y-123145059D01*
X187463470Y-123131571D01*
X187449983Y-123117425D01*
X187437180Y-123102645D01*
X187425087Y-123087257D01*
X187413731Y-123071287D01*
X187403135Y-123054760D01*
X187393327Y-123037702D01*
X187384332Y-123020138D01*
X187376174Y-123002095D01*
X187368881Y-122983597D01*
X187362477Y-122964670D01*
X187356988Y-122945341D01*
X187352439Y-122925633D01*
X187348857Y-122905574D01*
X187346267Y-122885189D01*
X187344694Y-122864502D01*
X187344164Y-122843541D01*
X187344694Y-122822579D01*
X187346267Y-122801893D01*
X187348857Y-122781507D01*
X187352439Y-122761448D01*
X187356988Y-122741741D01*
X187362477Y-122722411D01*
X187368881Y-122703485D01*
X187376174Y-122684987D01*
X187384332Y-122666943D01*
X187393327Y-122649380D01*
X187403135Y-122632322D01*
X187413731Y-122615795D01*
X187425087Y-122599824D01*
X187437180Y-122584436D01*
X187449983Y-122569656D01*
X187463470Y-122555510D01*
X187477617Y-122542022D01*
X187492397Y-122529220D01*
X187507785Y-122517127D01*
X187523755Y-122505770D01*
X187540282Y-122495175D01*
X187557340Y-122485367D01*
X187574903Y-122476371D01*
X187592947Y-122468214D01*
X187611445Y-122460921D01*
X187630371Y-122454517D01*
X187649701Y-122449028D01*
X187669408Y-122444479D01*
X187689467Y-122440897D01*
X187709853Y-122438307D01*
X187730539Y-122436734D01*
X187751501Y-122436203D01*
X187772462Y-122436734D01*
G37*
G36*
X186261510Y-122037198D02*
G01*
X186281054Y-122038619D01*
X186300409Y-122040990D01*
X186319546Y-122044293D01*
X186338434Y-122048509D01*
X186357042Y-122053622D01*
X186375339Y-122059613D01*
X186393295Y-122066463D01*
X186410880Y-122074155D01*
X186428062Y-122082671D01*
X186444811Y-122091994D01*
X186461097Y-122102104D01*
X186476889Y-122112983D01*
X186492157Y-122124615D01*
X186506869Y-122136981D01*
X186520995Y-122150063D01*
X186534504Y-122163842D01*
X186547367Y-122178302D01*
X186559552Y-122193423D01*
X186571029Y-122209188D01*
X186581767Y-122225579D01*
X186591735Y-122242579D01*
X186600904Y-122260168D01*
X186609242Y-122278329D01*
X186616718Y-122297044D01*
X186623303Y-122316295D01*
X186628966Y-122336063D01*
X186633622Y-122356093D01*
X186637220Y-122376119D01*
X186639779Y-122396109D01*
X186641315Y-122416033D01*
X186641848Y-122435861D01*
X186641395Y-122455563D01*
X186639974Y-122475106D01*
X186637603Y-122494462D01*
X186634300Y-122513599D01*
X186630083Y-122532487D01*
X186624971Y-122551095D01*
X186618980Y-122569392D01*
X186612130Y-122587348D01*
X186604437Y-122604933D01*
X186595921Y-122622115D01*
X186586599Y-122638864D01*
X186576489Y-122655150D01*
X186565609Y-122670942D01*
X186553978Y-122686209D01*
X186541612Y-122700921D01*
X186528530Y-122715048D01*
X186514751Y-122728557D01*
X186500291Y-122741420D01*
X186485170Y-122753605D01*
X186469404Y-122765082D01*
X186453013Y-122775820D01*
X186436014Y-122785788D01*
X186418425Y-122794957D01*
X186400264Y-122803295D01*
X186381549Y-122810772D01*
X186362298Y-122817357D01*
X186342529Y-122823019D01*
X186322499Y-122827675D01*
X186302474Y-122831273D01*
X186282484Y-122833832D01*
X186262560Y-122835368D01*
X186242731Y-122835901D01*
X186223030Y-122835448D01*
X186203486Y-122834027D01*
X186184131Y-122831656D01*
X186164994Y-122828353D01*
X186146106Y-122824136D01*
X186127498Y-122819023D01*
X186109201Y-122813033D01*
X186091245Y-122806183D01*
X186073660Y-122798490D01*
X186056478Y-122789974D01*
X186039729Y-122780652D01*
X186023443Y-122770542D01*
X186007651Y-122759662D01*
X185992384Y-122748030D01*
X185977672Y-122735664D01*
X185963545Y-122722583D01*
X185950036Y-122708803D01*
X185937173Y-122694344D01*
X185924988Y-122679222D01*
X185913511Y-122663457D01*
X185902773Y-122647066D01*
X185892805Y-122630067D01*
X185883636Y-122612478D01*
X185875298Y-122594317D01*
X185867821Y-122575602D01*
X185861237Y-122556351D01*
X185855574Y-122536582D01*
X185850918Y-122516552D01*
X185847320Y-122496527D01*
X185844761Y-122476537D01*
X185843225Y-122456612D01*
X185842692Y-122436784D01*
X185843145Y-122417083D01*
X185844566Y-122397539D01*
X185846937Y-122378183D01*
X185850240Y-122359046D01*
X185854457Y-122340159D01*
X185859570Y-122321551D01*
X185865560Y-122303254D01*
X185872410Y-122285298D01*
X185880103Y-122267713D01*
X185888619Y-122250531D01*
X185897941Y-122233781D01*
X185908051Y-122217495D01*
X185918931Y-122201703D01*
X185930563Y-122186436D01*
X185942928Y-122171724D01*
X185956010Y-122157598D01*
X185969790Y-122144088D01*
X185984249Y-122131226D01*
X185999370Y-122119041D01*
X186015136Y-122107564D01*
X186031527Y-122096826D01*
X186048526Y-122086857D01*
X186066115Y-122077689D01*
X186084276Y-122069351D01*
X186102991Y-122061874D01*
X186122242Y-122055289D01*
X186142011Y-122049627D01*
X186162041Y-122044971D01*
X186182066Y-122041372D01*
X186202056Y-122038814D01*
X186221981Y-122037277D01*
X186241809Y-122036745D01*
X186261510Y-122037198D01*
G37*
G36*
X190834962Y-120430993D02*
G01*
X191449641Y-119119879D01*
X191961370Y-119119879D01*
X191961370Y-121236435D01*
X191461753Y-121236435D01*
X191461753Y-120173615D01*
X190956081Y-121236435D01*
X190713842Y-121236435D01*
X190211198Y-120173615D01*
X190211198Y-121236435D01*
X189708554Y-121236435D01*
X189708554Y-119119879D01*
X190223310Y-119119879D01*
X190834962Y-120430993D01*
G37*
G36*
X192313595Y-120852107D02*
G01*
X192323495Y-120852781D01*
X192333182Y-120853905D01*
X192342656Y-120855478D01*
X192351918Y-120857501D01*
X192360966Y-120859973D01*
X192369801Y-120862895D01*
X192378424Y-120866266D01*
X192386834Y-120870086D01*
X192395031Y-120874356D01*
X192403015Y-120879076D01*
X192410786Y-120884245D01*
X192418344Y-120889863D01*
X192425689Y-120895930D01*
X192432821Y-120902447D01*
X192439741Y-120909414D01*
X192446707Y-120916699D01*
X192453224Y-120924174D01*
X192459291Y-120931839D01*
X192464909Y-120939692D01*
X192470078Y-120947735D01*
X192474797Y-120955968D01*
X192479067Y-120964389D01*
X192482888Y-120973000D01*
X192486259Y-120981800D01*
X192489181Y-120990790D01*
X192491653Y-120999969D01*
X192493676Y-121009336D01*
X192495249Y-121018894D01*
X192496373Y-121028640D01*
X192497047Y-121038576D01*
X192497272Y-121048701D01*
X192497047Y-121058447D01*
X192496373Y-121068005D01*
X192495249Y-121077373D01*
X192493676Y-121086552D01*
X192491653Y-121095541D01*
X192489181Y-121104341D01*
X192486259Y-121112952D01*
X192482888Y-121121373D01*
X192479067Y-121129605D01*
X192474797Y-121137648D01*
X192470078Y-121145502D01*
X192464909Y-121153166D01*
X192459291Y-121160641D01*
X192453224Y-121167927D01*
X192446707Y-121175024D01*
X192439741Y-121181932D01*
X192432821Y-121188532D01*
X192425689Y-121194706D01*
X192418344Y-121200454D01*
X192410786Y-121205777D01*
X192403015Y-121210674D01*
X192395031Y-121215145D01*
X192386834Y-121219190D01*
X192378424Y-121222809D01*
X192369801Y-121226003D01*
X192360966Y-121228771D01*
X192351918Y-121231113D01*
X192342656Y-121233029D01*
X192333182Y-121234519D01*
X192323495Y-121235584D01*
X192313595Y-121236223D01*
X192303482Y-121236435D01*
X192293725Y-121236223D01*
X192284133Y-121235584D01*
X192274707Y-121234519D01*
X192265446Y-121233029D01*
X192256351Y-121231113D01*
X192247421Y-121228771D01*
X192238656Y-121226003D01*
X192230058Y-121222809D01*
X192221624Y-121219190D01*
X192213356Y-121215145D01*
X192205254Y-121210674D01*
X192197317Y-121205777D01*
X192189545Y-121200454D01*
X192181939Y-121194706D01*
X192174498Y-121188532D01*
X192167223Y-121181932D01*
X192160623Y-121175024D01*
X192154449Y-121167927D01*
X192148700Y-121160641D01*
X192143378Y-121153166D01*
X192138481Y-121145502D01*
X192134010Y-121137648D01*
X192129965Y-121129605D01*
X192126345Y-121121373D01*
X192123152Y-121112952D01*
X192120384Y-121104341D01*
X192118042Y-121095541D01*
X192116126Y-121086552D01*
X192114636Y-121077373D01*
X192113571Y-121068005D01*
X192112932Y-121058447D01*
X192112720Y-121048701D01*
X192112932Y-121038576D01*
X192113571Y-121028640D01*
X192114636Y-121018894D01*
X192116126Y-121009337D01*
X192118042Y-120999969D01*
X192120384Y-120990790D01*
X192123152Y-120981800D01*
X192126345Y-120973000D01*
X192129965Y-120964389D01*
X192134010Y-120955968D01*
X192138481Y-120947735D01*
X192143378Y-120939692D01*
X192148700Y-120931839D01*
X192154449Y-120924174D01*
X192160623Y-120916699D01*
X192167223Y-120909414D01*
X192174498Y-120902447D01*
X192181939Y-120895930D01*
X192189545Y-120889863D01*
X192197317Y-120884245D01*
X192205254Y-120879076D01*
X192213356Y-120874356D01*
X192221624Y-120870086D01*
X192230058Y-120866266D01*
X192238656Y-120862895D01*
X192247421Y-120859973D01*
X192256351Y-120857501D01*
X192265446Y-120855478D01*
X192274707Y-120853905D01*
X192284133Y-120852781D01*
X192293725Y-120852107D01*
X192303482Y-120851882D01*
X192313595Y-120852107D01*
G37*
G36*
X188214287Y-119075003D02*
G01*
X188253320Y-119076636D01*
X188291879Y-119079356D01*
X188329966Y-119083165D01*
X188367579Y-119088061D01*
X188404719Y-119094046D01*
X188441386Y-119101119D01*
X188477580Y-119109281D01*
X188513301Y-119118530D01*
X188548548Y-119128868D01*
X188583323Y-119140294D01*
X188617624Y-119152808D01*
X188651452Y-119166410D01*
X188684807Y-119181101D01*
X188717689Y-119196879D01*
X188750097Y-119213746D01*
X188782211Y-119231228D01*
X188813449Y-119249609D01*
X188843812Y-119268889D01*
X188873300Y-119289067D01*
X188901912Y-119310145D01*
X188929649Y-119332121D01*
X188956510Y-119354997D01*
X188982496Y-119378771D01*
X189007607Y-119403444D01*
X189031843Y-119429016D01*
X189055203Y-119455488D01*
X189077688Y-119482858D01*
X189099297Y-119511127D01*
X189120032Y-119540295D01*
X189139891Y-119570362D01*
X189158874Y-119601327D01*
X189176840Y-119633027D01*
X189193648Y-119665294D01*
X189209296Y-119698129D01*
X189223785Y-119731531D01*
X189237115Y-119765501D01*
X189249286Y-119800039D01*
X189260298Y-119835144D01*
X189270151Y-119870817D01*
X189278845Y-119907058D01*
X189286379Y-119943867D01*
X189292755Y-119981243D01*
X189297971Y-120019188D01*
X189302028Y-120057700D01*
X189304926Y-120096780D01*
X189306665Y-120136427D01*
X189307245Y-120176643D01*
X189306902Y-120199341D01*
X189305873Y-120222015D01*
X189304158Y-120244666D01*
X189301757Y-120267293D01*
X189298670Y-120289896D01*
X189294897Y-120312476D01*
X189290438Y-120335032D01*
X189285293Y-120357564D01*
X189279462Y-120380072D01*
X189272945Y-120402557D01*
X189265742Y-120425019D01*
X189257852Y-120447457D01*
X189249277Y-120469871D01*
X189240015Y-120492262D01*
X189230068Y-120514629D01*
X189219434Y-120536973D01*
X189208671Y-120558653D01*
X189197576Y-120579789D01*
X189186151Y-120600381D01*
X189174394Y-120620430D01*
X189162306Y-120639934D01*
X189149886Y-120658894D01*
X189137135Y-120677310D01*
X189124053Y-120695182D01*
X189110640Y-120712511D01*
X189096896Y-120729295D01*
X189082820Y-120745535D01*
X189068414Y-120761231D01*
X189053676Y-120776383D01*
X189038607Y-120790991D01*
X189023206Y-120805055D01*
X189007475Y-120818575D01*
X189361749Y-120818575D01*
X189361749Y-121236436D01*
X188241397Y-121236435D01*
X188196698Y-121235939D01*
X188152686Y-121234448D01*
X188109359Y-121231964D01*
X188066719Y-121228487D01*
X188024765Y-121224016D01*
X187983497Y-121218551D01*
X187942915Y-121212093D01*
X187903019Y-121204642D01*
X187863809Y-121196196D01*
X187825286Y-121186758D01*
X187787448Y-121176325D01*
X187750296Y-121164899D01*
X187713830Y-121152480D01*
X187678051Y-121139067D01*
X187642957Y-121124660D01*
X187608549Y-121109260D01*
X187574958Y-121092560D01*
X187542312Y-121075007D01*
X187510613Y-121056603D01*
X187479861Y-121037347D01*
X187450054Y-121017239D01*
X187421194Y-120996279D01*
X187393280Y-120974468D01*
X187366312Y-120951805D01*
X187340291Y-120928291D01*
X187315215Y-120903925D01*
X187291086Y-120878707D01*
X187267903Y-120852638D01*
X187245666Y-120825718D01*
X187224375Y-120797946D01*
X187204031Y-120769322D01*
X187184633Y-120739847D01*
X187166666Y-120709615D01*
X187149859Y-120678721D01*
X187134210Y-120647164D01*
X187119721Y-120614944D01*
X187106391Y-120582063D01*
X187094220Y-120548519D01*
X187083208Y-120514312D01*
X187073355Y-120479443D01*
X187064661Y-120443911D01*
X187057127Y-120407718D01*
X187050751Y-120370861D01*
X187045535Y-120333342D01*
X187041478Y-120295161D01*
X187038580Y-120256318D01*
X187036841Y-120216812D01*
X187036305Y-120179671D01*
X187587354Y-120179671D01*
X187587649Y-120202203D01*
X187588536Y-120224381D01*
X187590015Y-120246204D01*
X187592085Y-120267671D01*
X187594747Y-120288784D01*
X187598000Y-120309543D01*
X187601844Y-120329946D01*
X187606280Y-120349995D01*
X187611307Y-120369688D01*
X187616925Y-120389027D01*
X187623135Y-120408011D01*
X187629936Y-120426640D01*
X187637328Y-120444915D01*
X187645312Y-120462834D01*
X187653887Y-120480399D01*
X187663053Y-120497609D01*
X187673108Y-120514393D01*
X187683587Y-120530680D01*
X187694493Y-120546470D01*
X187705824Y-120561764D01*
X187717581Y-120576561D01*
X187729764Y-120590861D01*
X187742372Y-120604664D01*
X187755406Y-120617971D01*
X187768866Y-120630780D01*
X187782752Y-120643093D01*
X187797064Y-120654910D01*
X187811802Y-120666229D01*
X187826965Y-120677052D01*
X187842555Y-120687378D01*
X187858570Y-120697207D01*
X187875012Y-120706539D01*
X187892150Y-120715339D01*
X187909502Y-120723572D01*
X187927067Y-120731236D01*
X187944844Y-120738333D01*
X187962835Y-120744862D01*
X187981038Y-120750823D01*
X187999454Y-120756217D01*
X188018084Y-120761043D01*
X188036926Y-120765301D01*
X188055981Y-120768991D01*
X188075249Y-120772114D01*
X188094729Y-120774669D01*
X188114423Y-120776656D01*
X188134330Y-120778075D01*
X188154449Y-120778927D01*
X188174782Y-120779211D01*
X188194736Y-120778927D01*
X188214477Y-120778075D01*
X188234005Y-120776656D01*
X188253320Y-120774669D01*
X188272422Y-120772114D01*
X188291312Y-120768991D01*
X188309988Y-120765301D01*
X188328451Y-120761043D01*
X188346701Y-120756217D01*
X188364739Y-120750823D01*
X188382563Y-120744862D01*
X188400175Y-120738333D01*
X188417574Y-120731236D01*
X188434761Y-120723572D01*
X188451734Y-120715339D01*
X188468495Y-120706539D01*
X188484936Y-120697207D01*
X188500952Y-120687378D01*
X188516541Y-120677052D01*
X188531705Y-120666229D01*
X188546443Y-120654910D01*
X188560754Y-120643094D01*
X188574640Y-120630781D01*
X188588100Y-120617971D01*
X188601135Y-120604664D01*
X188613743Y-120590861D01*
X188625926Y-120576561D01*
X188637683Y-120561764D01*
X188649014Y-120546470D01*
X188659919Y-120530680D01*
X188670399Y-120514393D01*
X188680453Y-120497609D01*
X188689987Y-120480399D01*
X188698906Y-120462834D01*
X188707209Y-120444915D01*
X188714898Y-120426640D01*
X188721971Y-120408011D01*
X188728429Y-120389027D01*
X188734272Y-120369688D01*
X188739500Y-120349995D01*
X188744113Y-120329946D01*
X188748110Y-120309543D01*
X188751493Y-120288785D01*
X188754261Y-120267672D01*
X188756413Y-120246204D01*
X188757951Y-120224381D01*
X188758873Y-120202203D01*
X188759181Y-120179671D01*
X188758873Y-120157150D01*
X188757951Y-120135008D01*
X188756413Y-120113245D01*
X188754261Y-120091860D01*
X188751493Y-120070854D01*
X188748110Y-120050226D01*
X188744113Y-120029976D01*
X188739500Y-120010105D01*
X188734272Y-119990613D01*
X188728429Y-119971499D01*
X188721971Y-119952763D01*
X188714898Y-119934406D01*
X188707209Y-119916427D01*
X188698906Y-119898827D01*
X188689987Y-119881605D01*
X188680453Y-119864761D01*
X188670767Y-119847977D01*
X188660630Y-119831690D01*
X188650045Y-119815900D01*
X188639009Y-119800606D01*
X188627525Y-119785809D01*
X188615590Y-119771509D01*
X188603206Y-119757706D01*
X188590373Y-119744399D01*
X188577090Y-119731589D01*
X188563358Y-119719276D01*
X188549176Y-119707460D01*
X188534544Y-119696141D01*
X188519463Y-119685318D01*
X188503933Y-119674992D01*
X188487952Y-119665163D01*
X188471523Y-119655831D01*
X188454750Y-119646665D01*
X188437741Y-119638090D01*
X188420496Y-119630106D01*
X188403014Y-119622713D01*
X188385295Y-119615912D01*
X188367340Y-119609703D01*
X188349149Y-119604084D01*
X188330721Y-119599057D01*
X188312056Y-119594622D01*
X188293155Y-119590777D01*
X188274018Y-119587524D01*
X188254644Y-119584863D01*
X188235033Y-119582793D01*
X188215186Y-119581314D01*
X188195102Y-119580427D01*
X188174781Y-119580131D01*
X188154095Y-119580427D01*
X188133668Y-119581314D01*
X188113502Y-119582793D01*
X188093595Y-119584863D01*
X188073949Y-119587524D01*
X188054563Y-119590777D01*
X188035437Y-119594622D01*
X188016571Y-119599057D01*
X187997966Y-119604084D01*
X187979620Y-119609703D01*
X187961535Y-119615912D01*
X187943710Y-119622713D01*
X187926145Y-119630106D01*
X187908840Y-119638090D01*
X187891796Y-119646665D01*
X187875011Y-119655831D01*
X187858570Y-119665163D01*
X187842554Y-119674992D01*
X187826965Y-119685318D01*
X187811802Y-119696141D01*
X187797064Y-119707460D01*
X187782752Y-119719276D01*
X187768866Y-119731589D01*
X187755406Y-119744399D01*
X187742372Y-119757706D01*
X187729764Y-119771509D01*
X187717581Y-119785809D01*
X187705824Y-119800606D01*
X187694493Y-119815900D01*
X187683587Y-119831690D01*
X187673108Y-119847977D01*
X187663053Y-119864761D01*
X187653887Y-119881605D01*
X187645312Y-119898827D01*
X187637328Y-119916427D01*
X187629936Y-119934406D01*
X187623135Y-119952763D01*
X187616925Y-119971499D01*
X187611307Y-119990613D01*
X187606280Y-120010105D01*
X187601844Y-120029976D01*
X187598000Y-120050226D01*
X187594747Y-120070854D01*
X187592085Y-120091860D01*
X187590015Y-120113245D01*
X187588536Y-120135008D01*
X187587649Y-120157150D01*
X187587354Y-120179671D01*
X187036305Y-120179671D01*
X187036261Y-120176643D01*
X187036841Y-120136427D01*
X187038580Y-120096780D01*
X187041478Y-120057700D01*
X187045535Y-120019188D01*
X187050751Y-119981243D01*
X187057127Y-119943867D01*
X187064661Y-119907058D01*
X187073355Y-119870817D01*
X187083208Y-119835144D01*
X187094220Y-119800039D01*
X187106391Y-119765501D01*
X187119721Y-119731531D01*
X187134210Y-119698129D01*
X187149859Y-119665294D01*
X187166666Y-119633027D01*
X187184633Y-119601327D01*
X187203972Y-119570362D01*
X187224139Y-119540295D01*
X187245134Y-119511127D01*
X187266957Y-119482858D01*
X187289608Y-119455488D01*
X187313087Y-119429016D01*
X187337394Y-119403444D01*
X187362528Y-119378771D01*
X187388491Y-119354997D01*
X187415281Y-119332121D01*
X187442899Y-119310145D01*
X187471346Y-119289067D01*
X187500620Y-119268889D01*
X187530722Y-119249609D01*
X187561652Y-119231228D01*
X187593410Y-119213746D01*
X187626198Y-119196879D01*
X187659458Y-119181101D01*
X187693192Y-119166410D01*
X187727399Y-119152808D01*
X187762079Y-119140294D01*
X187797232Y-119128868D01*
X187832858Y-119118530D01*
X187868958Y-119109281D01*
X187905530Y-119101119D01*
X187942575Y-119094046D01*
X187980094Y-119088061D01*
X188018085Y-119083165D01*
X188056550Y-119079356D01*
X188095487Y-119076636D01*
X188134898Y-119075003D01*
X188174782Y-119074459D01*
X188214287Y-119075003D01*
G37*
G36*
X196430262Y-119120612D02*
G01*
X196474899Y-119122812D01*
X196518261Y-119126479D01*
X196560346Y-119131612D01*
X196601154Y-119138212D01*
X196640685Y-119146279D01*
X196678939Y-119155812D01*
X196715915Y-119166812D01*
X196751613Y-119179279D01*
X196786033Y-119193213D01*
X196819175Y-119208613D01*
X196851039Y-119225480D01*
X196881623Y-119243813D01*
X196910929Y-119263613D01*
X196938956Y-119284880D01*
X196965703Y-119307613D01*
X196991378Y-119331719D01*
X197015396Y-119357102D01*
X197037756Y-119383762D01*
X197058457Y-119411700D01*
X197077502Y-119440915D01*
X197094889Y-119471408D01*
X197110619Y-119503177D01*
X197124692Y-119536225D01*
X197137108Y-119570550D01*
X197147868Y-119606152D01*
X197156973Y-119643032D01*
X197164421Y-119681189D01*
X197170214Y-119720624D01*
X197174351Y-119761336D01*
X197176833Y-119803326D01*
X197177661Y-119846593D01*
X197177259Y-119875844D01*
X197176054Y-119904551D01*
X197174045Y-119932714D01*
X197171232Y-119960332D01*
X197167615Y-119987407D01*
X197163195Y-120013937D01*
X197157970Y-120039924D01*
X197151941Y-120065366D01*
X197145108Y-120090264D01*
X197137470Y-120114618D01*
X197129028Y-120138428D01*
X197119780Y-120161693D01*
X197109728Y-120184415D01*
X197098871Y-120206592D01*
X197087209Y-120228225D01*
X197074742Y-120249314D01*
X197061541Y-120269800D01*
X197047678Y-120289624D01*
X197033154Y-120308785D01*
X197017966Y-120327284D01*
X197002117Y-120345120D01*
X196985605Y-120362295D01*
X196968430Y-120378807D01*
X196950593Y-120394656D01*
X196932093Y-120409844D01*
X196912930Y-120424369D01*
X196893104Y-120438231D01*
X196872615Y-120451432D01*
X196851462Y-120463969D01*
X196829646Y-120475845D01*
X196807167Y-120487058D01*
X196784024Y-120497609D01*
X197159542Y-121236435D01*
X196608385Y-121236435D01*
X196272287Y-120573308D01*
X195969490Y-120573308D01*
X195969490Y-121236435D01*
X195433594Y-121236435D01*
X195433594Y-120122139D01*
X195433594Y-119571047D01*
X195969490Y-119571047D01*
X195969490Y-120122139D01*
X196290488Y-120122139D01*
X196310266Y-120121903D01*
X196329476Y-120121193D01*
X196348118Y-120120011D01*
X196366192Y-120118355D01*
X196383698Y-120116226D01*
X196400636Y-120113624D01*
X196417006Y-120110549D01*
X196432807Y-120107001D01*
X196448040Y-120102979D01*
X196462706Y-120098485D01*
X196476803Y-120093517D01*
X196490331Y-120088076D01*
X196503292Y-120082162D01*
X196515685Y-120075774D01*
X196527509Y-120068914D01*
X196538765Y-120061580D01*
X196544166Y-120057520D01*
X196549395Y-120053288D01*
X196554454Y-120048885D01*
X196559340Y-120044311D01*
X196564056Y-120039565D01*
X196568600Y-120034648D01*
X196572973Y-120029559D01*
X196577175Y-120024298D01*
X196581205Y-120018866D01*
X196585065Y-120013263D01*
X196588752Y-120007488D01*
X196592269Y-120001541D01*
X196595613Y-119995423D01*
X196598787Y-119989134D01*
X196604620Y-119976040D01*
X196609767Y-119962261D01*
X196614228Y-119947795D01*
X196618003Y-119932644D01*
X196621092Y-119916806D01*
X196623495Y-119900282D01*
X196625211Y-119883072D01*
X196626241Y-119865176D01*
X196626585Y-119846593D01*
X196626241Y-119827302D01*
X196625211Y-119808792D01*
X196623495Y-119791061D01*
X196621092Y-119774112D01*
X196618003Y-119757943D01*
X196614228Y-119742554D01*
X196609767Y-119727947D01*
X196604620Y-119714119D01*
X196598787Y-119701073D01*
X196592269Y-119688807D01*
X196585065Y-119677322D01*
X196577175Y-119666617D01*
X196568600Y-119656693D01*
X196559340Y-119647550D01*
X196549395Y-119639188D01*
X196538765Y-119631607D01*
X196527867Y-119624273D01*
X196516351Y-119617412D01*
X196504218Y-119611025D01*
X196491467Y-119605111D01*
X196478101Y-119599670D01*
X196464118Y-119594702D01*
X196449520Y-119590208D01*
X196434307Y-119586186D01*
X196418478Y-119582638D01*
X196402035Y-119579563D01*
X196384977Y-119576961D01*
X196367306Y-119574832D01*
X196349021Y-119573176D01*
X196330122Y-119571994D01*
X196310611Y-119571284D01*
X196290488Y-119571047D01*
X195969490Y-119571047D01*
X195433594Y-119571047D01*
X195433594Y-119119879D01*
X196384347Y-119119879D01*
X196430262Y-119120612D01*
G37*
D11*
X186281786Y-122524473D02*
X187661094Y-122787437D01*
D12*
X218050000Y-78875000D03*
X219950000Y-78875000D03*
X219000000Y-77000000D03*
D13*
X173139200Y-116630800D03*
D14*
X173139200Y-114090800D03*
X173139200Y-111550800D03*
D15*
X172086200Y-98969000D03*
X178586200Y-98969000D03*
X172086200Y-103469000D03*
X178586200Y-103469000D03*
X215390800Y-100624200D03*
X208890800Y-100624200D03*
X215390800Y-96124200D03*
X208890800Y-96124200D03*
D16*
X231344800Y-114215400D03*
D17*
X228844800Y-114215400D03*
X226344800Y-114215400D03*
X223844800Y-114215400D03*
X221344800Y-114215400D03*
X218844800Y-114215400D03*
D18*
X173646200Y-105882000D03*
X172096200Y-105882000D03*
D13*
X180736400Y-116605400D03*
D14*
X180736400Y-114065400D03*
X180736400Y-111525400D03*
D19*
X216000000Y-82525000D03*
X216000000Y-80975000D03*
D20*
X208889400Y-93762000D03*
X210539400Y-93762000D03*
D21*
X168500000Y-63500000D03*
D22*
X176684700Y-95732600D03*
X178559700Y-95732600D03*
D23*
X231190800Y-85906600D03*
D24*
X231190800Y-88406600D03*
X231190800Y-90906600D03*
X231190800Y-93406600D03*
X231190800Y-95906600D03*
X231190800Y-98406600D03*
D25*
X225299600Y-108043200D03*
X224799600Y-108043200D03*
X224299600Y-108043200D03*
X224299600Y-109468200D03*
X224799600Y-109468200D03*
X225299600Y-109468200D03*
D26*
X214041600Y-67387400D03*
X214041600Y-73887400D03*
X218541600Y-67387400D03*
X218541600Y-73887400D03*
X223041600Y-67387400D03*
X223041600Y-73887400D03*
D13*
X210439000Y-81889600D03*
D14*
X210439000Y-84429600D03*
X210439000Y-86969600D03*
X210439000Y-89509600D03*
D27*
X228400000Y-81205112D03*
D28*
X228400000Y-78705112D03*
D29*
X213750000Y-81650000D03*
X213750000Y-78850000D03*
D30*
X218325000Y-84250000D03*
X216675000Y-84250000D03*
D21*
X236500000Y-63500000D03*
X168500000Y-120000000D03*
D31*
X192702600Y-67973400D03*
D32*
X193002600Y-71003400D03*
X197852600Y-71003400D03*
D31*
X198152600Y-67973400D03*
D33*
X185737600Y-67843400D03*
D34*
X186537600Y-67843400D03*
D35*
X185737600Y-70383400D03*
D28*
X186537600Y-70383400D03*
D36*
X185737600Y-72923400D03*
D37*
X186537600Y-72923400D03*
D35*
X185737600Y-75463400D03*
D28*
X186537600Y-75463400D03*
D35*
X185737600Y-78003400D03*
D28*
X186537600Y-78003400D03*
D35*
X185737600Y-80543400D03*
D28*
X186537600Y-80543400D03*
D35*
X185737600Y-83083400D03*
D28*
X186537600Y-83083400D03*
D36*
X185737600Y-85623400D03*
D37*
X186537600Y-85623400D03*
D35*
X185737600Y-88163400D03*
D28*
X186537600Y-88163400D03*
D35*
X185737600Y-90703400D03*
D28*
X186537600Y-90703400D03*
D35*
X185737600Y-93243400D03*
D28*
X186537600Y-93243400D03*
D35*
X185737600Y-95783400D03*
D28*
X186537600Y-95783400D03*
D36*
X185737600Y-98323400D03*
D37*
X186537600Y-98323400D03*
D35*
X185737600Y-100863400D03*
D28*
X186537600Y-100863400D03*
D35*
X185737600Y-103403400D03*
D28*
X186537600Y-103403400D03*
D35*
X185737600Y-105943400D03*
D28*
X186537600Y-105943400D03*
D35*
X185737600Y-108483400D03*
D28*
X186537600Y-108483400D03*
D36*
X185737600Y-111023400D03*
D37*
X186537600Y-111023400D03*
D35*
X185737600Y-113563400D03*
D28*
X186537600Y-113563400D03*
D35*
X185737600Y-116103400D03*
D28*
X186537600Y-116103400D03*
X204317600Y-116103400D03*
D35*
X205117600Y-116103400D03*
D28*
X204317600Y-113563400D03*
D35*
X205117600Y-113563400D03*
D38*
X204317600Y-111023400D03*
D33*
X205117600Y-111023400D03*
D28*
X204317600Y-108483400D03*
D35*
X205117600Y-108483400D03*
D28*
X204317600Y-105943400D03*
D35*
X205117600Y-105943400D03*
D28*
X204317600Y-103403400D03*
D35*
X205117600Y-103403400D03*
D28*
X204317600Y-100863400D03*
D35*
X205117600Y-100863400D03*
D38*
X204317600Y-98323400D03*
D33*
X205117600Y-98323400D03*
D28*
X204317600Y-95783400D03*
D35*
X205117600Y-95783400D03*
D28*
X204317600Y-93243400D03*
D35*
X205117600Y-93243400D03*
D28*
X204317600Y-90703400D03*
D35*
X205117600Y-90703400D03*
D28*
X204317600Y-88163400D03*
D35*
X205117600Y-88163400D03*
D38*
X204317600Y-85623400D03*
D33*
X205117600Y-85623400D03*
D28*
X204317600Y-83083400D03*
D35*
X205117600Y-83083400D03*
D28*
X204317600Y-80543400D03*
D35*
X205117600Y-80543400D03*
D28*
X204317600Y-78003400D03*
D35*
X205117600Y-78003400D03*
D28*
X204317600Y-75463400D03*
D35*
X205117600Y-75463400D03*
D38*
X204317600Y-72923400D03*
D33*
X205117600Y-72923400D03*
D28*
X204317600Y-70383400D03*
D35*
X205117600Y-70383400D03*
D28*
X204317600Y-67843400D03*
D35*
X205117600Y-67843400D03*
D18*
X215303400Y-93700600D03*
X213753400Y-93700600D03*
D39*
X224101600Y-91897200D03*
X224101600Y-92397200D03*
X224101600Y-92897200D03*
X225526600Y-92897200D03*
X225526600Y-92397200D03*
X225526600Y-91897200D03*
D40*
X230378000Y-71780400D03*
D41*
X230378000Y-69280400D03*
D20*
X173368200Y-93599000D03*
X175018200Y-93599000D03*
D42*
X218062500Y-80750000D03*
X218062500Y-82650000D03*
X219937500Y-81700000D03*
D13*
X177000000Y-116580000D03*
D14*
X177000000Y-114040000D03*
X177000000Y-111500000D03*
D43*
X223100000Y-81100000D03*
D44*
X223100000Y-79100000D03*
D21*
X236500000Y-120000000D03*
D45*
X224000000Y-94749201D03*
D44*
X224000000Y-96749201D03*
D22*
X176684700Y-93624400D03*
X178559700Y-93624400D03*
D46*
X204500000Y-62500000D03*
X220200000Y-85500000D03*
D20*
X175246600Y-105856600D03*
X176896600Y-105856600D03*
D13*
X180390800Y-84607400D03*
D14*
X180390800Y-87147400D03*
X177850800Y-84607400D03*
X177850800Y-87147400D03*
X175310800Y-84607400D03*
X175310800Y-87147400D03*
X172770800Y-84607400D03*
X172770800Y-87147400D03*
X170230800Y-84607400D03*
X170230800Y-87147400D03*
D20*
X173368200Y-95631000D03*
X175018200Y-95631000D03*
D13*
X174396400Y-65963800D03*
D14*
X174396400Y-68503800D03*
X174396400Y-71043800D03*
X174396400Y-73583800D03*
X174396400Y-76123800D03*
X174396400Y-78663800D03*
D47*
X222427800Y-107772200D03*
D44*
X220427800Y-107772200D03*
M02*
